<?xml version="1.0" standalone="no"?>
<!DOCTYPE svg PUBLIC "-//W3C//DTD SVG 20010904//EN"
 "http://www.w3.org/TR/2001/REC-SVG-20010904/DTD/svg10.dtd">
<svg version="1.0" xmlns="http://www.w3.org/2000/svg"
 width="210.000000pt" height="210.000000pt" viewBox="0 0 210.000000 210.000000"
 preserveAspectRatio="xMidYMid meet">
<metadata>
Created by potrace 1.11, written by Peter Selinger 2001-2013
</metadata>
<g transform="translate(0.000000,210.000000) scale(0.100000,-0.100000)"
fill="#000000" stroke="none">
<path d="M1030 2085 c-14 -16 -8 -64 14 -116 l13 -32 17 45 c22 57 25 79 14
101 -11 21 -41 22 -58 2z"/>
<path d="M914 2016 c-7 -30 0 -44 29 -56 12 -5 37 -22 55 -36 30 -25 32 -26
32 -6 0 83 -99 166 -116 98z"/>
<path d="M1119 2009 c-16 -17 -29 -37 -29 -44 0 -7 -3 -28 -7 -46 l-6 -34 40
36 c23 21 50 40 61 43 26 9 34 42 15 61 -22 23 -42 18 -74 -16z"/>
<path d="M743 1965 c-82 -19 -142 -67 -180 -144 -23 -49 -24 -148 0 -184 9
-14 17 -28 17 -30 0 -2 -27 -7 -60 -10 -101 -11 -184 -68 -222 -153 -62 -142
26 -274 182 -274 64 0 110 19 141 59 65 85 67 87 86 75 9 -6 20 -22 24 -35 l5
-24 8 23 c15 47 -16 79 -71 73 -14 -1 -23 3 -23 11 0 24 -50 87 -81 104 -33
16 -92 21 -128 9 l-23 -7 22 -24 c18 -18 22 -34 22 -76 -2 -77 35 -115 90 -96
40 14 52 49 33 96 l-15 37 20 -24 c39 -46 16 -130 -41 -150 -70 -24 -142 -7
-190 45 -56 60 -45 150 25 220 138 139 362 35 436 -203 120 -387 20 -698 -227
-708 -169 -6 -301 144 -262 298 30 123 185 206 286 153 58 -29 78 -129 38
-190 -20 -30 -31 -35 -16 -7 28 51 14 140 -24 155 -36 13 -76 6 -102 -20 -24
-24 -25 -29 -18 -92 11 -101 9 -121 -14 -153 -24 -33 -21 -34 49 -29 74 5 156
71 180 145 17 51 8 126 -19 163 l-22 31 37 16 c38 16 75 55 85 90 6 20 1 23
-64 33 -82 12 -122 1 -150 -41 -16 -25 -16 -26 4 -32 11 -4 48 -7 82 -7 51 0
58 -2 37 -10 -15 -6 -51 -6 -90 -2 -88 11 -135 7 -180 -16 -61 -31 -97 -68
-126 -127 -87 -178 46 -394 252 -411 l62 -5 -26 -50 c-79 -151 35 -337 206
-337 128 0 211 70 213 178 3 133 -140 220 -261 157 l-33 -17 29 -18 c16 -11
36 -39 47 -67 25 -66 53 -93 94 -93 35 0 73 29 73 55 0 28 -30 74 -58 90 -26
15 -26 16 -2 9 32 -8 48 -22 64 -53 41 -79 -31 -178 -135 -186 -116 -8 -209
69 -209 175 0 150 151 239 414 244 225 5 371 -46 432 -150 47 -80 31 -175 -38
-227 -89 -66 -212 -55 -268 23 -39 55 -19 143 37 169 37 17 37 13 3 -16 -39
-32 -50 -60 -38 -93 12 -31 25 -40 64 -40 39 0 77 36 93 89 7 24 25 50 44 65
l32 25 -48 21 c-149 66 -301 -94 -227 -240 33 -65 104 -100 200 -100 95 1 189
73 216 167 19 64 12 121 -20 179 l-25 44 44 0 c107 0 213 67 270 172 58 106
34 242 -58 325 -68 61 -120 73 -257 58 -53 -6 -69 -4 -85 10 -11 9 -14 13 -7
10 19 -10 119 -8 138 3 34 19 -58 88 -106 78 -8 -1 -36 -6 -62 -11 -37 -6 -48
-11 -48 -26 0 -28 56 -86 95 -99 34 -11 34 -12 16 -31 -27 -29 -44 -100 -36
-149 14 -80 103 -161 194 -174 53 -7 65 1 41 31 -22 28 -25 69 -10 143 15 78
-21 130 -89 130 -32 0 -70 -32 -72 -59 -2 -34 4 -77 13 -95 7 -13 7 -16 -1
-12 -6 4 -18 23 -26 41 -23 57 -2 131 46 159 40 23 107 22 163 -3 141 -62 179
-233 78 -351 -105 -124 -299 -126 -397 -5 -65 81 -86 147 -90 290 -8 215 59
423 166 519 105 96 243 98 326 6 104 -116 43 -263 -111 -269 -47 -2 -59 2 -86
26 -22 20 -33 39 -35 63 -3 33 21 98 32 87 2 -3 0 -14 -6 -25 -18 -35 -13 -69
14 -91 22 -16 31 -18 56 -9 38 13 49 35 49 96 0 34 6 57 20 75 l20 25 -28 9
c-75 23 -160 -19 -191 -96 -8 -19 -20 -31 -30 -30 -38 3 -57 -2 -69 -21 -13
-22 -6 -70 10 -70 6 0 7 7 4 16 -4 9 -1 23 5 30 21 26 46 15 77 -36 39 -63 77
-86 146 -89 77 -3 130 14 169 54 111 115 38 308 -136 360 -28 8 -65 15 -83 15
l-33 0 19 43 c28 61 26 124 -8 188 -79 152 -274 187 -389 69 -66 -67 -67 -166
-3 -230 66 -66 170 -65 237 0 30 30 59 89 45 91 -4 1 -19 0 -34 -1 -15 -1 -47
10 -71 24 -57 34 -99 34 -125 1 -15 -18 -18 -33 -13 -52 9 -32 62 -63 99 -57
21 3 23 2 12 -6 -40 -26 -114 0 -144 50 -51 87 17 193 131 207 42 4 60 1 104
-20 69 -33 96 -57 114 -101 37 -89 -1 -186 -95 -243 -19 -12 -79 -32 -132 -46
-238 -60 -538 -14 -636 97 -29 34 -52 89 -52 129 0 27 28 89 53 115 33 36 93
63 151 69 92 9 178 -59 178 -141 0 -74 -54 -127 -129 -125 l-38 0 47 15 c73
22 97 70 58 112 -28 30 -71 28 -126 -4 -34 -20 -53 -25 -79 -21 l-35 6 16 -37
c33 -79 98 -119 180 -109 122 13 182 143 115 248 -51 81 -139 116 -238 94z
m557 -531 c0 -1 -11 -31 -25 -67 -64 -172 -79 -244 -79 -392 -1 -111 3 -151
18 -195 10 -30 22 -59 27 -64 15 -16 10 -45 -8 -54 -10 -5 -94 -9 -186 -8
-193 1 -196 2 -167 75 38 98 54 264 35 371 -9 56 -45 179 -75 260 l-28 75 244
0 c134 0 244 -1 244 -1z"/>
<path d="M905 1329 c-3 -4 6 -52 21 -106 23 -82 27 -118 27 -223 0 -75 -6
-153 -15 -195 -9 -38 -15 -71 -13 -73 13 -14 258 -22 271 -10 2 3 -3 38 -12
79 -24 113 -22 294 4 402 25 101 26 111 11 102 -21 -13 -110 -6 -152 13 l-43
19 13 -71 c15 -86 14 -292 -1 -361 -11 -47 -12 -43 -12 70 0 115 -8 236 -23
320 -6 37 -9 40 -39 42 -17 1 -34 -3 -37 -8z"/>
<path d="M1642 1729 c-13 -5 -20 -13 -17 -19 3 -5 1 -10 -4 -10 -18 0 -6 -42
18 -61 41 -34 102 13 78 60 -15 29 -45 41 -75 30z"/>
<path d="M420 1703 c-31 -40 -6 -83 47 -83 28 0 34 3 29 16 -3 8 -2 13 3 10 5
-3 12 1 15 10 9 23 7 36 -4 29 -5 -3 -7 0 -4 8 5 15 -16 29 -49 32 -10 1 -26
-9 -37 -22z"/>
<path d="M1046 1708 c5 -7 3 -8 -6 -3 -16 10 -29 -11 -22 -37 7 -28 43 -39 65
-20 20 18 22 43 5 60 -16 16 -52 16 -42 0z"/>
<path d="M1102 1623 c-6 -2 -10 -9 -6 -14 3 -5 0 -9 -5 -9 -19 0 -12 -39 9
-50 45 -24 80 29 42 63 -20 18 -20 18 -40 10z"/>
<path d="M966 1598 c-11 -15 -12 -26 -5 -40 5 -10 14 -16 20 -13 5 4 9 2 9 -3
0 -19 38 0 44 21 13 49 -39 77 -68 35z"/>
<path d="M1814 1218 c-15 -24 -36 -53 -47 -66 l-21 -23 33 6 c90 16 146 84 97
117 -22 15 -36 7 -62 -34z"/>
<path d="M224 1236 c-18 -47 43 -105 110 -106 l30 0 -26 28 c-14 15 -33 42
-42 60 -12 23 -23 32 -42 32 -13 0 -27 -6 -30 -14z"/>
<path d="M166 1127 c-21 -16 -18 -45 6 -60 12 -8 31 -6 72 6 31 10 56 22 56
26 0 7 -91 41 -109 41 -4 0 -15 -6 -25 -13z"/>
<path d="M1853 1123 c-24 -8 -43 -18 -43 -22 0 -11 108 -41 125 -35 20 8 29
42 15 59 -15 18 -42 18 -97 -2z"/>
<path d="M276 1055 c-22 -11 -46 -29 -53 -41 -12 -18 -11 -24 5 -45 19 -22 20
-22 46 -6 14 10 26 23 26 30 0 7 14 27 30 45 17 18 30 34 30 35 0 10 -52 -1
-84 -18z"/>
<path d="M1780 1044 c17 -20 36 -47 42 -60 13 -29 53 -32 67 -6 22 41 -46 102
-113 102 l-28 0 32 -36z"/>
<path d="M742 1028 c-7 -7 -12 -20 -12 -29 0 -21 30 -54 39 -42 3 4 13 8 21 8
22 0 25 46 4 62 -22 16 -37 16 -52 1z"/>
<path d="M1306 1025 c-18 -18 -7 -60 15 -60 8 0 17 -3 20 -8 3 -4 14 2 24 13
38 41 -19 94 -59 55z"/>
<path d="M985 530 c-17 -19 -17 -22 -3 -36 10 -10 23 -14 37 -9 26 8 27 27 3
49 -18 15 -20 15 -37 -4z"/>
<path d="M1082 528 c-7 -7 -8 -17 -1 -30 18 -33 66 -15 54 21 -7 23 -34 28
-53 9z"/>
<path d="M1612 489 c-13 -5 -20 -13 -17 -19 3 -5 1 -10 -4 -10 -18 0 -12 -39
9 -60 34 -34 90 -9 90 40 0 41 -37 64 -78 49z"/>
<path d="M470 480 c0 -5 -7 -7 -15 -4 -17 7 -30 -34 -20 -65 8 -28 61 -38 84
-17 23 21 24 66 2 83 -19 15 -51 17 -51 3z"/>
<path d="M1031 456 c-17 -20 -3 -46 24 -46 29 0 38 13 30 40 -7 23 -37 26 -54
6z"/>
<path d="M1085 183 c10 -82 63 -142 103 -116 31 19 26 50 -10 69 -18 9 -47 30
-65 47 l-32 30 4 -30z"/>
<path d="M1001 176 c-13 -14 -36 -30 -52 -36 -39 -17 -48 -49 -19 -72 19 -15
24 -16 42 -4 30 22 51 55 58 97 8 45 2 48 -29 15z"/>
<path d="M1044 133 c-3 -10 -10 -28 -15 -41 -20 -50 -5 -92 33 -92 31 0 39 32
21 94 -16 57 -29 70 -39 39z"/>
</g>
</svg>
