<svg width="62.396mm" height="14.829mm" version="1.1" viewBox="0 0 62.396 14.829" xmlns="http://www.w3.org/2000/svg">
	<g transform="translate(-67.071 -135.48)">
		<g transform="matrix(.25106 0 0 .25106 47.776 114.12)" style="stroke-width:3.9831">
			<text x="134.50368" y="126.83397" style="fill:#b91080;font-family:'Dancing Script';font-size:29.663px;letter-spacing:0px;line-height:1.25;stroke-width:1.0539;word-spacing:0px" xml:space="preserve"><tspan style="font-family:'Century Schoolbook L';font-size:44.495px;stroke-width:1.0539">UNIQUE</tspan></text>
			<g transform="matrix(.78274 0 0 .78274 20.747 12.648)" style="stroke-width:5.0887">
				<circle cx="82.716" cy="152.55" r="2.0552" style="fill:#b91080;opacity:.825;paint-order:markers stroke fill"/>
				<circle cx="126.23" cy="152.56" r="2.0552" style="fill:#b91080;opacity:.825;paint-order:markers stroke fill"/>
				<circle cx="82.755" cy="107.89" r="2.0552" style="fill:#b91080;opacity:.825;paint-order:markers stroke fill"/>
				<circle cx="126.25" cy="107.89" r="2.0552" style="fill:#b91080;opacity:.825;paint-order:markers stroke fill"/>
				<circle cx="102.49" cy="149.51" r="1.2177" style="fill:#b91080;opacity:.825;paint-order:markers stroke fill"/>
				<circle cx="106.46" cy="149.52" r="1.2177" style="fill:#b91080;opacity:.825;paint-order:markers stroke fill"/>
				<circle cx="104.41" cy="152.56" r="1.2177" style="fill:#b91080;opacity:.825;paint-order:markers stroke fill"/>
				<circle cx="106.47" cy="111.26" r="1.5484" style="fill:#b91080;opacity:.825;paint-order:markers stroke fill"/>
				<circle cx="104.37" cy="107.89" r="1.5484" style="fill:#b91080;opacity:.825;paint-order:markers stroke fill"/>
				<circle cx="102.15" cy="111.26" r="1.5484" style="fill:#b91080;opacity:.825;paint-order:markers stroke fill"/>
				<circle cx="94.022" cy="132.14" r="1.5484" style="fill:#b91080;opacity:.825;paint-order:markers stroke fill"/>
				<circle cx="114.34" cy="132.12" r="1.5484" style="fill:#b91080;opacity:.825;paint-order:markers stroke fill"/>
				<path d="m98.959 95.657c0.07247-0.20593 0.19512-0.394 0.35435-0.54334 0.19032-0.17763 0.43014-0.30167 0.68508-0.35435 0.23353-0.04826 0.47806-0.03696 0.7087 0.02363 0.40841 0.10729 0.76389 0.36346 1.0631 0.66146 0.42004 0.41841 0.74581 0.9254 0.99219 1.4647 0.36798 0.80541 0.56264 1.6895 0.56696 2.575v0.68508c-0.18034-0.2302-0.37144-0.45198-0.57246-0.66437-0.22454-0.23724-0.46132-0.46263-0.70321-0.68216-0.46132-0.41868-0.94847-0.82088-1.5119-1.0867-0.21973-0.10366-0.44913-0.18561-0.66986-0.28714-0.22073-0.10153-0.4354-0.22478-0.60582-0.39794-0.17583-0.17866-0.29948-0.40791-0.35312-0.65278-0.05363-0.24487-0.03719-0.50455 0.04601-0.74101z" style="fill:#b91080"/>
				<path d="m109.54 95.684c-0.0725-0.20593-0.19512-0.394-0.35435-0.54334-0.19033-0.17763-0.43014-0.30167-0.68509-0.35435-0.23353-0.04826-0.47806-0.03696-0.7087 0.02363-0.40841 0.10729-0.76389 0.36346-1.0631 0.66146-0.42004 0.41841-0.74581 0.9254-0.99219 1.4647-0.36798 0.80541-0.56264 1.6895-0.56696 2.575v0.68508c0.18034-0.23021 0.37144-0.45199 0.57246-0.66438 0.22454-0.23724 0.46132-0.46263 0.70321-0.68216 0.46132-0.41868 0.94847-0.82088 1.5119-1.0867 0.21973-0.10366 0.44913-0.18561 0.66985-0.28714 0.22073-0.10153 0.4354-0.22478 0.60582-0.39794 0.17583-0.17866 0.29949-0.40791 0.35312-0.65278 0.0536-0.24487 0.0372-0.50455-0.046-0.74101z" style="fill:#b91080"/>
				<path d="m99.079 165.04c0.07301 0.20569 0.19556 0.3936 0.35435 0.54334 0.18946 0.17867 0.42999 0.302 0.68509 0.35435 0.23358 0.0479 0.47804 0.0369 0.7087-0.0236 0.40847-0.10709 0.76393-0.3634 1.0631-0.66146 0.41997-0.41848 0.74578-0.92541 0.99219-1.4646 0.36803-0.80539 0.56269-1.6895 0.56696-2.575v-0.68508c-0.18035 0.2302-0.37145 0.45198-0.57246 0.66438-0.22453 0.23725-0.4613 0.46266-0.70321 0.68216-0.46136 0.41862-0.94864 0.82054-1.5119 1.0867-0.21965 0.10378-0.44893 0.18595-0.6696 0.28755-0.22067 0.1016-0.43531 0.22473-0.60607 0.39753-0.17636 0.17846-0.30094 0.40751-0.35493 0.65253-0.05399 0.24502-0.0372 0.50522 0.04782 0.74127z" style="fill:#b91080"/>
				<path d="m109.66 165.01c-0.073 0.20569-0.19556 0.3936-0.35435 0.54334-0.18946 0.17867-0.42999 0.302-0.68509 0.35435-0.23358 0.0479-0.47804 0.0369-0.7087-0.0236-0.40847-0.10709-0.76393-0.3634-1.0631-0.66146-0.41997-0.41848-0.74578-0.92541-0.99219-1.4646-0.36803-0.80539-0.56269-1.6895-0.56696-2.575v-0.68508c0.18035 0.2302 0.37145 0.45198 0.57246 0.66438 0.22453 0.23725 0.4613 0.46266 0.70321 0.68216 0.46136 0.41862 0.94864 0.82055 1.5119 1.0867 0.21965 0.10378 0.44893 0.18595 0.6696 0.28755s0.43531 0.22473 0.60607 0.39753c0.17636 0.17846 0.30094 0.4075 0.35493 0.65252 0.054 0.24502 0.0372 0.50522-0.0478 0.74127z" style="fill:#b91080"/>
				<path d="m74.977 123.08c-0.20569 0.073-0.3936 0.19556-0.54334 0.35435-0.17867 0.18946-0.302 0.42999-0.35435 0.68509-0.04794 0.23358-0.03687 0.47804 0.0236 0.7087 0.10709 0.40847 0.3634 0.76393 0.66146 1.0631 0.41848 0.41997 0.92541 0.74578 1.4646 0.99219 0.80539 0.36803 1.6895 0.56269 2.575 0.56696h0.68508c-0.2302-0.18035-0.45198-0.37145-0.66438-0.57246-0.23725-0.22453-0.46266-0.4613-0.68216-0.70321-0.41862-0.46136-0.82054-0.94864-1.0867-1.5119-0.10378-0.21965-0.18595-0.44893-0.28755-0.6696s-0.22473-0.43531-0.39753-0.60607c-0.17846-0.17636-0.40751-0.30094-0.65253-0.35493-0.24502-0.054-0.50522-0.0372-0.74127 0.0478z" style="fill:#b91080"/>
				<path d="m74.987 133.72c-0.20569-0.073-0.3936-0.19556-0.54334-0.35435-0.17867-0.18946-0.302-0.42999-0.35435-0.68509-0.04794-0.23358-0.03687-0.47804 0.0236-0.7087 0.10709-0.40847 0.3634-0.76393 0.66146-1.0631 0.41848-0.41997 0.92541-0.74578 1.4646-0.99219 0.80539-0.36803 1.6895-0.56269 2.575-0.56696h0.68508c-0.2302 0.18035-0.45198 0.37145-0.66438 0.57246-0.23725 0.22453-0.46266 0.4613-0.68216 0.70321-0.41862 0.46136-0.82055 0.94864-1.0867 1.5119-0.10378 0.21965-0.18595 0.44893-0.28755 0.6696s-0.22473 0.43531-0.39753 0.60607c-0.17846 0.17636-0.4075 0.30094-0.65252 0.35493-0.24502 0.054-0.50521 0.0372-0.74127-0.0478z" style="fill:#b91080"/>
				<path d="m133.49 122.9c0.20569 0.073 0.3936 0.19556 0.54334 0.35435 0.17867 0.18946 0.302 0.42999 0.35435 0.68509 0.0479 0.23358 0.0369 0.47804-0.0236 0.7087-0.10709 0.40847-0.3634 0.76393-0.66146 1.0631-0.41848 0.41997-0.92541 0.74578-1.4646 0.99219-0.80539 0.36803-1.6895 0.56269-2.575 0.56696h-0.68508c0.2302-0.18035 0.45198-0.37145 0.66438-0.57246 0.23725-0.22453 0.46266-0.4613 0.68216-0.70321 0.41862-0.46136 0.82054-0.94864 1.0867-1.5119 0.10378-0.21965 0.18595-0.44893 0.28755-0.6696s0.22473-0.43531 0.39753-0.60607c0.17846-0.17636 0.40751-0.30094 0.65253-0.35493 0.24502-0.054 0.50522-0.0372 0.74127 0.0478z" style="fill:#b91080"/>
				<path d="m133.48 133.54c0.20569-0.073 0.3936-0.19556 0.54334-0.35435 0.17867-0.18946 0.302-0.42999 0.35435-0.68509 0.0479-0.23358 0.0369-0.47804-0.0236-0.7087-0.10709-0.40847-0.3634-0.76393-0.66146-1.0631-0.41848-0.41997-0.92541-0.74578-1.4646-0.99219-0.80539-0.36803-1.6895-0.56269-2.575-0.56696h-0.68508c0.2302 0.18035 0.45198 0.37145 0.66438 0.57246 0.23725 0.22453 0.46266 0.4613 0.68216 0.70321 0.41862 0.46136 0.82055 0.94864 1.0867 1.5119 0.10378 0.21965 0.18595 0.44893 0.28755 0.6696s0.22473 0.43531 0.39753 0.60607c0.17846 0.17636 0.4075 0.30094 0.65252 0.35493 0.24502 0.054 0.50522 0.0372 0.74127-0.0478z" style="fill:#b91080"/>
				<path d="m104.37 162.19c-0.22406 0.57018-0.44142 1.143-0.65204 1.7183-0.11164 0.30492-0.22139 0.61058-0.32374 0.91874-0.11032 0.33216-0.21217 0.66778-0.28261 1.0106-0.0694 0.33797-0.10789 0.68892-0.0405 1.0273 0.0572 0.28715 0.19141 0.55903 0.38718 0.77675 0.0965 0.10732 0.20848 0.20212 0.33653 0.26871 0.213 0.11077 0.46168 0.13859 0.70078 0.11693 0.3329-0.0302 0.6633-0.15842 0.90045-0.39399 0.19416-0.19286 0.3184-0.45002 0.37246-0.71829 0.0648-0.32175 0.0322-0.65594-0.035-0.9772-0.0823-0.39345-0.21559-0.77418-0.35117-1.1526-0.15626-0.43615-0.31614-0.87103-0.48377-1.3029-0.16841-0.4339-0.34463-0.86477-0.52856-1.2923z" style="fill:#b91080"/>
				<path d="m104.37 98.42c-0.2224-0.5702-0.43809-1.143-0.64703-1.7183-0.11075-0.30493-0.21962-0.61059-0.32107-0.91874-0.10937-0.3322-0.21026-0.66783-0.27966-1.0106-0.0685-0.33813-0.1058-0.68914-0.0375-1.0273 0.058-0.28731 0.19311-0.5591 0.38944-0.77675 0.0968-0.10731 0.20903-0.20212 0.3373-0.26871 0.21316-0.11067 0.46192-0.13859 0.70112-0.11693 0.33258 0.03011 0.66273 0.1583 0.89931 0.39399 0.19365 0.19293 0.31711 0.45017 0.37037 0.71829 0.064 0.32196 0.0303 0.6561-0.0379 0.9772-0.0835 0.39353-0.21787 0.77422-0.35453 1.1526-0.15753 0.43616-0.31868 0.87104-0.48757 1.3029-0.16968 0.43392-0.34716 0.86478-0.53232 1.2923z" style="fill:#b91080"/>
				<path d="m77.524 128.49c-0.57021-0.22013-1.143-0.43354-1.7183-0.64016-0.30494-0.10953-0.61061-0.21717-0.91874-0.31739-0.33225-0.10807-0.66791-0.20763-1.0106-0.27562-0.33835-0.0671-0.68945-0.10295-1.0273-0.0334-0.28754 0.0592-0.5592 0.19544-0.77675 0.39255-0.10731 0.0972-0.20211 0.2098-0.26871 0.33838-0.11054 0.2134-0.13858 0.46224-0.11693 0.70159 0.03004 0.33214 0.15813 0.66196 0.39399 0.89773 0.19303 0.19296 0.45039 0.31531 0.71829 0.36749 0.32225 0.0628 0.65632 0.0276 0.9772-0.0418 0.39364-0.0852 0.77428-0.22099 1.1526-0.35914 0.43618-0.15928 0.87106-0.32217 1.3029-0.49278 0.43394-0.17143 0.8648-0.35063 1.2923-0.53749z" style="fill:#b91080"/>
				<path d="m130.88 128.49c0.57021 0.22013 1.143 0.43354 1.7183 0.64016 0.30494 0.10953 0.61061 0.21717 0.91874 0.31739 0.33225 0.10807 0.66791 0.20763 1.0106 0.27562 0.33835 0.0671 0.68945 0.10295 1.0273 0.0334 0.28754-0.0592 0.5592-0.19544 0.77675-0.39255 0.10731-0.0972 0.20211-0.2098 0.26871-0.33838 0.11054-0.2134 0.13858-0.46224 0.11693-0.70159-0.03-0.33214-0.15813-0.66196-0.39399-0.89773-0.19303-0.19296-0.45039-0.31531-0.71829-0.36749-0.32225-0.0628-0.65632-0.0276-0.9772 0.0418-0.39364 0.0852-0.77428 0.22099-1.1526 0.35914-0.43618 0.15928-0.87106 0.32217-1.3029 0.49278-0.43394 0.17143-0.8648 0.35063-1.2923 0.53749z" style="fill:#b91080"/>
				<path d="m98.422 120.2 2.8063-0.33409c0.67641 3.4662 1.0712 6.9874 1.1791 10.517 0.0849 2.7772-8e-3 5.5598-0.2767 8.3252 0.74868-2.7906 1.1777-5.6667 1.276-8.5543 0.11918-3.5021-0.24914-7.0204-1.091-10.422 1.112 0.86987 2.4542 1.4427 3.8516 1.644 1.2879 0.18544 2.62 0.0558 3.8479-0.37439-1.2318 3.4578-1.887 7.1204-1.9303 10.791-0.0406 3.4413 0.45612 6.8885 1.4666 10.178-1.7487 0.30253-3.5268 0.43453-5.301 0.39352-1.6318-0.0377-3.2602-0.22172-4.8593-0.54908 1.0932-3.8403 1.5062-7.8732 1.2142-11.855-0.24468-3.3368-0.98283-6.6369-2.183-9.76z" style="fill:#b91080"/>
				<path transform="scale(.26458)" d="m357.81 367.14c-8.4676 0.234-16.796 3.8456-22.99 9.666-6.5122 6.1189-10.78 14.814-10.715 23.75 0.0469 6.4485 2.3537 12.859 6.4277 17.857-7.1216-1.0491-14.525-0.11097-21.16 2.6797-5.6246 2.3654-10.713 6.0714-14.5 10.855-3.7874 4.7841-6.2423 10.652-6.75 16.732-0.46263 5.5404 0.72458 11.261 3.6602 15.982 2.5328 4.0736 6.3314 7.339 10.715 9.2871 5.0515 2.245 10.737 2.7324 16.25 2.3203 4.3346-0.3239 8.7683-1.2446 12.32-3.75 3.8889-2.743 6.3046-7.0661 8.5723-11.25 0.39946-0.73704 0.80128-1.4782 1.3125-2.1426 0.51122-0.6644 1.1419-1.2545 1.9023-1.6074 0.75681-0.35112 1.6212-0.45213 2.4453-0.32226 0.82418 0.13001 1.607 0.48704 2.2695 0.99414 1.287 0.98502 2.1066 2.5547 2.1777 4.1738 0.0711 1.6192-0.60696 3.2575-1.8027 4.3516 1.4628-0.70878 2.6957-1.8811 3.4805-3.3047 0.53696-0.97406 0.86654-2.0637 0.93555-3.1738 0.069-1.1101-0.12426-2.2385-0.57812-3.2539-0.48669-1.0888-1.2679-2.0392-2.2168-2.7617-0.94887-0.7225-2.0614-1.2202-3.2227-1.4922-2.3139-0.54191-4.8301-0.16166-6.8809 1.0391-0.26721-1.2734-0.62641-2.5277-1.0723-3.75-1.302-3.5696-3.3742-6.881-6.1602-9.4648-3.3255-3.0842-7.6474-5.0762-12.152-5.6016-4.505-0.52531-9.1694 0.41998-13.115 2.6563 1.637 0.60786 3.1095 1.6474 4.2305 2.9863 1.1209 1.3389 1.8867 2.9731 2.1973 4.6914 0.32254 1.7848 0.16022 3.6185-0.0137 5.4238-0.17386 1.8054-0.35824 3.6341-0.0762 5.4258 0.25988 1.6508 0.92125 3.2382 1.9277 4.5723 1.0065 1.3341 2.358 2.4093 3.8945 3.0664s3.2549 0.89226 4.9082 0.64844c1.6533-0.24378 3.2358-0.96924 4.4844-2.0801 1.8157-1.6155 2.8477-4.0423 2.8594-6.4727 6e-3 -1.2152-0.22352-2.4239-0.60351-3.5781s-0.90944-2.2522-1.4434-3.3438l-2.0098-4.1074c2.8302 1.9064 4.948 4.8472 5.8555 8.1367 0.90744 3.2895 0.597 6.9005-0.85547 9.9883-0.9011 1.9156-2.237 3.6362-3.9277 4.9102-2.7788 2.0939-6.3464 2.8786-9.8223 3.0352-5.21 0.23471-10.541-0.86576-15-3.5703-3.9568-2.3998-7.1928-6.1192-8.5703-10.537-1.3724-4.4015-0.84398-9.2313 0.71484-13.57 1.3843-3.8533 3.5714-7.4239 6.4277-10.357 3.9254-4.0316 9.1124-6.8182 14.643-7.8574 5.9764-1.123 12.251-0.21157 17.857 2.1426 5.1977 2.1826 9.8494 5.5725 13.75 9.6426 4.3264 4.5144 7.7442 9.8566 10.357 15.537 2.7813 6.0457 4.6625 12.465 6.25 18.928 2.0172 8.2122 3.5794 16.56 4.1074 25 0.48919 7.8184 0.0834 15.706-1.4297 23.393-1.157 5.8772-2.9706 11.651-5.7285 16.969-3.8031 7.3326-9.5615 13.848-16.998 17.443-5.8042 2.8062-12.438 3.7323-18.848 3.0352-10.876-1.183-21.268-7.2585-27.055-16.543-4.3853-7.0356-6.0268-15.828-4.0254-23.873 1.48-5.9493 4.8866-11.366 9.4473-15.463 5.8232-5.2311 13.65-8.3214 21.469-7.9492 4.3588 0.2075 8.8208 1.5614 11.955 4.5977 2.1826 2.1144 3.6037 4.936 4.3223 7.8887 0.95602 3.9285 0.69848 8.1436-0.73047 11.926-1.429 3.7822-4.0231 7.1167-7.3379 9.4316 3.5602-4.0016 5.5847-9.3373 5.5742-14.693-6e-3 -3.0361-0.70639-6.1901-2.6465-8.5254-1.3499-1.6249-3.2482-2.7683-5.2949-3.291-2.0468-0.52267-4.2318-0.43536-6.2598 0.15625-3.196 0.93219-6.0324 3.1844-7.457 6.1934-0.89915 1.8992-1.2267 4.0317-1.2031 6.1328 0.0234 2.1012 0.38781 4.182 0.82031 6.2383 0.865 4.1126 2.0124 8.3168 1.291 12.457-0.68855 3.9515-3.1531 7.5588-6.584 9.6367 6.1218 1.2631 12.631 0.57097 18.352-1.9492 5.7201-2.5202 10.625-6.8568 13.824-12.227 3.0026-5.0394 4.5003-11.017 3.9082-16.854-0.52832-5.2072-2.768-10.29-6.5371-13.922-0.55921-0.53878-1.1496-1.0454-1.7676-1.5156 3.3738-0.26116 6.6794-1.3642 9.5352-3.1797 4.7471-3.0179 8.1711-8.0422 9.2422-13.564-2.4978-0.19994-4.9804-0.58431-7.4219-1.1484-3.0221-0.69827-6.0166-1.6766-9.1172-1.7617-3.2929-0.0903-6.6064 0.86653-9.3438 2.6992-2.7373 1.8327-4.8858 4.5323-6.0566 7.6113 3.7903 1.3172 7.8058 1.9831 11.818 1.9629 3.8937-0.0189 7.783-0.68469 11.461-1.9629-1.184 1.2858-2.6262 2.3317-4.2148 3.0606-1.8426 0.84533-3.867 1.2585-5.8926 1.3398-5.0866 0.20447-10.023-1.6274-15.088-2.1426-6.2339-0.63416-12.662 0.79723-18.037 4.0176-9.3076 5.0816-16.215 14.36-18.414 24.734-2.3209 10.949 0.68131 22.901 7.9004 31.453 5.2706 7.0637 12.84 12.384 21.271 14.949 5.8243 1.7721 12.039 2.2457 18.064 1.3789-1.5355 1.4738-2.8954 3.132-4.041 4.9258-1.5528 2.4313-2.7074 5.1086-3.4707 7.8906-1.2248 4.4639-1.4342 9.1942-0.69531 13.764 0.39226 2.426 1.0491 4.8125 2.0195 7.0703 1.5429 3.5895 3.8623 6.8148 6.5625 9.6387 2.596 2.7149 5.5744 5.0925 8.9277 6.7852 5.2473 2.6486 11.286 3.5353 17.143 3.0352 5.7118-0.48778 11.309-2.2708 16.25-5.1777 4.7276-3.4982 8.0912-8.7939 9.2461-14.561 1.1549-5.7666 0.09-11.949-2.9258-16.998-2.4852-4.1605-6.2586-7.5342-10.656-9.5703-4.328-2.0038-9.2456-2.7109-13.963-2.0078s-9.2159 2.8153-12.771 5.9941c3.1417 0.27099 6.1376 1.9375 8.0234 4.4648 1.3318 1.7849 2.1 3.921 2.7695 6.0449 0.66958 2.124 1.2664 4.2909 2.3144 6.2559 1.0682 2.0026 2.6072 3.7654 4.5078 5.0059 1.9007 1.2404 4.1665 1.9447 6.4356 1.8926 2.269-0.0522 4.5302-0.87768 6.2324-2.3789 1.7022-1.5012 2.8131-3.6824 2.9258-5.9492 0.0745-1.4955-0.27475-2.9945-0.89062-4.3594-0.61576-1.3649-1.4924-2.6008-2.4863-3.7207-2.6048-2.9351-6.0585-5.1083-9.832-6.1856 4.3476-0.16554 8.7323 1.6249 11.723 4.7852 2.9904 3.1602 4.5362 7.6369 4.1309 11.969-0.27667 2.9558-1.424 5.8072-3.1582 8.2168-1.7342 2.4096-4.0441 4.3824-6.625 5.8496-4.1992 2.3872-9.0996 3.4299-13.928 3.2871-5.9202-0.17499-11.834-2.154-16.428-5.8926-3.4982-2.847-6.1895-6.684-7.6445-10.953-1.455-4.2691-1.6657-8.9568-0.57031-13.332 1.0127-4.0449 3.1144-7.779 5.8457-10.93s6.08-5.7326 9.6895-7.8203c7.1319-4.125 15.238-6.3269 23.393-7.5 6.6455-0.95596 13.366-1.0584 20.092-1.0272v-6.8538c-3.109-0.0387-4.8527-0.0664-7.2794-0.0214-2.8927 0.0537-5.7806 0.25452-8.6602 0.53515-1.2394 0.12095-2.4816 0.25737-3.7266 0.23242-1.245-0.0264-2.501-0.21646-3.6387-0.72265-0.961-0.42777-1.841-1.0989-2.3672-2.0098-0.37539-0.64981-0.55913-1.4003-0.58399-2.1504-0.0249-0.75005 0.10474-1.4991 0.32422-2.2168 0.43894-1.4353 1.2268-2.735 1.9121-4.0703 2.1567-4.2025 3.3306-8.8387 4.1953-13.482 1.5108-8.1134 2.1253-16.401 1.6973-24.643-0.82848-15.951-5.5244-31.45-11.072-46.428-1.3467-3.636-2.7446-7.2519-4.1953-10.848 8.7167 0.31068 17.445 0.29524 26.16-0.0449 2.4119-0.0941 4.823-0.14713 7.2324-0.29113v-6.5839c-3.7318 0.10857-7.0012-0.22675-10.445-0.44727-5.3628-0.39235-10.642-1.5278-15.895-2.6797-7.5709-1.6604-15.268-3.4149-21.963-7.3203-5.2048-3.0361-9.7293-7.4183-12.322-12.857-1.8157-3.8087-2.6499-8.079-2.4024-12.291 0.24756-4.212 1.5768-8.3561 3.8262-11.926 3.0771-3.7798 6.9334-6.9235 11.256-9.1758 6.5984-3.4382 14.487-4.7382 21.613-2.5996 3.5632 1.0693 6.8861 2.9836 9.5039 5.627 2.6178 2.6433 4.5139 6.0191 5.2774 9.6602 0.5616 2.6784 0.50909 5.4877-0.18555 8.1348-0.69453 2.6471-2.0335 5.1284-3.8926 7.1367-2.5853 2.7928-6.1764 4.6329-9.9531 5.1016-3.7768 0.4687-7.7089-0.43945-10.898-2.5156 3.9661 1.1074 8.2998 0.84797 12.105-0.72461 1.7306-0.71513 3.3704-1.707 4.6582-3.0664 1.2878-1.3594 2.2084-3.1057 2.3965-4.9688 0.20254-2.0066-0.46744-4.0637-1.7148-5.6484-1.2474-1.5848-3.0447-2.7024-4.9863-3.248-1.9416-0.54561-4.0195-0.53506-5.9883-0.0976-1.9688 0.43748-3.8316 1.2919-5.5254 2.3867-1.9378 1.2526-3.6879 2.8317-5.8047 3.75-1.6999 0.73746-3.5955 1.0171-5.4355 0.79883-1.8401-0.21808-3.6194-0.9341-5.0996-2.0488 0.75523 7.4 5.2945 14.314 11.785 17.947 3.7841 2.1184 8.168 3.1478 12.5 2.9453 5.6365-0.26344 11.157-2.6486 15.18-6.6055 3.0861-3.0355 5.2935-6.9915 6.0703-11.25 0.92916-5.0934-0.2142-10.446-2.6777-15-2.3113-4.272-5.7665-7.907-9.8711-10.504-4.1046-2.5969-8.8476-4.1582-13.686-4.5898-1.2095-0.10792-2.4212-0.14281-3.6309-0.10938zm72.41 0c-1.2097-0.0334-2.4214 1e-3 -3.6309 0.10938-4.8379 0.43166-9.581 1.993-13.686 4.5898s-7.5598 6.2319-9.8711 10.504c-2.4635 4.5537-3.6069 9.9066-2.6777 15 0.77685 4.2585 2.9842 8.2145 6.0703 11.25 4.0229 3.9568 9.5432 6.342 15.18 6.6055 4.332 0.2025 8.7159-0.82697 12.5-2.9453 6.4906-3.6334 11.03-10.547 11.785-17.947-1.4802 1.1147-3.2596 1.8304-5.0996 2.0488-1.8401 0.21826-3.7357-0.0614-5.4356-0.79883-2.1168-0.91831-3.8669-2.4974-5.8047-3.75-1.6938-1.0948-3.5546-1.9493-5.5234-2.3867-1.9688-0.43744-4.0487-0.44796-5.9902 0.0976-1.9416 0.54562-3.737 1.6633-4.9844 3.248-1.2474 1.5848-1.9174 3.6418-1.7148 5.6484 0.18804 1.8631 1.1087 3.6093 2.3965 4.9688 1.2878 1.3594 2.9256 2.3513 4.6562 3.0664 3.8056 1.5726 8.1394 1.832 12.105 0.72461-3.1895 2.0762-7.1217 2.9843-10.898 2.5156-3.7767-0.4687-7.3678-2.3088-9.9531-5.1016-1.8591-2.0083-3.198-4.4896-3.8926-7.1367-0.69464-2.6471-0.74715-5.4564-0.18555-8.1348 0.76346-3.6411 2.6595-7.0168 5.2773-9.6602 2.6179-2.6433 5.9406-4.5576 9.5039-5.627 7.1265-2.1386 15.017-0.8386 21.615 2.5996 4.3224 2.2523 8.1768 5.396 11.254 9.1758 2.2494 3.5697 3.5806 7.7138 3.8281 11.926 0.24755 4.212-0.58862 8.4823-2.4043 12.291-2.593 5.4391-7.1155 9.8213-12.32 12.857-6.695 3.9054-14.394 5.66-21.965 7.3203-5.2524 1.1519-10.53 2.2873-15.893 2.6797-3.4774 0.25443-6.7306 0.44735-10.447 0.44735l-0.0136 6.5792c2.5088-0.0328 4.8362 0.2016 7.248 0.29571 8.7156 0.34016 17.443 0.3556 26.16 0.0449-1.4507 3.5957-2.8505 7.2117-4.1973 10.848-5.5478 14.978-10.242 30.477-11.07 46.428-0.42807 8.2418 0.18452 16.529 1.6953 24.643 0.86472 4.6438 2.0406 9.2799 4.1973 13.482 0.6853 1.3353 1.4732 2.635 1.9121 4.0703 0.21921 0.71766 0.35067 1.4668 0.32422 2.2168-0.0249 0.75005-0.20868 1.5006-0.58399 2.1504-0.52618 0.91083-1.4062 1.582-2.3672 2.0098-1.1376 0.50619-2.3937 0.6962-3.6387 0.72265-1.245 0.0249-2.4872-0.11147-3.7266-0.23242-2.8796-0.28063-5.7675-0.48149-8.6602-0.53515-2.4266-0.045-4.8558-0.0206-7.2774 0.0215v6.8538c6.682-0.0975 13.444 0.0712 20.09 1.0271 8.1549 1.1731 16.261 3.375 23.393 7.5 3.6095 2.0877 6.9582 4.6696 9.6895 7.8203 2.7313 3.1508 4.833 6.8848 5.8457 10.93 1.0954 4.3753 0.88473 9.0629-0.57031 13.332-1.455 4.2691-4.1464 8.1062-7.6445 10.953-4.5937 3.7386-10.508 5.7176-16.428 5.8926-4.8282 0.14276-9.7305-0.89996-13.93-3.2871-2.5809-1.4672-4.8888-3.44-6.623-5.8496-1.7342-2.4096-2.8815-5.2609-3.1582-8.2168-0.40535-4.3318 1.1405-8.8085 4.1309-11.969 2.9904-3.1602 7.375-4.9507 11.723-4.7852-3.7736 1.0772-7.2272 3.2504-9.832 6.1856-0.9939 1.1199-1.8706 2.3559-2.4863 3.7207-0.61587 1.3649-0.96508 2.8639-0.89063 4.3594 0.11271 2.2668 1.2236 4.448 2.9258 5.9492 1.7023 1.5012 3.9634 2.3267 6.2324 2.3789 2.269 0.0521 4.5349-0.65214 6.4356-1.8926 1.9006-1.2405 3.4396-3.0033 4.5078-5.0059 1.0481-1.9649 1.6449-4.1319 2.3144-6.2559 0.66958-2.1239 1.4377-4.26 2.7695-6.0449 1.8859-2.5274 4.8817-4.1938 8.0234-4.4648-3.5556-3.1788-8.0542-5.2911-12.771-5.9941-4.7173-0.70307-9.6349 4e-3 -13.963 2.0078-4.3977 2.0361-8.173 5.4098-10.658 9.5703-3.0158 5.049-4.0787 11.231-2.9238 16.998 1.1549 5.7666 4.5165 11.062 9.2441 14.561 4.9409 2.907 10.538 4.69 16.25 5.1777 5.8565 0.50015 11.897-0.3865 17.145-3.0352 3.3533-1.6927 6.3317-4.0703 8.9277-6.7852 2.7002-2.8238 5.0177-6.0491 6.5606-9.6387 0.97047-2.2578 1.6292-4.6443 2.0215-7.0703 0.73886-4.5695 0.52948-9.2998-0.69531-13.764-0.76332-2.782-1.9199-5.4593-3.4727-7.8906-1.1456-1.7937-2.5036-3.452-4.0391-4.9258 6.0259 0.86683 12.24 0.39316 18.064-1.3789 8.4318-2.5654 16.001-7.8856 21.271-14.949 7.2191-8.5525 10.221-20.504 7.9004-31.453-2.1991-10.374-9.1064-19.653-18.414-24.734-5.3752-3.2204-11.803-4.6517-18.037-4.0176-5.0645 0.51523-10.001 2.347-15.088 2.1426-2.0256-0.0814-4.052-0.49451-5.8945-1.3398-1.5886-0.72885-3.0289-1.7748-4.2129-3.0606 3.678 1.2782 7.5672 1.944 11.461 1.9629 4.0126 0.0202 8.0281-0.64565 11.818-1.9629-1.1709-3.079-3.3193-5.7787-6.0566-7.6113-2.7373-1.8327-6.0508-2.7896-9.3438-2.6992-3.1006 0.0852-6.0951 1.0634-9.1172 1.7617-2.4415 0.56413-4.924 0.9485-7.4219 1.1484 1.0711 5.5223 4.4951 10.547 9.2422 13.564 2.8557 1.8155 6.1613 2.9185 9.5352 3.1797-0.61799 0.47021-1.2103 0.97685-1.7695 1.5156-3.7692 3.6315-6.0068 8.7146-6.5352 13.922-0.5921 5.8361 0.90567 11.814 3.9082 16.854 3.1994 5.3698 8.1021 9.7083 13.822 12.229 5.7201 2.5202 12.23 3.2104 18.352 1.9473-3.4309-2.0779-5.8954-5.6852-6.584-9.6367-0.72144-4.1402 0.42799-8.3444 1.293-12.457 0.43253-2.0563 0.79763-4.1371 0.82031-6.2383 0.0236-2.1012-0.30593-4.2336-1.2051-6.1328-1.4246-3.009-4.259-5.2612-7.4551-6.1934-2.0279-0.59161-4.213-0.67892-6.2598-0.15625-2.0468 0.52271-3.947 1.6661-5.2969 3.291-1.9401 2.3353-2.637 5.4893-2.6445 8.5254-0.0105 5.3561 2.0139 10.69 5.5742 14.691-3.3148-2.315-5.9089-5.6475-7.3379-9.4297-1.4289-3.7822-1.6865-7.9973-0.73047-11.926 0.71853-2.9526 2.1396-5.7743 4.3223-7.8887 3.1343-3.0362 7.5943-4.3902 11.953-4.5977 7.8189-0.37221 15.646 2.7181 21.469 7.9492 4.5607 4.097 7.9692 9.5136 9.4492 15.463 2.0014 8.0451 0.35988 16.837-4.0254 23.873-5.787 9.2845-16.178 15.36-27.055 16.543-6.4092 0.69713-13.043-0.22894-18.848-3.0352-7.4366-3.5954-13.197-10.111-17-17.443-2.7579-5.3173-4.5696-11.092-5.7266-16.969-1.5129-7.6862-1.9189-15.574-1.4297-23.393 0.52807-8.4398 2.0902-16.788 4.1074-25 1.5875-6.4627 3.4687-12.882 6.25-18.928 2.6132-5.6805 6.031-11.023 10.357-15.537 3.9006-4.0701 8.5523-7.46 13.75-9.6426 5.6068-2.3542 11.881-3.2656 17.857-2.1426 5.5301 1.0392 10.717 3.8258 14.643 7.8574 2.8563 2.9336 5.0434 6.5041 6.4277 10.357 1.5588 4.339 2.0873 9.1688 0.71484 13.57-1.3775 4.418-4.6154 8.1373-8.5723 10.537-4.4592 2.7045-9.79 3.805-15 3.5703-3.4759-0.15659-7.0414-0.94126-9.8203-3.0352-1.6907-1.274-3.0286-2.9945-3.9297-4.9102-1.4525-3.0878-1.761-6.6988-0.85351-9.9883 0.90742-3.2895 3.0234-6.2304 5.8535-8.1367l-2.0078 4.1074c-0.53393 1.0916-1.0634 2.1895-1.4434 3.3438-0.37988 1.1542-0.61107 2.3629-0.60351 3.5781 0.0116 2.4303 1.0436 4.8572 2.8594 6.4727 1.2485 1.1108 2.8311 1.8363 4.4844 2.0801 1.6533 0.24382 3.3716 9e-3 4.9082-0.64844 1.5365-0.65711 2.888-1.7323 3.8945-3.0664 1.0064-1.3341 1.6677-2.9214 1.9277-4.5723 0.28195-1.7916 0.0977-3.6204-0.0762-5.4258-0.17499-1.8054-0.33802-3.639-0.0156-5.4238 0.31056-1.7183 1.0763-3.3525 2.1973-4.6914 1.1209-1.3389 2.5955-2.3785 4.2324-2.9863-3.9459-2.2363-8.6103-3.1816-13.115-2.6563-4.505 0.52532-8.8268 2.5174-12.152 5.6016-2.786 2.5838-4.8601 5.8952-6.1621 9.4648-0.44587 1.2223-0.8031 2.4766-1.0703 3.75-2.0508-1.2007-4.5689-1.581-6.8828-1.0391-1.1612 0.27194-2.2718 0.76969-3.2207 1.4922-0.94885 0.72253-1.7321 1.6729-2.2188 2.7617-0.45373 1.0154-0.64729 2.1438-0.57812 3.2539 0.0691 1.1101 0.39858 2.1998 0.93554 3.1738 0.78475 1.4236 2.0196 2.5959 3.4824 3.3047-1.1958-1.094-1.8738-2.7324-1.8027-4.3516 0.0711-1.6192 0.88874-3.1888 2.1758-4.1738 0.66259-0.5071 1.4454-0.86413 2.2695-0.99414 0.82417-0.12987 1.6904-0.0289 2.4473 0.32226 0.7604 0.35293 1.3911 0.94302 1.9023 1.6074 0.51126 0.66441 0.91109 1.4055 1.3106 2.1426 2.2676 4.1839 4.6834 8.507 8.5723 11.25 3.552 2.5054 7.9857 3.4261 12.32 3.75 5.5125 0.41208 11.199-0.0753 16.25-2.3203 4.3834-1.9481 8.1821-5.2135 10.715-9.2871 2.9356-4.7215 4.1228-10.442 3.6602-15.982-0.50775-6.0806-2.9626-11.948-6.75-16.732-3.7874-4.7841-8.8754-8.49-14.5-10.855-6.6355-2.7907-14.039-3.7288-21.16-2.6797 4.0741-4.9987 6.3828-11.409 6.4297-17.857 0.065-8.9356-4.2027-17.631-10.715-23.75-6.1945-5.8204-14.525-9.432-22.992-9.666z" style="fill:#78a22f"/>
			</g>
		</g>
	</g>
</svg>
