<?xml version="1.0" encoding="UTF-8" standalone="no"?>
<!-- Created with Inkscape (http://www.inkscape.org/) -->

<svg
   xmlns:dc="http://purl.org/dc/elements/1.1/"
   xmlns:cc="http://creativecommons.org/ns#"
   xmlns:rdf="http://www.w3.org/1999/02/22-rdf-syntax-ns#"
   xmlns:svg="http://www.w3.org/2000/svg"
   xmlns="http://www.w3.org/2000/svg"
   xmlns:xlink="http://www.w3.org/1999/xlink"
   xmlns:sodipodi="http://sodipodi.sourceforge.net/DTD/sodipodi-0.dtd"
   xmlns:inkscape="http://www.inkscape.org/namespaces/inkscape"
   width="120.52617mm"
   height="106.78298mm"
   viewBox="0 0 120.52617 106.78298"
   version="1.1"
   id="svg8"
   inkscape:version="0.92.3 (unknown)"
   sodipodi:docname="unique_logo_inkscape.svg">
  <defs
     id="defs2">
    <inkscape:path-effect
       effect="spiro"
       id="path-effect1481"
       is_visible="true" />
    <inkscape:path-effect
       effect="spiro"
       id="path-effect1204"
       is_visible="true" />
    <inkscape:path-effect
       effect="spiro"
       id="path-effect1164"
       is_visible="true" />
    <inkscape:path-effect
       effect="spiro"
       id="path-effect1058"
       is_visible="true" />
    <inkscape:path-effect
       effect="spiro"
       id="path-effect1058-1"
       is_visible="true" />
    <inkscape:path-effect
       effect="spiro"
       id="path-effect1058-17"
       is_visible="true" />
    <inkscape:path-effect
       effect="spiro"
       id="path-effect1058-1-4"
       is_visible="true" />
    <inkscape:path-effect
       effect="spiro"
       id="path-effect1058-0"
       is_visible="true" />
    <inkscape:path-effect
       effect="spiro"
       id="path-effect1058-0-1"
       is_visible="true" />
    <inkscape:path-effect
       effect="spiro"
       id="path-effect1058-1-4-6"
       is_visible="true" />
    <inkscape:path-effect
       effect="spiro"
       id="path-effect1058-1-4-6-1"
       is_visible="true" />
    <inkscape:path-effect
       effect="spiro"
       id="path-effect1058-0-1-9"
       is_visible="true" />
    <inkscape:path-effect
       effect="spiro"
       id="path-effect1164-8"
       is_visible="true" />
    <inkscape:path-effect
       effect="spiro"
       id="path-effect1164-81"
       is_visible="true" />
    <inkscape:path-effect
       effect="spiro"
       id="path-effect1164-2"
       is_visible="true" />
    <inkscape:path-effect
       effect="spiro"
       id="path-effect1481-3"
       is_visible="true" />
  </defs>
  <sodipodi:namedview
     id="base"
     pagecolor="#ffffff"
     bordercolor="#666666"
     borderopacity="1.0"
     inkscape:pageopacity="0.0"
     inkscape:pageshadow="2"
     inkscape:zoom="0.9899495"
     inkscape:cx="31.6758"
     inkscape:cy="231.51796"
     inkscape:document-units="mm"
     inkscape:current-layer="layer1"
     showgrid="false"
     showguides="true"
     inkscape:guide-bbox="true"
     inkscape:window-width="1366"
     inkscape:window-height="743"
     inkscape:window-x="0"
     inkscape:window-y="0"
     inkscape:window-maximized="1"
     fit-margin-top="0"
     fit-margin-left="0"
     fit-margin-right="0"
     fit-margin-bottom="0" />
  <metadata
     id="metadata5">
    <rdf:RDF>
      <cc:Work
         rdf:about="">
        <dc:format>image/svg+xml</dc:format>
        <dc:type
           rdf:resource="http://purl.org/dc/dcmitype/StillImage" />
        <dc:title></dc:title>
      </cc:Work>
    </rdf:RDF>
  </metadata>
  <g
     inkscape:label="Layer 1"
     inkscape:groupmode="layer"
     id="layer1"
     transform="translate(-42.786434,-61.250969)">
    <text
       xml:space="preserve"
       style="font-style:normal;font-variant:normal;font-weight:normal;font-stretch:normal;font-size:16.93333244px;line-height:1.25;font-family:'Dancing Script';-inkscape-font-specification:'Dancing Script';letter-spacing:0px;word-spacing:0px;fill:#b91080;fill-opacity:1;stroke:none;stroke-width:0.26458332"
       id="text903"
       transform="translate(0.62166459)"><textPath
         xlink:href="#path905"
         id="textPath907"
         style="font-style:normal;font-variant:normal;font-weight:normal;font-stretch:normal;font-size:25.39999962px;line-height:0;font-family:'Century Schoolbook L';-inkscape-font-specification:'Century Schoolbook L';letter-spacing:2.25425005px;fill:#b91080;fill-opacity:1;stroke-width:0.26458332">UNIQUE</textPath></text>
    <circle
       style="opacity:0.825;fill:none;fill-opacity:0.44751383;stroke:none;stroke-width:0.36115626;stroke-linecap:round;stroke-linejoin:miter;stroke-miterlimit:4;stroke-dasharray:none;stroke-dashoffset:75.59055328;stroke-opacity:1;paint-order:markers stroke fill"
       id="path905"
       cx="-118.66744"
       cy="-108.85927"
       transform="rotate(-172.31746)"
       r="43.164028" />
    <g
       id="g907"
       transform="translate(-1.1521946,-4.5435819)">
      <circle
         r="2.0552454"
         cy="152.40047"
         cx="83.745346"
         id="path912"
         style="opacity:0.825;fill:#b91080;fill-opacity:1;stroke:none;stroke-width:0.36115626;stroke-linecap:round;stroke-linejoin:miter;stroke-miterlimit:4;stroke-dasharray:none;stroke-dashoffset:75.59055328;stroke-opacity:1;paint-order:markers stroke fill" />
      <circle
         r="2.0552454"
         cy="152.23512"
         cx="125.11012"
         id="path912-7"
         style="opacity:0.825;fill:#b91080;fill-opacity:1;stroke:none;stroke-width:0.36115626;stroke-linecap:round;stroke-linejoin:miter;stroke-miterlimit:4;stroke-dasharray:none;stroke-dashoffset:75.59055328;stroke-opacity:1;paint-order:markers stroke fill" />
      <circle
         r="2.0552454"
         cy="107.96465"
         cx="82.871277"
         id="path912-9"
         style="opacity:0.825;fill:#b91080;fill-opacity:1;stroke:none;stroke-width:0.36115626;stroke-linecap:round;stroke-linejoin:miter;stroke-miterlimit:4;stroke-dasharray:none;stroke-dashoffset:75.59055328;stroke-opacity:1;paint-order:markers stroke fill" />
      <circle
         r="2.0552454"
         cy="107.63393"
         cx="126.24405"
         id="path912-93"
         style="opacity:0.825;fill:#b91080;fill-opacity:1;stroke:none;stroke-width:0.36115626;stroke-linecap:round;stroke-linejoin:miter;stroke-miterlimit:4;stroke-dasharray:none;stroke-dashoffset:75.59055328;stroke-opacity:1;paint-order:markers stroke fill" />
      <circle
         r="1.2176539"
         cy="149.69662"
         cx="102.4444"
         id="path912-2"
         style="opacity:0.825;fill:#b91080;fill-opacity:1;stroke:none;stroke-width:0.36115626;stroke-linecap:round;stroke-linejoin:miter;stroke-miterlimit:4;stroke-dasharray:none;stroke-dashoffset:75.59055328;stroke-opacity:1;paint-order:markers stroke fill" />
      <circle
         r="1.217654"
         cy="149.73103"
         cx="106.06957"
         id="path912-2-3"
         style="opacity:0.825;fill:#b91080;fill-opacity:1;stroke:none;stroke-width:0.36115626;stroke-linecap:round;stroke-linejoin:miter;stroke-miterlimit:4;stroke-dasharray:none;stroke-dashoffset:75.59055328;stroke-opacity:1;paint-order:markers stroke fill" />
      <circle
         r="1.217654"
         cy="152.23512"
         cx="104.22694"
         id="path912-2-7"
         style="opacity:0.825;fill:#b91080;fill-opacity:1;stroke:none;stroke-width:0.36115626;stroke-linecap:round;stroke-linejoin:miter;stroke-miterlimit:4;stroke-dasharray:none;stroke-dashoffset:75.59055328;stroke-opacity:1;paint-order:markers stroke fill" />
      <circle
         r="1.5483832"
         cy="111.17746"
         cx="106.54206"
         id="path912-2-20"
         style="opacity:0.825;fill:#b91080;fill-opacity:1;stroke:none;stroke-width:0.36115623;stroke-linecap:round;stroke-linejoin:miter;stroke-miterlimit:4;stroke-dasharray:none;stroke-dashoffset:75.59055328;stroke-opacity:1;paint-order:markers stroke fill" />
      <circle
         r="1.5483832"
         cy="107.72842"
         cx="104.32144"
         id="path912-2-20-1"
         style="opacity:0.825;fill:#b91080;fill-opacity:1;stroke:none;stroke-width:0.36115623;stroke-linecap:round;stroke-linejoin:miter;stroke-miterlimit:4;stroke-dasharray:none;stroke-dashoffset:75.59055328;stroke-opacity:1;paint-order:markers stroke fill" />
      <circle
         r="1.5483832"
         cy="111.36645"
         cx="102.14807"
         id="path912-2-20-7"
         style="opacity:0.825;fill:#b91080;fill-opacity:1;stroke:none;stroke-width:0.36115623;stroke-linecap:round;stroke-linejoin:miter;stroke-miterlimit:4;stroke-dasharray:none;stroke-dashoffset:75.59055328;stroke-opacity:1;paint-order:markers stroke fill" />
      <circle
         r="1.5483832"
         cy="132.20238"
         cx="94.021584"
         id="path912-2-20-4"
         style="opacity:0.825;fill:#b91080;fill-opacity:1;stroke:none;stroke-width:0.36115623;stroke-linecap:round;stroke-linejoin:miter;stroke-miterlimit:4;stroke-dasharray:none;stroke-dashoffset:75.59055328;stroke-opacity:1;paint-order:markers stroke fill" />
      <circle
         r="1.5483832"
         cy="132.15514"
         cx="114.33781"
         id="path912-2-20-17"
         style="opacity:0.825;fill:#b91080;fill-opacity:1;stroke:none;stroke-width:0.36115623;stroke-linecap:round;stroke-linejoin:miter;stroke-miterlimit:4;stroke-dasharray:none;stroke-dashoffset:75.59055328;stroke-opacity:1;paint-order:markers stroke fill" />
      <path
         sodipodi:nodetypes="sssssscccssss"
         inkscape:original-d="m 98.958894,95.656806 c 0.06298,-0.220616 0.216837,-0.376953 0.354351,-0.54334 0,0 0.43209,-0.310626 0.685083,-0.354354 0.261182,-0.04514 0.526742,-0.01984 0.708702,0.02363 0.25879,0.06182 0.8531,0.446269 1.06306,0.661459 0.18504,0.189644 0.82618,1.094785 0.99219,1.464656 0.14456,0.322081 0.52884,2.138649 0.56696,2.574965 -0.003,0.374152 0,0.685078 0,0.685078 0,0 -0.44819,-0.587953 -0.57246,-0.664374 -0.12427,-0.07642 -0.36694,-0.34139 -0.70321,-0.682162 -0.26808,-0.271667 -1.14395,-0.872185 -1.5119,-1.086684 -0.20403,-0.118943 -0.898649,-0.383547 -1.275672,-0.68508 -0.381499,-0.305112 -0.374274,-1.158516 -0.307104,-1.393794 z"
         inkscape:path-effect="#path-effect1058"
         inkscape:connector-curvature="0"
         id="path1056"
         d="m 98.958894,95.656806 c 0.07247,-0.205929 0.195118,-0.393997 0.354351,-0.54334 0.190323,-0.177628 0.430135,-0.301668 0.685083,-0.354354 0.233532,-0.04826 0.478062,-0.03696 0.708702,0.02363 0.40841,0.107292 0.76389,0.363455 1.06306,0.661459 0.42004,0.418411 0.74581,0.925396 0.99219,1.464656 0.36798,0.805408 0.56264,1.689486 0.56696,2.574965 v 0.685078 c -0.18034,-0.230205 -0.37144,-0.451985 -0.57246,-0.664374 -0.22454,-0.23724 -0.46132,-0.462633 -0.70321,-0.682162 -0.46132,-0.418682 -0.94847,-0.820877 -1.5119,-1.086684 -0.21973,-0.103662 -0.44913,-0.185608 -0.669855,-0.287137 -0.220727,-0.101529 -0.435398,-0.224778 -0.605817,-0.397943 -0.17583,-0.178664 -0.299485,-0.407913 -0.353119,-0.652781 -0.05363,-0.244868 -0.03719,-0.504553 0.04601,-0.741013 z"
         style="fill:#b91080;fill-opacity:1;stroke:none;stroke-width:0.26458332px;stroke-linecap:butt;stroke-linejoin:miter;stroke-opacity:1" />
      <path
         sodipodi:nodetypes="sssssscccssss"
         inkscape:original-d="m 109.53917,95.683644 c -0.063,-0.220616 -0.21684,-0.376953 -0.35435,-0.54334 0,0 -0.43209,-0.310626 -0.68509,-0.354354 -0.26118,-0.04514 -0.52674,-0.01984 -0.7087,0.02363 -0.25879,0.06182 -0.8531,0.446269 -1.06306,0.661459 -0.18504,0.189644 -0.82618,1.094785 -0.99219,1.464656 -0.14456,0.322081 -0.52884,2.138649 -0.56696,2.574965 0.003,0.374152 0,0.68508 0,0.68508 0,0 0.44819,-0.587955 0.57246,-0.664376 0.12427,-0.07642 0.36694,-0.34139 0.70321,-0.682162 0.26808,-0.271667 1.14395,-0.872185 1.5119,-1.086684 0.20403,-0.118943 0.89865,-0.383547 1.27567,-0.68508 0.3815,-0.305112 0.37428,-1.158516 0.30711,-1.393794 z"
         inkscape:path-effect="#path-effect1058-1"
         inkscape:connector-curvature="0"
         id="path1056-1"
         d="m 109.53917,95.683644 c -0.0725,-0.20593 -0.19512,-0.393998 -0.35435,-0.54334 -0.19033,-0.177628 -0.43014,-0.301668 -0.68509,-0.354354 -0.23353,-0.04826 -0.47806,-0.03696 -0.7087,0.02363 -0.40841,0.107291 -0.76389,0.363455 -1.06306,0.661459 -0.42004,0.418411 -0.74581,0.925396 -0.99219,1.464656 -0.36798,0.805408 -0.56264,1.689486 -0.56696,2.574965 v 0.68508 c 0.18034,-0.230206 0.37144,-0.451987 0.57246,-0.664376 0.22454,-0.23724 0.46132,-0.462633 0.70321,-0.682162 0.46132,-0.418682 0.94847,-0.820876 1.5119,-1.086684 0.21973,-0.103662 0.44913,-0.185609 0.66985,-0.287138 0.22073,-0.101529 0.4354,-0.224777 0.60582,-0.397942 0.17583,-0.178664 0.29949,-0.407912 0.35312,-0.65278 0.0536,-0.244869 0.0372,-0.504554 -0.046,-0.741014 z"
         style="fill:#b91080;fill-opacity:1;stroke:none;stroke-width:0.26458332px;stroke-linecap:butt;stroke-linejoin:miter;stroke-opacity:1" />
      <path
         sodipodi:nodetypes="cssssscccssssc"
         inkscape:original-d="m 99.078611,165.03716 c 0.063,0.22061 0.21684,0.37695 0.35435,0.54334 0.163784,0.19818 0.43209,0.31062 0.685089,0.35435 0.26118,0.0451 0.52674,0.0198 0.7087,-0.0236 0.25879,-0.0618 0.8531,-0.44627 1.06306,-0.66146 0.18504,-0.18964 0.82618,-1.09478 0.99219,-1.46465 0.14456,-0.32208 0.52884,-2.13865 0.56696,-2.57497 -0.003,-0.37415 0,-0.68508 0,-0.68508 0,0 -0.44819,0.58796 -0.57246,0.66438 -0.12427,0.0764 -0.36694,0.34139 -0.70321,0.68216 -0.26808,0.27167 -1.14395,0.87218 -1.5119,1.08668 -0.20403,0.11895 -0.898649,0.38355 -1.275669,0.68508 -0.3815,0.30512 -0.37428,1.15852 -0.30711,1.3938 z"
         inkscape:path-effect="#path-effect1058-0"
         inkscape:connector-curvature="0"
         id="path1056-8"
         d="m 99.078611,165.03716 c 0.07301,0.20569 0.19556,0.3936 0.35435,0.54334 0.189459,0.17867 0.429991,0.302 0.685089,0.35435 0.23358,0.0479 0.47804,0.0369 0.7087,-0.0236 0.40847,-0.10709 0.76393,-0.3634 1.06306,-0.66146 0.41997,-0.41848 0.74578,-0.92541 0.99219,-1.46465 0.36803,-0.80539 0.56269,-1.68949 0.56696,-2.57497 v -0.68508 c -0.18035,0.2302 -0.37145,0.45198 -0.57246,0.66438 -0.22453,0.23725 -0.4613,0.46266 -0.70321,0.68216 -0.46136,0.41862 -0.94864,0.82054 -1.5119,1.08668 -0.21965,0.10378 -0.44893,0.18595 -0.6696,0.28755 -0.220669,0.1016 -0.43531,0.22473 -0.606069,0.39753 -0.176358,0.17846 -0.300943,0.40751 -0.354931,0.65253 -0.05399,0.24502 -0.0372,0.50522 0.04782,0.74127 z"
         style="fill:#b91080;fill-opacity:1;stroke:none;stroke-width:0.26458332px;stroke-linecap:butt;stroke-linejoin:miter;stroke-opacity:1" />
      <path
         sodipodi:nodetypes="cssssscccssssc"
         inkscape:original-d="m 109.65889,165.01032 c -0.063,0.22062 -0.21684,0.37695 -0.35435,0.54334 -0.16378,0.19818 -0.43209,0.31063 -0.68509,0.35435 -0.26118,0.0451 -0.52674,0.0198 -0.7087,-0.0236 -0.25879,-0.0618 -0.8531,-0.44627 -1.06306,-0.66146 -0.18504,-0.18964 -0.82618,-1.09478 -0.99219,-1.46465 -0.14456,-0.32208 -0.52884,-2.13865 -0.56696,-2.57497 0.003,-0.37415 0,-0.68508 0,-0.68508 0,0 0.44819,0.58796 0.57246,0.66438 0.12427,0.0764 0.36694,0.34139 0.70321,0.68216 0.26808,0.27167 1.14395,0.87219 1.5119,1.08669 0.20403,0.11894 0.89865,0.38354 1.27567,0.68508 0.3815,0.30511 0.37428,1.15851 0.30711,1.39379 z"
         inkscape:path-effect="#path-effect1058-1-4"
         inkscape:connector-curvature="0"
         id="path1056-1-5"
         d="m 109.65889,165.01032 c -0.073,0.20569 -0.19556,0.3936 -0.35435,0.54334 -0.18946,0.17867 -0.42999,0.302 -0.68509,0.35435 -0.23358,0.0479 -0.47804,0.0369 -0.7087,-0.0236 -0.40847,-0.10709 -0.76393,-0.3634 -1.06306,-0.66146 -0.41997,-0.41848 -0.74578,-0.92541 -0.99219,-1.46465 -0.36803,-0.80539 -0.56269,-1.68949 -0.56696,-2.57497 v -0.68508 c 0.18035,0.2302 0.37145,0.45198 0.57246,0.66438 0.22453,0.23725 0.4613,0.46266 0.70321,0.68216 0.46136,0.41862 0.94864,0.82055 1.5119,1.08669 0.21965,0.10378 0.44893,0.18595 0.6696,0.28755 0.22067,0.1016 0.43531,0.22473 0.60607,0.39753 0.17636,0.17846 0.30094,0.4075 0.35493,0.65252 0.054,0.24502 0.0372,0.50522 -0.0478,0.74127 z"
         style="fill:#b91080;fill-opacity:1;stroke:none;stroke-width:0.26458332px;stroke-linecap:butt;stroke-linejoin:miter;stroke-opacity:1" />
      <path
         sodipodi:nodetypes="cssssscccssssc"
         inkscape:original-d="m 74.977056,123.0802 c -0.22061,0.063 -0.37695,0.21684 -0.54334,0.35435 -0.198182,0.16378 -0.31062,0.43209 -0.35435,0.68509 -0.0451,0.26118 -0.0198,0.52674 0.0236,0.7087 0.0618,0.25879 0.44627,0.8531 0.66146,1.06306 0.18964,0.18504 1.09478,0.82618 1.46465,0.99219 0.32208,0.14456 2.13865,0.52884 2.57497,0.56696 0.37415,-0.003 0.68508,0 0.68508,0 0,0 -0.58796,-0.44819 -0.66438,-0.57246 -0.0764,-0.12427 -0.34139,-0.36694 -0.68216,-0.70321 -0.27167,-0.26808 -0.87218,-1.14395 -1.08668,-1.5119 -0.11895,-0.20403 -0.38355,-0.89865 -0.68508,-1.27567 -0.30512,-0.3815 -1.15852,-0.37428 -1.3938,-0.30711 z"
         inkscape:path-effect="#path-effect1058-0-1"
         inkscape:connector-curvature="0"
         id="path1056-8-6"
         d="m 74.977056,123.0802 c -0.205686,0.073 -0.393596,0.19556 -0.54334,0.35435 -0.178666,0.18946 -0.301996,0.42999 -0.35435,0.68509 -0.04794,0.23358 -0.03687,0.47804 0.0236,0.7087 0.107086,0.40847 0.363398,0.76393 0.66146,1.06306 0.418475,0.41997 0.925411,0.74578 1.46465,0.99219 0.80539,0.36803 1.689485,0.56269 2.57497,0.56696 h 0.68508 c -0.230201,-0.18035 -0.451983,-0.37145 -0.66438,-0.57246 -0.237249,-0.22453 -0.462659,-0.4613 -0.68216,-0.70321 -0.418619,-0.46136 -0.820542,-0.94864 -1.08668,-1.5119 -0.103783,-0.21965 -0.185954,-0.44893 -0.287552,-0.6696 -0.101598,-0.22067 -0.224732,-0.43531 -0.397528,-0.60607 -0.178462,-0.17636 -0.407506,-0.30094 -0.652529,-0.35493 -0.245022,-0.054 -0.505217,-0.0372 -0.741271,0.0478 z"
         style="fill:#b91080;fill-opacity:1;stroke:none;stroke-width:0.26458332px;stroke-linecap:butt;stroke-linejoin:miter;stroke-opacity:1" />
      <path
         sodipodi:nodetypes="cssssscccssssc"
         inkscape:original-d="m 74.987283,133.72005 c -0.22062,-0.063 -0.37695,-0.21684 -0.54334,-0.35435 -0.19818,-0.16378 -0.31063,-0.43209 -0.35435,-0.68509 -0.0451,-0.26118 -0.0198,-0.52674 0.0236,-0.7087 0.0618,-0.25879 0.44627,-0.8531 0.66146,-1.06306 0.18964,-0.18504 1.09478,-0.82618 1.46465,-0.99219 0.32208,-0.14456 2.13865,-0.52884 2.57497,-0.56696 0.37415,0.003 0.68508,0 0.68508,0 0,0 -0.58796,0.44819 -0.66438,0.57246 -0.0764,0.12427 -0.34139,0.36694 -0.68216,0.70321 -0.27167,0.26808 -0.87219,1.14395 -1.08669,1.5119 -0.11894,0.20403 -0.38354,0.89865 -0.68508,1.27567 -0.30511,0.3815 -1.15851,0.37428 -1.39379,0.30711 z"
         inkscape:path-effect="#path-effect1058-1-4-6"
         inkscape:connector-curvature="0"
         id="path1056-1-5-2"
         d="m 74.987283,133.72005 c -0.205686,-0.073 -0.393596,-0.19556 -0.54334,-0.35435 -0.178666,-0.18946 -0.301996,-0.42999 -0.35435,-0.68509 -0.04794,-0.23358 -0.03687,-0.47804 0.0236,-0.7087 0.107086,-0.40847 0.363398,-0.76393 0.66146,-1.06306 0.418475,-0.41997 0.925411,-0.74578 1.46465,-0.99219 0.80539,-0.36803 1.689485,-0.56269 2.57497,-0.56696 h 0.68508 c -0.230201,0.18035 -0.451983,0.37145 -0.66438,0.57246 -0.237248,0.22453 -0.462659,0.4613 -0.68216,0.70321 -0.418621,0.46136 -0.82055,0.94864 -1.08669,1.5119 -0.103784,0.21965 -0.185954,0.44893 -0.287552,0.6696 -0.101598,0.22067 -0.224732,0.43531 -0.397528,0.60607 -0.17846,0.17636 -0.407503,0.30094 -0.652524,0.35493 -0.245021,0.054 -0.505213,0.0372 -0.741266,-0.0478 z"
         style="fill:#b91080;fill-opacity:1;stroke:none;stroke-width:0.26458332px;stroke-linecap:butt;stroke-linejoin:miter;stroke-opacity:1" />
      <path
         sodipodi:nodetypes="cssssscccssssc"
         inkscape:original-d="m 133.48968,122.90273 c 0.22061,0.063 0.37695,0.21684 0.54334,0.35435 0.19818,0.16378 0.31062,0.43209 0.35435,0.68509 0.0451,0.26118 0.0198,0.52674 -0.0236,0.7087 -0.0618,0.25879 -0.44627,0.8531 -0.66146,1.06306 -0.18964,0.18504 -1.09478,0.82618 -1.46465,0.99219 -0.32208,0.14456 -2.13865,0.52884 -2.57497,0.56696 -0.37415,-0.003 -0.68508,0 -0.68508,0 0,0 0.58796,-0.44819 0.66438,-0.57246 0.0764,-0.12427 0.34139,-0.36694 0.68216,-0.70321 0.27167,-0.26808 0.87218,-1.14395 1.08668,-1.5119 0.11895,-0.20403 0.38355,-0.89865 0.68508,-1.27567 0.30512,-0.3815 1.15852,-0.37428 1.3938,-0.30711 z"
         inkscape:path-effect="#path-effect1058-0-1-9"
         inkscape:connector-curvature="0"
         id="path1056-8-6-6"
         d="m 133.48968,122.90273 c 0.20569,0.073 0.3936,0.19556 0.54334,0.35435 0.17867,0.18946 0.302,0.42999 0.35435,0.68509 0.0479,0.23358 0.0369,0.47804 -0.0236,0.7087 -0.10709,0.40847 -0.3634,0.76393 -0.66146,1.06306 -0.41848,0.41997 -0.92541,0.74578 -1.46465,0.99219 -0.80539,0.36803 -1.68949,0.56269 -2.57497,0.56696 h -0.68508 c 0.2302,-0.18035 0.45198,-0.37145 0.66438,-0.57246 0.23725,-0.22453 0.46266,-0.4613 0.68216,-0.70321 0.41862,-0.46136 0.82054,-0.94864 1.08668,-1.5119 0.10378,-0.21965 0.18595,-0.44893 0.28755,-0.6696 0.1016,-0.22067 0.22473,-0.43531 0.39753,-0.60607 0.17846,-0.17636 0.40751,-0.30094 0.65253,-0.35493 0.24502,-0.054 0.50522,-0.0372 0.74127,0.0478 z"
         style="fill:#b91080;fill-opacity:1;stroke:none;stroke-width:0.26458332px;stroke-linecap:butt;stroke-linejoin:miter;stroke-opacity:1" />
      <path
         sodipodi:nodetypes="cssssscccssssc"
         inkscape:original-d="m 133.47945,133.54258 c 0.22062,-0.063 0.37695,-0.21684 0.54334,-0.35435 0.19818,-0.16378 0.31063,-0.43209 0.35435,-0.68509 0.0451,-0.26118 0.0198,-0.52674 -0.0236,-0.7087 -0.0618,-0.25879 -0.44627,-0.8531 -0.66146,-1.06306 -0.18964,-0.18504 -1.09478,-0.82618 -1.46465,-0.99219 -0.32208,-0.14456 -2.13865,-0.52884 -2.57497,-0.56696 -0.37415,0.003 -0.68508,0 -0.68508,0 0,0 0.58796,0.44819 0.66438,0.57246 0.0764,0.12427 0.34139,0.36694 0.68216,0.70321 0.27167,0.26808 0.87219,1.14395 1.08669,1.5119 0.11894,0.20403 0.38354,0.89865 0.68508,1.27567 0.30511,0.3815 1.15851,0.37428 1.39379,0.30711 z"
         inkscape:path-effect="#path-effect1058-1-4-6-1"
         inkscape:connector-curvature="0"
         id="path1056-1-5-2-4"
         d="m 133.47945,133.54258 c 0.20569,-0.073 0.3936,-0.19556 0.54334,-0.35435 0.17867,-0.18946 0.302,-0.42999 0.35435,-0.68509 0.0479,-0.23358 0.0369,-0.47804 -0.0236,-0.7087 -0.10709,-0.40847 -0.3634,-0.76393 -0.66146,-1.06306 -0.41848,-0.41997 -0.92541,-0.74578 -1.46465,-0.99219 -0.80539,-0.36803 -1.68949,-0.56269 -2.57497,-0.56696 h -0.68508 c 0.2302,0.18035 0.45198,0.37145 0.66438,0.57246 0.23725,0.22453 0.46266,0.4613 0.68216,0.70321 0.41862,0.46136 0.82055,0.94864 1.08669,1.5119 0.10378,0.21965 0.18595,0.44893 0.28755,0.6696 0.1016,0.22067 0.22473,0.43531 0.39753,0.60607 0.17846,0.17636 0.4075,0.30094 0.65252,0.35493 0.24502,0.054 0.50522,0.0372 0.74127,-0.0478 z"
         style="fill:#b91080;fill-opacity:1;stroke:none;stroke-width:0.26458332px;stroke-linecap:butt;stroke-linejoin:miter;stroke-opacity:1" />
      <path
         sodipodi:nodetypes="cssssssssssssc"
         inkscape:original-d="m 104.24887,162.18985 c 0,0 -0.41718,1.18347 -0.64016,1.71827 -0.22299,0.53481 -0.20576,0.61224 -0.31739,0.91874 -0.11163,0.30651 -0.27615,0.68185 -0.27562,1.01062 5.5e-4,0.34073 -0.0386,0.65398 -0.0334,1.02731 0.005,0.37333 0.25918,0.54263 0.39255,0.77675 0.13337,0.23413 0.17717,0.14594 0.33838,0.26871 0.16121,0.12276 0.47356,0.0777 0.70159,0.11693 0.22803,0.0392 0.71412,-0.14278 0.89773,-0.39399 0.18906,-0.25865 0.3093,-0.44849 0.36749,-0.71829 0.054,-0.25038 0.0498,-0.6429 -0.0418,-0.9772 -0.0922,-0.33661 -0.22524,-0.76866 -0.35914,-1.1526 -0.13389,-0.38393 -0.31481,-0.91771 -0.49278,-1.30293 -0.16452,-0.3561 -0.53749,-1.29232 -0.53749,-1.29232 z"
         inkscape:path-effect="#path-effect1164"
         inkscape:connector-curvature="0"
         id="path1162"
         d="m 104.24887,162.18985 c -0.22013,0.57021 -0.43354,1.14302 -0.64016,1.71827 -0.10953,0.30494 -0.21717,0.61061 -0.31739,0.91874 -0.10807,0.33225 -0.20763,0.66791 -0.27562,1.01062 -0.0671,0.33835 -0.10295,0.68945 -0.0334,1.02731 0.0592,0.28754 0.19544,0.5592 0.39255,0.77675 0.0972,0.10731 0.2098,0.20211 0.33838,0.26871 0.2134,0.11054 0.46224,0.13858 0.70159,0.11693 0.33214,-0.03 0.66196,-0.15813 0.89773,-0.39399 0.19296,-0.19303 0.31531,-0.45039 0.36749,-0.71829 0.0628,-0.32225 0.0276,-0.65632 -0.0418,-0.9772 -0.0852,-0.39364 -0.22099,-0.77428 -0.35914,-1.1526 -0.15928,-0.43618 -0.32217,-0.87106 -0.49278,-1.30293 -0.17143,-0.43394 -0.35063,-0.8648 -0.53749,-1.29232 z"
         style="fill:#b91080;fill-opacity:1;stroke:none;stroke-width:0.26458332px;stroke-linecap:butt;stroke-linejoin:miter;stroke-opacity:1" />
      <path
         sodipodi:nodetypes="cssssssssssssc"
         inkscape:original-d="m 104.25056,98.420395 c 0,0 -0.41718,-1.18347 -0.64016,-1.71827 -0.22299,-0.53481 -0.20576,-0.61224 -0.31739,-0.91874 -0.11163,-0.30651 -0.27615,-0.68185 -0.27562,-1.01062 5.5e-4,-0.34073 -0.0386,-0.65398 -0.0334,-1.02731 0.005,-0.37333 0.25918,-0.54263 0.39255,-0.77675 0.13337,-0.23413 0.17717,-0.14594 0.33838,-0.26871 0.16121,-0.122759 0.47356,-0.0777 0.70159,-0.11693 0.22803,-0.0392 0.71412,0.14278 0.89773,0.39399 0.18906,0.25865 0.3093,0.448491 0.36749,0.71829 0.054,0.25038 0.0498,0.6429 -0.0418,0.9772 -0.0922,0.33661 -0.22524,0.76866 -0.35914,1.1526 -0.13389,0.38393 -0.31481,0.91771 -0.49278,1.30293 -0.16452,0.3561 -0.53749,1.29232 -0.53749,1.29232 z"
         inkscape:path-effect="#path-effect1164-8"
         inkscape:connector-curvature="0"
         id="path1162-0"
         d="m 104.25056,98.420395 c -0.22013,-0.570213 -0.43354,-1.143023 -0.64016,-1.71827 -0.10953,-0.304944 -0.21717,-0.61061 -0.31739,-0.91874 -0.10807,-0.332253 -0.20763,-0.667913 -0.27562,-1.01062 -0.0671,-0.33835 -0.10295,-0.689451 -0.0334,-1.02731 0.0592,-0.287538 0.19544,-0.5592 0.39255,-0.77675 0.0972,-0.107306 0.2098,-0.202108 0.33838,-0.26871 0.2134,-0.110539 0.46224,-0.13858 0.70159,-0.11693 0.33214,0.03004 0.66196,0.158133 0.89773,0.39399 0.19296,0.193028 0.31531,0.450391 0.36749,0.71829 0.0628,0.322254 0.0276,0.656317 -0.0418,0.9772 -0.0852,0.393641 -0.22099,0.774283 -0.35914,1.1526 -0.15928,0.436177 -0.32217,0.87106 -0.49278,1.30293 -0.17143,0.433938 -0.35063,0.864803 -0.53749,1.29232 z"
         style="fill:#b91080;fill-opacity:1;stroke:none;stroke-width:0.26458332px;stroke-linecap:butt;stroke-linejoin:miter;stroke-opacity:1" />
      <path
         sodipodi:nodetypes="cssssssssssssc"
         inkscape:original-d="m 77.523656,128.4866 c 0,0 -1.18347,-0.41718 -1.71827,-0.64016 -0.53481,-0.22299 -0.61224,-0.20576 -0.91874,-0.31739 -0.30651,-0.11163 -0.68185,-0.27615 -1.01062,-0.27562 -0.34073,5.5e-4 -0.65398,-0.0386 -1.02731,-0.0334 -0.37333,0.005 -0.54263,0.25918 -0.77675,0.39255 -0.23413,0.13337 -0.14594,0.17717 -0.26871,0.33838 -0.12276,0.16121 -0.0777,0.47356 -0.11693,0.70159 -0.0392,0.22803 0.14278,0.71412 0.39399,0.89773 0.25865,0.18906 0.44849,0.3093 0.71829,0.36749 0.25038,0.054 0.6429,0.0498 0.9772,-0.0418 0.33661,-0.0922 0.76866,-0.22524 1.1526,-0.35914 0.38393,-0.13389 0.91771,-0.31481 1.30293,-0.49278 0.3561,-0.16452 1.29232,-0.53749 1.29232,-0.53749 z"
         inkscape:path-effect="#path-effect1164-81"
         inkscape:connector-curvature="0"
         id="path1162-02"
         d="m 77.523656,128.4866 c -0.570213,-0.22013 -1.143023,-0.43354 -1.71827,-0.64016 -0.304944,-0.10953 -0.61061,-0.21717 -0.91874,-0.31739 -0.332253,-0.10807 -0.667913,-0.20763 -1.01062,-0.27562 -0.33835,-0.0671 -0.689451,-0.10295 -1.02731,-0.0334 -0.287538,0.0592 -0.5592,0.19544 -0.77675,0.39255 -0.107306,0.0972 -0.202108,0.2098 -0.26871,0.33838 -0.110539,0.2134 -0.13858,0.46224 -0.11693,0.70159 0.03004,0.33214 0.158133,0.66196 0.39399,0.89773 0.193028,0.19296 0.450391,0.31531 0.71829,0.36749 0.322254,0.0628 0.656317,0.0276 0.9772,-0.0418 0.393641,-0.0852 0.774283,-0.22099 1.1526,-0.35914 0.436177,-0.15928 0.87106,-0.32217 1.30293,-0.49278 0.433938,-0.17143 0.864803,-0.35063 1.29232,-0.53749 z"
         style="fill:#b91080;fill-opacity:1;stroke:none;stroke-width:0.26458332px;stroke-linecap:butt;stroke-linejoin:miter;stroke-opacity:1" />
      <path
         sodipodi:nodetypes="cssssssssssssc"
         inkscape:original-d="m 130.87977,128.48652 c 0,0 1.18347,0.41718 1.71827,0.64016 0.53481,0.22299 0.61224,0.20576 0.91874,0.31739 0.30651,0.11163 0.68185,0.27615 1.01062,0.27562 0.34073,-5.5e-4 0.65398,0.0386 1.02731,0.0334 0.37333,-0.005 0.54263,-0.25918 0.77675,-0.39255 0.23413,-0.13337 0.14594,-0.17717 0.26871,-0.33838 0.12276,-0.16121 0.0777,-0.47356 0.11693,-0.70159 0.0392,-0.22803 -0.14278,-0.71412 -0.39399,-0.89773 -0.25865,-0.18906 -0.44849,-0.30929 -0.71829,-0.36749 -0.25038,-0.054 -0.6429,-0.0498 -0.9772,0.0418 -0.33661,0.0922 -0.76866,0.22524 -1.1526,0.35914 -0.38393,0.13389 -0.91771,0.31481 -1.30293,0.49278 -0.3561,0.16452 -1.29232,0.53749 -1.29232,0.53749 z"
         inkscape:path-effect="#path-effect1164-2"
         inkscape:connector-curvature="0"
         id="path1162-9"
         d="m 130.87977,128.48652 c 0.57021,0.22013 1.14302,0.43354 1.71827,0.64016 0.30494,0.10953 0.61061,0.21717 0.91874,0.31739 0.33225,0.10807 0.66791,0.20763 1.01062,0.27562 0.33835,0.0671 0.68945,0.10295 1.02731,0.0334 0.28754,-0.0592 0.5592,-0.19544 0.77675,-0.39255 0.10731,-0.0972 0.20211,-0.2098 0.26871,-0.33838 0.11054,-0.2134 0.13858,-0.46224 0.11693,-0.70159 -0.03,-0.33214 -0.15813,-0.66196 -0.39399,-0.89773 -0.19303,-0.19296 -0.45039,-0.31531 -0.71829,-0.36749 -0.32225,-0.0628 -0.65632,-0.0276 -0.9772,0.0418 -0.39364,0.0852 -0.77428,0.22099 -1.1526,0.35914 -0.43618,0.15928 -0.87106,0.32217 -1.30293,0.49278 -0.43394,0.17143 -0.8648,0.35063 -1.29232,0.53749 z"
         style="fill:#b91080;fill-opacity:1;stroke:none;stroke-width:0.26458332px;stroke-linecap:butt;stroke-linejoin:miter;stroke-opacity:1" />
      <path
         sodipodi:nodetypes="ccscscscccscccc"
         inkscape:original-d="m 98.422004,120.20121 2.806326,-0.33409 c 0.86523,3.61837 0.83844,7.26648 1.17909,10.5173 0.29891,2.8525 -0.71769,5.81717 -0.2767,8.3252 1.20475,-2.75062 1.16126,-4.72919 1.27596,-8.55431 0.10635,-3.54715 -0.83497,-7.12738 -1.09101,-10.42183 1.41872,1.00459 2.45531,1.43928 3.85158,1.64395 1.10985,0.16269 2.77115,-0.0809 3.84794,-0.37439 -0.96711,3.2918 -1.78732,7.33995 -1.93029,10.79084 -0.0327,4.33855 0.72622,6.55754 1.46663,10.17836 -2.56985,0.14509 -3.73226,0.41487 -5.30097,0.39352 -0.98373,-0.0134 -3.9726,-0.26648 -4.859325,-0.54908 1.293075,-4.02424 1.390035,-8.20805 1.214175,-11.85545 0.0508,-3.94309 -1.536207,-6.615 -2.183026,-9.75997 z"
         inkscape:path-effect="#path-effect1204"
         inkscape:connector-curvature="0"
         id="path1202"
         d="m 98.422004,120.20121 2.806326,-0.33409 c 0.67641,3.46621 1.07117,6.98735 1.17909,10.5173 0.0849,2.77719 -0.008,5.55978 -0.2767,8.3252 0.74868,-2.79055 1.1777,-5.66674 1.27596,-8.55431 0.11918,-3.50206 -0.24914,-7.02037 -1.09101,-10.42183 1.11201,0.86987 2.45417,1.44274 3.85158,1.64395 1.28788,0.18544 2.61997,0.0558 3.84794,-0.37439 -1.23184,3.45785 -1.887,7.12038 -1.93029,10.79084 -0.0406,3.44133 0.45612,6.88848 1.46663,10.17836 -1.74867,0.30253 -3.5268,0.43453 -5.30097,0.39352 -1.63182,-0.0377 -3.26023,-0.22172 -4.859325,-0.54908 1.093155,-3.84034 1.506185,-7.87325 1.214175,-11.85545 -0.24468,-3.33676 -0.982834,-6.63693 -2.183026,-9.75997 z"
         style="fill:#b91080;fill-opacity:1;stroke:none;stroke-width:0.26458332px;stroke-linecap:butt;stroke-linejoin:miter;stroke-opacity:1" />
      <path
         transform="scale(0.26458333)"
         inkscape:connector-curvature="0"
         id="path1479"
         d="m 357.8125,367.13867 c -8.46755,0.234 -16.79572,3.84559 -22.99023,9.66602 -6.51216,6.11888 -10.77987,14.8144 -10.71485,23.75 0.0469,6.44848 2.35368,12.85873 6.42774,17.85742 -7.12156,-1.04908 -14.52467,-0.11097 -21.16016,2.67969 -5.62459,2.36545 -10.71265,6.07138 -14.5,10.85547 -3.78735,4.78408 -6.24227,10.65184 -6.75,16.73242 -0.46263,5.54041 0.72458,11.26092 3.66016,15.98242 2.53277,4.07365 6.33143,7.33899 10.71484,9.28711 5.0515,2.24504 10.73747,2.73239 16.25,2.32031 4.33463,-0.3239 8.76826,-1.24463 12.32031,-3.75 3.88887,-2.74295 6.30464,-7.0661 8.57227,-11.25 0.39946,-0.73704 0.80128,-1.47817 1.3125,-2.14258 0.51122,-0.6644 1.14193,-1.25449 1.90234,-1.60742 0.75681,-0.35112 1.62115,-0.45213 2.44531,-0.32226 0.82418,0.13001 1.60696,0.48704 2.26954,0.99414 1.28705,0.98502 2.10664,2.55467 2.17773,4.17382 0.0711,1.61919 -0.60696,3.25754 -1.80273,4.35157 1.46285,-0.70878 2.69572,-1.88113 3.48046,-3.30469 0.53696,-0.97406 0.86654,-2.06371 0.93555,-3.17383 0.069,-1.11008 -0.12426,-2.23846 -0.57812,-3.2539 -0.48669,-1.08881 -1.26794,-2.03919 -2.2168,-2.76172 -0.94887,-0.7225 -2.06144,-1.22025 -3.22266,-1.49219 -2.31392,-0.54191 -4.83006,-0.16166 -6.88086,1.03906 -0.26721,-1.2734 -0.62641,-2.52766 -1.07226,-3.75 -1.30203,-3.56961 -3.3742,-6.88104 -6.16016,-9.46484 -3.32548,-3.08417 -7.64736,-5.07625 -12.15234,-5.60157 -4.50499,-0.52531 -9.16936,0.41998 -13.11524,2.65626 1.63696,0.60786 3.10954,1.64743 4.23047,2.98632 1.12093,1.3389 1.88672,2.97308 2.19727,4.69141 0.32254,1.78481 0.16022,3.61846 -0.0137,5.42383 -0.17386,1.80536 -0.35824,3.63413 -0.0762,5.42578 0.25988,1.65082 0.92125,3.23817 1.92774,4.57226 1.00648,1.33406 2.35797,2.4093 3.89453,3.06641 1.53656,0.65711 3.25492,0.89226 4.9082,0.64844 1.65329,-0.24378 3.23585,-0.96924 4.48438,-2.08008 1.81571,-1.61548 2.84772,-4.04234 2.85937,-6.47266 0.006,-1.21519 -0.22352,-2.42389 -0.60351,-3.57812 -0.37999,-1.15423 -0.90944,-2.25215 -1.44336,-3.34375 l -2.00977,-4.10742 c 2.83017,1.90635 4.94803,4.84724 5.85547,8.13672 0.90744,3.28947 0.597,6.90048 -0.85547,9.98828 -0.9011,1.91565 -2.23698,3.63615 -3.92773,4.91015 -2.77885,2.09386 -6.34639,2.87857 -9.82227,3.03516 -5.20999,0.23471 -10.54079,-0.86576 -15,-3.57031 -3.95685,-2.39985 -7.19277,-6.11915 -8.57031,-10.53711 -1.37242,-4.40153 -0.84398,-9.2313 0.71484,-13.57031 1.38433,-3.85331 3.57145,-7.42387 6.42774,-10.35743 3.92538,-4.03158 9.11245,-6.81824 14.64258,-7.85742 5.97643,-1.12305 12.25063,-0.21157 17.85742,2.14258 5.19773,2.18256 9.84942,5.57252 13.75,9.64258 4.32638,4.51438 7.74417,9.85663 10.35742,15.53711 2.78127,6.04573 4.66252,12.46504 6.25,18.92773 2.01724,8.21223 3.57935,16.56017 4.10742,25 0.48919,7.81841 0.0834,15.70638 -1.42969,23.39258 -1.15695,5.8772 -2.9706,11.65141 -5.72851,16.96875 -3.80313,7.33255 -9.56146,13.84793 -16.99805,17.44336 -5.8042,2.80622 -12.43847,3.73229 -18.84765,3.03516 -10.87619,-1.18303 -21.26767,-7.25849 -27.05469,-16.54297 -4.38526,-7.03556 -6.02683,-15.82795 -4.02539,-23.87305 1.48005,-5.94928 4.8866,-11.36596 9.44726,-15.46289 5.8232,-5.23109 13.64983,-8.32143 21.46875,-7.94922 4.35885,0.2075 8.82078,1.56141 11.95508,4.59766 2.18265,2.11438 3.60372,4.93603 4.32227,7.88867 0.95602,3.92851 0.69848,8.14357 -0.73047,11.92578 -1.42895,3.78225 -4.02306,7.11668 -7.33789,9.43164 3.56025,-4.00157 5.58467,-9.33728 5.57422,-14.69336 -0.006,-3.03606 -0.70639,-6.19006 -2.64649,-8.52539 -1.34989,-1.62489 -3.24816,-2.76831 -5.29492,-3.29102 -2.04677,-0.52267 -4.23181,-0.43536 -6.25977,0.15625 -3.19602,0.93219 -6.03244,3.18437 -7.45703,6.19336 -0.89915,1.89922 -1.22672,4.03166 -1.20312,6.13282 0.0234,2.10119 0.38781,4.18199 0.82031,6.23828 0.865,4.11261 2.01245,8.31682 1.29102,12.45703 -0.68855,3.95149 -3.15313,7.55881 -6.58399,9.63672 6.12176,1.26308 12.63143,0.57097 18.35156,-1.94922 5.72014,-2.52015 10.6248,-6.85676 13.82422,-12.22656 3.00255,-5.0394 4.50033,-11.0174 3.90821,-16.85352 -0.52832,-5.20724 -2.76795,-10.29035 -6.53711,-13.92187 -0.55921,-0.53878 -1.1496,-1.04542 -1.76758,-1.51563 3.37385,-0.26116 6.67943,-1.36423 9.53515,-3.17969 4.74712,-3.01787 8.17114,-8.04218 9.24219,-13.56445 -2.49785,-0.19994 -4.98035,-0.58431 -7.42187,-1.14844 -3.02212,-0.69827 -6.01663,-1.67656 -9.11719,-1.76172 -3.29292,-0.0903 -6.60644,0.86653 -9.34375,2.69922 -2.73731,1.83266 -4.88575,4.5323 -6.05664,7.61133 3.79029,1.31724 7.80575,1.98307 11.81836,1.96289 3.89371,-0.0189 7.78295,-0.68469 11.46094,-1.96289 -1.18399,1.28576 -2.62621,2.3317 -4.21485,3.06055 -1.84256,0.84533 -3.86698,1.25847 -5.89258,1.33984 -5.08656,0.20447 -10.02336,-1.62735 -15.08789,-2.14258 -6.23387,-0.63416 -12.6619,0.79723 -18.03711,4.01758 -9.30763,5.08158 -16.21499,14.36044 -18.41406,24.73438 -2.32091,10.94868 0.68131,22.90062 7.90039,31.45312 5.27064,7.06367 12.83974,12.38387 21.27149,14.94922 5.82434,1.77207 12.03852,2.24574 18.06445,1.37891 -1.53548,1.47382 -2.89543,3.13205 -4.04102,4.92578 -1.55277,2.43129 -2.70737,5.10859 -3.4707,7.89062 -1.22479,4.46389 -1.43416,9.19415 -0.69531,13.76367 0.39226,2.42601 1.04908,4.8125 2.01953,7.07032 1.54286,3.58953 3.86229,6.81483 6.5625,9.63867 2.59604,2.71487 5.5744,5.09249 8.92773,6.78516 5.24726,2.64865 11.28605,3.5353 17.14258,3.03515 5.7118,-0.48778 11.30915,-2.27075 16.25,-5.17773 4.72759,-3.49818 8.09122,-8.79394 9.2461,-14.56055 1.15491,-5.76661 0.09,-11.94909 -2.92579,-16.99805 -2.48515,-4.16046 -6.25855,-7.5342 -10.65624,-9.57031 -4.32801,-2.00383 -9.24563,-2.71088 -13.9629,-2.00781 -4.71727,0.70307 -9.2159,2.81533 -12.77148,5.99414 3.14174,0.27099 6.13756,1.93747 8.02344,4.46484 1.33184,1.78488 2.09995,3.92098 2.76953,6.04492 0.66958,2.12395 1.26636,4.29093 2.31445,6.25586 1.06816,2.00259 2.60715,3.76542 4.50781,5.00586 1.90067,1.24044 4.16651,1.94466 6.43555,1.89258 2.26904,-0.0522 4.53019,-0.87768 6.23242,-2.3789 1.70223,-1.5012 2.81308,-3.68238 2.92578,-5.94922 0.0745,-1.49549 -0.27475,-2.99452 -0.89062,-4.35938 -0.61576,-1.36486 -1.49242,-2.60079 -2.48633,-3.7207 -2.60483,-2.93511 -6.0585,-5.10831 -9.83203,-6.18555 4.34761,-0.16554 8.7323,1.62494 11.72266,4.78516 2.99036,3.16021 4.53621,7.63692 4.13086,11.96875 -0.27667,2.95585 -1.42401,5.80719 -3.15821,8.21679 -1.7342,2.40964 -4.0441,4.3824 -6.625,5.84961 -4.19918,2.38715 -9.09955,3.42987 -13.92773,3.28711 -5.92017,-0.17499 -11.83403,-2.15402 -16.42774,-5.89257 -3.49818,-2.84697 -6.18947,-6.684 -7.64453,-10.95313 -1.45505,-4.26913 -1.66568,-8.95677 -0.57031,-13.33203 1.01267,-4.04493 3.11443,-7.77896 5.8457,-10.92969 2.73127,-3.15073 6.07996,-5.73261 9.68946,-7.82031 7.13187,-4.12502 15.23762,-6.32691 23.39257,-7.5 6.64548,-0.95596 13.38576,-1.25718 20.08985,-0.89453 v -6.83008 c -2.42155,-0.16365 -4.8507,-0.22271 -7.27735,-0.17773 -2.89269,0.0537 -5.78061,0.25452 -8.66015,0.53515 -1.23938,0.12095 -2.48157,0.25737 -3.72656,0.23242 -1.245,-0.0264 -2.50105,-0.21646 -3.63868,-0.72265 -0.961,-0.42777 -1.84099,-1.0989 -2.36718,-2.00977 -0.37539,-0.64981 -0.55913,-1.40034 -0.58399,-2.15039 -0.0249,-0.75005 0.10474,-1.49914 0.32422,-2.2168 0.43894,-1.43527 1.22682,-2.735 1.91211,-4.07031 2.15673,-4.20249 3.33061,-8.83867 4.19531,-13.48242 1.51078,-8.11344 2.12533,-16.40079 1.69727,-24.64258 -0.82848,-15.95108 -5.52445,-31.44958 -11.07227,-46.42773 -1.34673,-3.63595 -2.74462,-7.25193 -4.19531,-10.84766 8.71673,0.31068 17.44453,0.29524 26.16016,-0.0449 2.41186,-0.0941 4.82301,-0.21342 7.23242,-0.35742 v -7.14258 c -3.46734,0.37304 -6.96724,0.43221 -10.44531,0.17773 -5.36285,-0.39235 -10.64218,-1.5278 -15.89454,-2.67968 -7.57091,-1.66035 -15.26787,-3.41493 -21.96289,-7.32032 -5.20477,-3.03609 -9.72928,-7.4183 -12.32226,-12.85742 -1.81569,-3.80867 -2.64989,-8.07896 -2.40235,-12.29101 0.24756,-4.21202 1.57684,-8.35606 3.82618,-11.92579 3.07714,-3.77983 6.93344,-6.92352 11.25586,-9.17578 6.59845,-3.43821 14.48676,-4.73822 21.61328,-2.59961 3.56325,1.06931 6.88607,2.98362 9.5039,5.62696 2.61782,2.64329 4.51388,6.01907 5.27735,9.66015 0.5616,2.6784 0.50909,5.4877 -0.18555,8.13477 -0.69453,2.64707 -2.0335,5.12843 -3.89258,7.13672 -2.58529,2.7928 -6.17638,4.6329 -9.95312,5.10156 -3.77675,0.4687 -7.70893,-0.43945 -10.89844,-2.51562 3.96608,1.1074 8.29981,0.84797 12.10547,-0.72461 1.73061,-0.71513 3.37041,-1.70699 4.6582,-3.06641 1.2878,-1.35942 2.20844,-3.10567 2.39649,-4.96875 0.20254,-2.00663 -0.46744,-4.06368 -1.71485,-5.64844 -1.2474,-1.58475 -3.04472,-2.70243 -4.98633,-3.24805 -1.9416,-0.54561 -4.01949,-0.53506 -5.98828,-0.0976 -1.96879,0.43748 -3.83162,1.2919 -5.52539,2.38672 -1.9378,1.25257 -3.68793,2.83169 -5.80469,3.75 -1.69989,0.73746 -3.59546,1.01709 -5.43554,0.79883 -1.84008,-0.21808 -3.61943,-0.9341 -5.09961,-2.04883 0.75523,7.39997 5.29453,14.31381 11.78515,17.94726 3.78413,2.11835 8.16803,3.14782 12.5,2.94532 5.63653,-0.26344 11.15684,-2.64865 15.17969,-6.60547 3.08614,-3.03549 5.29347,-6.9915 6.07031,-11.25 0.92916,-5.09337 -0.2142,-10.44631 -2.67773,-15 -2.31126,-4.27197 -5.76649,-7.90702 -9.87109,-10.50391 -4.10461,-2.59689 -8.84765,-4.15818 -13.68555,-4.58984 -1.20948,-0.10792 -2.42121,-0.14281 -3.63086,-0.10938 z m 72.41016,0 c -1.20966,-0.0334 -2.42139,0.001 -3.63086,0.10938 -4.83787,0.43166 -9.58095,1.99295 -13.68555,4.58984 -4.1046,2.59689 -7.55984,6.23194 -9.87109,10.50391 -2.46354,4.55369 -3.6069,9.90663 -2.67774,15 0.77685,4.2585 2.98418,8.21451 6.07031,11.25 4.02286,3.95682 9.54317,6.34203 15.17969,6.60547 4.33198,0.2025 8.71586,-0.82697 12.5,-2.94532 6.49062,-3.63345 11.02993,-10.54729 11.78516,-17.94726 -1.48018,1.11473 -3.25955,1.83037 -5.09961,2.04883 -1.8401,0.21826 -3.73567,-0.0614 -5.43555,-0.79883 -2.11676,-0.91831 -3.86688,-2.49743 -5.80469,-3.75 -1.69375,-1.09482 -3.55464,-1.94928 -5.52343,-2.38672 -1.96876,-0.43744 -4.04866,-0.44796 -5.99024,0.0976 -1.94162,0.54562 -3.73698,1.6633 -4.98437,3.24805 -1.2474,1.5848 -1.91743,3.64181 -1.71485,5.64844 0.18804,1.86308 1.10869,3.60933 2.39649,4.96875 1.28776,1.35942 2.92564,2.35128 4.65625,3.06641 3.80564,1.57262 8.13938,1.83201 12.10547,0.72461 -3.18951,2.07617 -7.12167,2.98428 -10.89844,2.51562 -3.77673,-0.4687 -7.36785,-2.30876 -9.95313,-5.10156 -1.85907,-2.00829 -3.19805,-4.48965 -3.89257,-7.13672 -0.69464,-2.64707 -0.74715,-5.45637 -0.18555,-8.13477 0.76346,-3.64108 2.65953,-7.01683 5.27734,-9.66015 2.61786,-2.64331 5.94065,-4.55765 9.50391,-5.62696 7.12649,-2.13861 15.01678,-0.8386 21.61523,2.59961 4.32242,2.25226 8.17677,5.39595 11.25391,9.17578 2.24935,3.56973 3.58057,7.71377 3.82813,11.92579 0.24755,4.21205 -0.58862,8.48234 -2.4043,12.29101 -2.59298,5.43912 -7.11553,9.82133 -12.32031,12.85742 -6.69502,3.90539 -14.39393,5.65997 -21.96485,7.32032 -5.25237,1.15188 -10.52973,2.28733 -15.89258,2.67968 -3.47742,0.25443 -6.9786,0.19512 -10.44531,-0.17773 v 7.14258 c 2.40941,0.144 4.82056,0.26331 7.23242,0.35742 8.71563,0.34016 17.44343,0.3556 26.16016,0.0449 -1.4507,3.59573 -2.85054,7.21171 -4.19727,10.84766 -5.54781,14.97815 -10.24184,30.47665 -11.07031,46.42773 -0.42807,8.24179 0.18452,16.52914 1.69531,24.64258 0.86472,4.64375 2.04056,9.27993 4.19727,13.48242 0.6853,1.33531 1.47315,2.63504 1.91211,4.07031 0.21921,0.71766 0.35067,1.46675 0.32422,2.2168 -0.0249,0.75005 -0.20868,1.50058 -0.58399,2.15039 -0.52618,0.91083 -1.40616,1.582 -2.36718,2.00977 -1.13764,0.50619 -2.3937,0.6962 -3.63868,0.72265 -1.24501,0.0249 -2.48718,-0.11147 -3.72656,-0.23242 -2.87955,-0.28063 -5.76746,-0.48149 -8.66015,-0.53515 -2.42665,-0.045 -4.85581,0.0141 -7.27735,0.17773 v 6.83008 c 6.70409,-0.36265 13.44438,-0.0614 20.08985,0.89453 8.15493,1.17309 16.26068,3.37498 23.39257,7.5 3.60949,2.0877 6.95818,4.66958 9.68946,7.82031 2.73127,3.15077 4.83301,6.88476 5.8457,10.92969 1.09538,4.37526 0.88473,9.0629 -0.57031,13.33203 -1.45505,4.26913 -4.14635,8.10616 -7.64453,10.95313 -4.59372,3.73855 -10.50756,5.71758 -16.42774,5.89257 -4.82816,0.14276 -9.73052,-0.89996 -13.92969,-3.28711 -2.58088,-1.46721 -4.88884,-3.43997 -6.62304,-5.84961 -1.7342,-2.40963 -2.88154,-5.2609 -3.15821,-8.21679 -0.40535,-4.33183 1.1405,-8.80854 4.13086,-11.96875 2.99037,-3.16022 7.37503,-4.9507 11.72266,-4.78516 -3.77356,1.07724 -7.22718,3.25044 -9.83203,6.18555 -0.9939,1.11991 -1.87057,2.35588 -2.48633,3.7207 -0.61587,1.36486 -0.96508,2.86389 -0.89063,4.35938 0.11271,2.26684 1.22356,4.44799 2.92579,5.94922 1.70226,1.50119 3.96338,2.32674 6.23242,2.3789 2.26904,0.0521 4.53486,-0.65214 6.43555,-1.89258 1.90064,-1.24048 3.43964,-3.00327 4.50781,-5.00586 1.0481,-1.96493 1.64487,-4.13187 2.31445,-6.25586 0.66958,-2.12394 1.4377,-4.26004 2.76953,-6.04492 1.88587,-2.52737 4.88171,-4.19385 8.02344,-4.46484 -3.55559,-3.17877 -8.05422,-5.29107 -12.77149,-5.99414 -4.71726,-0.70307 -9.63487,0.004 -13.96289,2.00781 -4.3977,2.03611 -8.17305,5.40985 -10.6582,9.57031 -3.01583,5.04896 -4.0787,11.23144 -2.92383,16.99805 1.15488,5.76661 4.51652,11.06237 9.24414,14.56055 4.94087,2.90698 10.53819,4.68995 16.25,5.17773 5.85653,0.50015 11.8973,-0.3865 17.14454,-3.03515 3.35334,-1.69267 6.33169,-4.07029 8.92773,-6.78516 2.70021,-2.82384 5.01767,-6.04914 6.56055,-9.63867 0.97047,-2.25782 1.6292,-4.64431 2.02148,-7.07032 0.73886,-4.56952 0.52948,-9.29978 -0.69531,-13.76367 -0.76332,-2.78203 -1.91988,-5.45933 -3.47266,-7.89062 -1.14557,-1.79373 -2.50359,-3.45199 -4.03906,-4.92578 6.02593,0.86683 12.24009,0.39316 18.06445,-1.37891 8.43175,-2.56535 16.00082,-7.88555 21.27149,-14.94922 7.21908,-8.5525 10.22132,-20.50444 7.90039,-31.45312 -2.19908,-10.37394 -9.10645,-19.6528 -18.41406,-24.73438 -5.37521,-3.22035 -11.80324,-4.65174 -18.03711,-4.01758 -5.06453,0.51523 -10.00133,2.34705 -15.08789,2.14258 -2.0256,-0.0814 -4.05198,-0.49451 -5.89454,-1.33984 -1.58865,-0.72885 -3.02891,-1.77479 -4.21289,-3.06055 3.67797,1.2782 7.56723,1.94399 11.46094,1.96289 4.01261,0.0202 8.02806,-0.64565 11.81836,-1.96289 -1.1709,-3.07903 -3.31932,-5.77867 -6.05664,-7.61133 -2.73729,-1.83269 -6.05084,-2.78955 -9.34375,-2.69922 -3.10057,0.0852 -6.09508,1.06345 -9.11719,1.76172 -2.44154,0.56413 -4.92402,0.9485 -7.42187,1.14844 1.07108,5.52227 4.4951,10.54658 9.24218,13.56445 2.85574,1.81546 6.16129,2.91853 9.53516,3.17969 -0.61799,0.47021 -1.21031,0.97685 -1.76953,1.51563 -3.76917,3.63148 -6.00685,8.71463 -6.53516,13.92187 -0.5921,5.83612 0.90567,11.81412 3.90821,16.85352 3.1994,5.3698 8.1021,9.70832 13.82226,12.22851 5.72013,2.52015 12.22983,3.21035 18.35156,1.94727 -3.43086,-2.07791 -5.89543,-5.68523 -6.58398,-9.63672 -0.72144,-4.14021 0.42799,-8.34442 1.29297,-12.45703 0.43253,-2.05629 0.79763,-4.13709 0.82031,-6.23828 0.0236,-2.10116 -0.30593,-4.2336 -1.20508,-6.13282 -1.42458,-3.00899 -4.25903,-5.26117 -7.45508,-6.19336 -2.02794,-0.59161 -4.213,-0.67892 -6.25976,-0.15625 -2.04677,0.52271 -3.94698,1.66613 -5.29688,3.29102 -1.9401,2.33533 -2.63697,5.48933 -2.64453,8.52539 -0.0105,5.35612 2.01394,10.68987 5.57422,14.69141 -3.31483,-2.31496 -5.90892,-5.64748 -7.33789,-9.42969 -1.42892,-3.78221 -1.6865,-7.99727 -0.73047,-11.92578 0.71853,-2.95264 2.13963,-5.77429 4.32227,-7.88867 3.13428,-3.03625 7.59427,-4.39016 11.95312,-4.59766 7.81894,-0.37221 15.64556,2.71813 21.46875,7.94922 4.56068,4.09697 7.96916,9.51357 9.44922,15.46289 2.00141,8.0451 0.35988,16.83749 -4.02539,23.87305 -5.78702,9.28448 -16.17849,15.35994 -27.05469,16.54297 -6.40917,0.69713 -13.04343,-0.22894 -18.84765,-3.03516 -7.4366,-3.59543 -13.19689,-10.11081 -17,-17.44336 -2.75792,-5.31734 -4.56961,-11.09155 -5.72656,-16.96875 -1.51287,-7.6862 -1.91888,-15.57417 -1.42969,-23.39258 0.52807,-8.43983 2.09017,-16.78777 4.10742,-25 1.58748,-6.46269 3.46872,-12.882 6.25,-18.92773 2.61324,-5.68048 6.03103,-11.02273 10.35742,-15.53711 3.90059,-4.07006 8.55228,-7.46002 13.75,-9.64258 5.60678,-2.35415 11.88101,-3.26563 17.85742,-2.14258 5.53013,1.03918 10.7172,3.82584 14.64258,7.85742 2.8563,2.93356 5.04341,6.50412 6.42774,10.35743 1.55882,4.33901 2.08726,9.16878 0.71484,13.57031 -1.37753,4.41796 -4.6154,8.13726 -8.57227,10.53711 -4.4592,2.70451 -9.78999,3.80502 -15,3.57031 -3.47588,-0.15659 -7.04145,-0.94126 -9.82031,-3.03516 -1.69073,-1.274 -3.02857,-2.9945 -3.92969,-4.91015 -1.45247,-3.0878 -1.76098,-6.69881 -0.85351,-9.98828 0.90742,-3.28948 3.02337,-6.23037 5.85351,-8.13672 l -2.00781,4.10742 c -0.53393,1.0916 -1.06336,2.18952 -1.44336,3.34375 -0.37988,1.15423 -0.61107,2.36293 -0.60351,3.57812 0.0116,2.43032 1.04365,4.85718 2.85937,6.47266 1.24853,1.11084 2.8311,1.8363 4.48438,2.08008 1.65331,0.24382 3.37163,0.009 4.9082,-0.64844 1.53653,-0.65711 2.88804,-1.73231 3.89453,-3.06641 1.00645,-1.33406 1.6677,-2.92144 1.92774,-4.57226 0.28195,-1.79165 0.0977,-3.62042 -0.0762,-5.42578 -0.17499,-1.80537 -0.33802,-3.63902 -0.0156,-5.42383 0.31056,-1.71833 1.07633,-3.35251 2.19726,-4.69141 1.12094,-1.33886 2.59547,-2.37846 4.23243,-2.98632 -3.94587,-2.23628 -8.61027,-3.18157 -13.11524,-2.65626 -4.50497,0.52532 -8.82685,2.51744 -12.15234,5.60157 -2.78597,2.5838 -4.8601,5.89523 -6.16211,9.46484 -0.44587,1.22234 -0.8031,2.4766 -1.07031,3.75 -2.05081,-1.20072 -4.56888,-1.58097 -6.88282,-1.03906 -1.16122,0.27194 -2.27181,0.76969 -3.2207,1.49219 -0.94885,0.72253 -1.73206,1.67291 -2.21875,2.76172 -0.45373,1.01544 -0.64729,2.14382 -0.57812,3.2539 0.0691,1.11012 0.39858,2.19977 0.93554,3.17383 0.78475,1.42356 2.01956,2.59591 3.48242,3.30469 -1.1958,-1.09399 -1.87379,-2.73238 -1.80273,-4.35157 0.0711,-1.61918 0.88874,-3.1888 2.17578,-4.17382 0.66259,-0.5071 1.44537,-0.86413 2.26953,-0.99414 0.82417,-0.12987 1.69045,-0.0289 2.44727,0.32226 0.7604,0.35293 1.39112,0.94302 1.90234,1.60742 0.51126,0.66441 0.91109,1.40554 1.31055,2.14258 2.26764,4.18386 4.68339,8.50705 8.57226,11.25 3.55204,2.50537 7.98569,3.4261 12.32032,3.75 5.51251,0.41208 11.19851,-0.0753 16.25,-2.32031 4.38342,-1.94812 8.18207,-5.21346 10.71484,-9.28711 2.9356,-4.7215 4.12277,-10.44201 3.66016,-15.98242 -0.50775,-6.08062 -2.96265,-11.94834 -6.75,-16.73242 -3.78735,-4.78409 -8.87542,-8.49002 -14.5,-10.85547 -6.63549,-2.79066 -14.03859,-3.72877 -21.16016,-2.67969 4.07407,-4.99869 6.38282,-11.40894 6.42969,-17.85742 0.065,-8.9356 -4.20268,-17.63112 -10.71485,-23.75 -6.1945,-5.82044 -14.52462,-9.43202 -22.99218,-9.66602 z"
         style="fill:#78a22f;fill-opacity:1;stroke:none;stroke-width:0.18897638;stroke-linecap:butt;stroke-linejoin:miter;stroke-miterlimit:4;stroke-dasharray:none;stroke-opacity:1" />
    </g>
  </g>
</svg>
