<?xml version="1.0" encoding="UTF-8" standalone="no"?>
<!-- Created with Inkscape (http://www.inkscape.org/) -->

<svg
   xmlns:dc="http://purl.org/dc/elements/1.1/"
   xmlns:cc="http://creativecommons.org/ns#"
   xmlns:rdf="http://www.w3.org/1999/02/22-rdf-syntax-ns#"
   xmlns:svg="http://www.w3.org/2000/svg"
   xmlns="http://www.w3.org/2000/svg"
   xmlns:sodipodi="http://sodipodi.sourceforge.net/DTD/sodipodi-0.dtd"
   xmlns:inkscape="http://www.inkscape.org/namespaces/inkscape"
   width="62.396301mm"
   height="14.828614mm"
   viewBox="0 0 62.396305 14.828614"
   version="1.1"
   id="svg8"
   inkscape:version="0.92.3 (unknown)"
   sodipodi:docname="unique_logo_inkscape_long.svg">
  <defs
     id="defs2">
    <inkscape:path-effect
       effect="spiro"
       id="path-effect1481"
       is_visible="true" />
    <inkscape:path-effect
       effect="spiro"
       id="path-effect1204"
       is_visible="true" />
    <inkscape:path-effect
       effect="spiro"
       id="path-effect1164"
       is_visible="true" />
    <inkscape:path-effect
       effect="spiro"
       id="path-effect1058"
       is_visible="true" />
    <inkscape:path-effect
       effect="spiro"
       id="path-effect1058-1"
       is_visible="true" />
    <inkscape:path-effect
       effect="spiro"
       id="path-effect1058-17"
       is_visible="true" />
    <inkscape:path-effect
       effect="spiro"
       id="path-effect1058-1-4"
       is_visible="true" />
    <inkscape:path-effect
       effect="spiro"
       id="path-effect1058-0"
       is_visible="true" />
    <inkscape:path-effect
       effect="spiro"
       id="path-effect1058-0-1"
       is_visible="true" />
    <inkscape:path-effect
       effect="spiro"
       id="path-effect1058-1-4-6"
       is_visible="true" />
    <inkscape:path-effect
       effect="spiro"
       id="path-effect1058-1-4-6-1"
       is_visible="true" />
    <inkscape:path-effect
       effect="spiro"
       id="path-effect1058-0-1-9"
       is_visible="true" />
    <inkscape:path-effect
       effect="spiro"
       id="path-effect1164-8"
       is_visible="true" />
    <inkscape:path-effect
       effect="spiro"
       id="path-effect1164-81"
       is_visible="true" />
    <inkscape:path-effect
       effect="spiro"
       id="path-effect1164-2"
       is_visible="true" />
    <inkscape:path-effect
       effect="spiro"
       id="path-effect1481-3"
       is_visible="true" />
  </defs>
  <sodipodi:namedview
     id="base"
     pagecolor="#ffffff"
     bordercolor="#666666"
     borderopacity="1.0"
     inkscape:pageopacity="0.0"
     inkscape:pageshadow="2"
     inkscape:zoom="5.6568544"
     inkscape:cx="30.687885"
     inkscape:cy="29.041914"
     inkscape:document-units="mm"
     inkscape:current-layer="g907"
     showgrid="false"
     showguides="true"
     inkscape:guide-bbox="true"
     inkscape:window-width="1366"
     inkscape:window-height="743"
     inkscape:window-x="0"
     inkscape:window-y="0"
     inkscape:window-maximized="1"
     fit-margin-top="0"
     fit-margin-left="0"
     fit-margin-right="0"
     fit-margin-bottom="0" />
  <metadata
     id="metadata5">
    <rdf:RDF>
      <cc:Work
         rdf:about="">
        <dc:format>image/svg+xml</dc:format>
        <dc:type
           rdf:resource="http://purl.org/dc/dcmitype/StillImage" />
        <dc:title />
      </cc:Work>
    </rdf:RDF>
  </metadata>
  <g
     inkscape:label="Layer 1"
     inkscape:groupmode="layer"
     id="layer1"
     transform="translate(-67.071024,-135.48471)">
    <g
       id="g964"
       transform="matrix(0.25106207,0,0,0.25106207,47.775991,114.11664)"
       style="stroke-width:3.98307848">
      <text
         y="126.83397"
         x="134.50368"
         id="text903"
         style="font-style:normal;font-variant:normal;font-weight:normal;font-stretch:normal;font-size:29.66300392px;line-height:1.25;font-family:'Dancing Script';-inkscape-font-specification:'Dancing Script';letter-spacing:0px;word-spacing:0px;fill:#00001a;fill-opacity:1;stroke:none;stroke-width:1.05385625;"
         xml:space="preserve"><tspan
           id="tspan931"
           style="font-style:normal;font-variant:normal;font-weight:normal;font-stretch:normal;font-size:44.49450684px;font-family:'Century Schoolbook L';-inkscape-font-specification:'Century Schoolbook L';stroke-width:1.05385625;fill:#00001a;fill-opacity:1;">UNIQUE</tspan></text>
      <g
         transform="matrix(0.78273712,0,0,0.78273712,20.747387,12.647814)"
         id="g907"
         style="stroke-width:5.08865404">
        <circle
           style="opacity:0.825;fill:#00001a;fill-opacity:1;stroke:none;stroke-width:1.83779931;stroke-linecap:round;stroke-linejoin:miter;stroke-miterlimit:4;stroke-dasharray:none;stroke-dashoffset:75.59055328;stroke-opacity:1;paint-order:markers stroke fill"
           id="path912"
           cx="82.716278"
           cy="152.54933"
           r="2.0552454" />
        <circle
           style="opacity:0.825;fill:#00001a;fill-opacity:1;stroke:none;stroke-width:1.83779931;stroke-linecap:round;stroke-linejoin:miter;stroke-miterlimit:4;stroke-dasharray:none;stroke-dashoffset:75.59055328;stroke-opacity:1;paint-order:markers stroke fill"
           id="path912-7"
           cx="126.2327"
           cy="152.56253"
           r="2.0552454" />
        <circle
           style="opacity:0.825;fill:#00001a;fill-opacity:1;stroke:none;stroke-width:1.83779931;stroke-linecap:round;stroke-linejoin:miter;stroke-miterlimit:4;stroke-dasharray:none;stroke-dashoffset:75.59055328;stroke-opacity:1;paint-order:markers stroke fill"
           id="path912-9"
           cx="82.755493"
           cy="107.89022"
           r="2.0552454" />
        <circle
           style="opacity:0.825;fill:#000022;fill-opacity:1;stroke:none;stroke-width:1.83779931;stroke-linecap:round;stroke-linejoin:miter;stroke-miterlimit:4;stroke-dasharray:none;stroke-dashoffset:75.59055328;stroke-opacity:1;paint-order:markers stroke fill"
           id="path912-93"
           cx="126.25232"
           cy="107.8903"
           r="2.0552454" />
        <circle
           style="opacity:0.825;fill:#00001a;fill-opacity:1;stroke:none;stroke-width:1.83779931;stroke-linecap:round;stroke-linejoin:miter;stroke-miterlimit:4;stroke-dasharray:none;stroke-dashoffset:75.59055328;stroke-opacity:1;paint-order:markers stroke fill"
           id="path912-2"
           cx="102.49402"
           cy="149.50949"
           r="1.2176539" />
        <circle
           style="opacity:0.825;fill:#00001a;fill-opacity:1;stroke:none;stroke-width:1.83779931;stroke-linecap:round;stroke-linejoin:miter;stroke-miterlimit:4;stroke-dasharray:none;stroke-dashoffset:75.59055328;stroke-opacity:1;paint-order:markers stroke fill"
           id="path912-2-3"
           cx="106.46455"
           cy="149.52051"
           r="1.217654" />
        <circle
           style="opacity:0.825;fill:#00001a;fill-opacity:1;stroke:none;stroke-width:1.83779931;stroke-linecap:round;stroke-linejoin:miter;stroke-miterlimit:4;stroke-dasharray:none;stroke-dashoffset:75.59055328;stroke-opacity:1;paint-order:markers stroke fill"
           id="path912-2-7"
           cx="104.41404"
           cy="152.5625"
           r="1.217654" />
        <circle
           style="opacity:0.825;fill:#00001a;fill-opacity:1;stroke:none;stroke-width:1.83779919;stroke-linecap:round;stroke-linejoin:miter;stroke-miterlimit:4;stroke-dasharray:none;stroke-dashoffset:75.59055328;stroke-opacity:1;paint-order:markers stroke fill"
           id="path912-2-20"
           cx="106.47189"
           cy="111.25932"
           r="1.5483832" />
        <circle
           style="opacity:0.825;fill:#00001a;fill-opacity:1;stroke:none;stroke-width:1.83779919;stroke-linecap:round;stroke-linejoin:miter;stroke-miterlimit:4;stroke-dasharray:none;stroke-dashoffset:75.59055328;stroke-opacity:1;paint-order:markers stroke fill"
           id="path912-2-20-1"
           cx="104.36823"
           cy="107.89213"
           r="1.5483832" />
        <circle
           style="opacity:0.825;fill:#00001a;fill-opacity:1;stroke:none;stroke-width:1.83779919;stroke-linecap:round;stroke-linejoin:miter;stroke-miterlimit:4;stroke-dasharray:none;stroke-dashoffset:75.59055328;stroke-opacity:1;paint-order:markers stroke fill"
           id="path912-2-20-7"
           cx="102.14807"
           cy="111.26121"
           r="1.5483832" />
        <circle
           style="opacity:0.825;fill:#00001a;fill-opacity:1;stroke:none;stroke-width:1.83779919;stroke-linecap:round;stroke-linejoin:miter;stroke-miterlimit:4;stroke-dasharray:none;stroke-dashoffset:75.59055328;stroke-opacity:1;paint-order:markers stroke fill"
           id="path912-2-20-4"
           cx="94.021584"
           cy="132.13625"
           r="1.5483832" />
        <circle
           style="opacity:0.825;fill:#00001a;fill-opacity:1;stroke:none;stroke-width:1.83779919;stroke-linecap:round;stroke-linejoin:miter;stroke-miterlimit:4;stroke-dasharray:none;stroke-dashoffset:75.59055328;stroke-opacity:1;paint-order:markers stroke fill"
           id="path912-2-20-17"
           cx="114.33781"
           cy="132.12206"
           r="1.5483832" />
        <path
           style="fill:#00001a;fill-opacity:1;stroke:none;stroke-width:1.3463732px;stroke-linecap:butt;stroke-linejoin:miter;stroke-opacity:1"
           d="m 98.958894,95.656806 c 0.07247,-0.205929 0.195118,-0.393997 0.354351,-0.54334 0.190323,-0.177628 0.430135,-0.301668 0.685083,-0.354354 0.233532,-0.04826 0.478062,-0.03696 0.708702,0.02363 0.40841,0.107292 0.76389,0.363455 1.06306,0.661459 0.42004,0.418411 0.74581,0.925396 0.99219,1.464656 0.36798,0.805408 0.56264,1.689486 0.56696,2.574965 v 0.685078 c -0.18034,-0.230205 -0.37144,-0.451985 -0.57246,-0.664374 -0.22454,-0.23724 -0.46132,-0.462633 -0.70321,-0.682162 -0.46132,-0.418682 -0.94847,-0.820877 -1.5119,-1.086684 -0.21973,-0.103662 -0.44913,-0.185608 -0.669855,-0.287137 -0.220727,-0.101529 -0.435398,-0.224778 -0.605817,-0.397943 -0.17583,-0.178664 -0.299485,-0.407913 -0.353119,-0.652781 -0.05363,-0.244868 -0.03719,-0.504553 0.04601,-0.741013 z"
           id="path1056"
           inkscape:connector-curvature="0"
           inkscape:path-effect="#path-effect1058"
           inkscape:original-d="m 98.958894,95.656806 c 0.06298,-0.220616 0.216837,-0.376953 0.354351,-0.54334 0,0 0.43209,-0.310626 0.685083,-0.354354 0.261182,-0.04514 0.526742,-0.01984 0.708702,0.02363 0.25879,0.06182 0.8531,0.446269 1.06306,0.661459 0.18504,0.189644 0.82618,1.094785 0.99219,1.464656 0.14456,0.322081 0.52884,2.138649 0.56696,2.574965 -0.003,0.374152 0,0.685078 0,0.685078 0,0 -0.44819,-0.587953 -0.57246,-0.664374 -0.12427,-0.07642 -0.36694,-0.34139 -0.70321,-0.682162 -0.26808,-0.271667 -1.14395,-0.872185 -1.5119,-1.086684 -0.20403,-0.118943 -0.898649,-0.383547 -1.275672,-0.68508 -0.381499,-0.305112 -0.374274,-1.158516 -0.307104,-1.393794 z"
           sodipodi:nodetypes="sssssscccssss" />
        <path
           style="fill:#00001a;fill-opacity:1;stroke:none;stroke-width:1.3463732px;stroke-linecap:butt;stroke-linejoin:miter;stroke-opacity:1"
           d="m 109.53917,95.683644 c -0.0725,-0.20593 -0.19512,-0.393998 -0.35435,-0.54334 -0.19033,-0.177628 -0.43014,-0.301668 -0.68509,-0.354354 -0.23353,-0.04826 -0.47806,-0.03696 -0.7087,0.02363 -0.40841,0.107291 -0.76389,0.363455 -1.06306,0.661459 -0.42004,0.418411 -0.74581,0.925396 -0.99219,1.464656 -0.36798,0.805408 -0.56264,1.689486 -0.56696,2.574965 v 0.68508 c 0.18034,-0.230206 0.37144,-0.451987 0.57246,-0.664376 0.22454,-0.23724 0.46132,-0.462633 0.70321,-0.682162 0.46132,-0.418682 0.94847,-0.820876 1.5119,-1.086684 0.21973,-0.103662 0.44913,-0.185609 0.66985,-0.287138 0.22073,-0.101529 0.4354,-0.224777 0.60582,-0.397942 0.17583,-0.178664 0.29949,-0.407912 0.35312,-0.65278 0.0536,-0.244869 0.0372,-0.504554 -0.046,-0.741014 z"
           id="path1056-1"
           inkscape:connector-curvature="0"
           inkscape:path-effect="#path-effect1058-1"
           inkscape:original-d="m 109.53917,95.683644 c -0.063,-0.220616 -0.21684,-0.376953 -0.35435,-0.54334 0,0 -0.43209,-0.310626 -0.68509,-0.354354 -0.26118,-0.04514 -0.52674,-0.01984 -0.7087,0.02363 -0.25879,0.06182 -0.8531,0.446269 -1.06306,0.661459 -0.18504,0.189644 -0.82618,1.094785 -0.99219,1.464656 -0.14456,0.322081 -0.52884,2.138649 -0.56696,2.574965 0.003,0.374152 0,0.68508 0,0.68508 0,0 0.44819,-0.587955 0.57246,-0.664376 0.12427,-0.07642 0.36694,-0.34139 0.70321,-0.682162 0.26808,-0.271667 1.14395,-0.872185 1.5119,-1.086684 0.20403,-0.118943 0.89865,-0.383547 1.27567,-0.68508 0.3815,-0.305112 0.37428,-1.158516 0.30711,-1.393794 z"
           sodipodi:nodetypes="sssssscccssss" />
        <path
           style="fill:#00001a;fill-opacity:1;stroke:none;stroke-width:1.3463732px;stroke-linecap:butt;stroke-linejoin:miter;stroke-opacity:1"
           d="m 99.078611,165.03716 c 0.07301,0.20569 0.19556,0.3936 0.35435,0.54334 0.189459,0.17867 0.429991,0.302 0.685089,0.35435 0.23358,0.0479 0.47804,0.0369 0.7087,-0.0236 0.40847,-0.10709 0.76393,-0.3634 1.06306,-0.66146 0.41997,-0.41848 0.74578,-0.92541 0.99219,-1.46465 0.36803,-0.80539 0.56269,-1.68949 0.56696,-2.57497 v -0.68508 c -0.18035,0.2302 -0.37145,0.45198 -0.57246,0.66438 -0.22453,0.23725 -0.4613,0.46266 -0.70321,0.68216 -0.46136,0.41862 -0.94864,0.82054 -1.5119,1.08668 -0.21965,0.10378 -0.44893,0.18595 -0.6696,0.28755 -0.220669,0.1016 -0.43531,0.22473 -0.606069,0.39753 -0.176358,0.17846 -0.300943,0.40751 -0.354931,0.65253 -0.05399,0.24502 -0.0372,0.50522 0.04782,0.74127 z"
           id="path1056-8"
           inkscape:connector-curvature="0"
           inkscape:path-effect="#path-effect1058-0"
           inkscape:original-d="m 99.078611,165.03716 c 0.063,0.22061 0.21684,0.37695 0.35435,0.54334 0.163784,0.19818 0.43209,0.31062 0.685089,0.35435 0.26118,0.0451 0.52674,0.0198 0.7087,-0.0236 0.25879,-0.0618 0.8531,-0.44627 1.06306,-0.66146 0.18504,-0.18964 0.82618,-1.09478 0.99219,-1.46465 0.14456,-0.32208 0.52884,-2.13865 0.56696,-2.57497 -0.003,-0.37415 0,-0.68508 0,-0.68508 0,0 -0.44819,0.58796 -0.57246,0.66438 -0.12427,0.0764 -0.36694,0.34139 -0.70321,0.68216 -0.26808,0.27167 -1.14395,0.87218 -1.5119,1.08668 -0.20403,0.11895 -0.898649,0.38355 -1.275669,0.68508 -0.3815,0.30512 -0.37428,1.15852 -0.30711,1.3938 z"
           sodipodi:nodetypes="cssssscccssssc" />
        <path
           style="fill:#00001a;fill-opacity:1;stroke:none;stroke-width:1.3463732px;stroke-linecap:butt;stroke-linejoin:miter;stroke-opacity:1"
           d="m 109.65889,165.01032 c -0.073,0.20569 -0.19556,0.3936 -0.35435,0.54334 -0.18946,0.17867 -0.42999,0.302 -0.68509,0.35435 -0.23358,0.0479 -0.47804,0.0369 -0.7087,-0.0236 -0.40847,-0.10709 -0.76393,-0.3634 -1.06306,-0.66146 -0.41997,-0.41848 -0.74578,-0.92541 -0.99219,-1.46465 -0.36803,-0.80539 -0.56269,-1.68949 -0.56696,-2.57497 v -0.68508 c 0.18035,0.2302 0.37145,0.45198 0.57246,0.66438 0.22453,0.23725 0.4613,0.46266 0.70321,0.68216 0.46136,0.41862 0.94864,0.82055 1.5119,1.08669 0.21965,0.10378 0.44893,0.18595 0.6696,0.28755 0.22067,0.1016 0.43531,0.22473 0.60607,0.39753 0.17636,0.17846 0.30094,0.4075 0.35493,0.65252 0.054,0.24502 0.0372,0.50522 -0.0478,0.74127 z"
           id="path1056-1-5"
           inkscape:connector-curvature="0"
           inkscape:path-effect="#path-effect1058-1-4"
           inkscape:original-d="m 109.65889,165.01032 c -0.063,0.22062 -0.21684,0.37695 -0.35435,0.54334 -0.16378,0.19818 -0.43209,0.31063 -0.68509,0.35435 -0.26118,0.0451 -0.52674,0.0198 -0.7087,-0.0236 -0.25879,-0.0618 -0.8531,-0.44627 -1.06306,-0.66146 -0.18504,-0.18964 -0.82618,-1.09478 -0.99219,-1.46465 -0.14456,-0.32208 -0.52884,-2.13865 -0.56696,-2.57497 0.003,-0.37415 0,-0.68508 0,-0.68508 0,0 0.44819,0.58796 0.57246,0.66438 0.12427,0.0764 0.36694,0.34139 0.70321,0.68216 0.26808,0.27167 1.14395,0.87219 1.5119,1.08669 0.20403,0.11894 0.89865,0.38354 1.27567,0.68508 0.3815,0.30511 0.37428,1.15851 0.30711,1.39379 z"
           sodipodi:nodetypes="cssssscccssssc" />
        <path
           style="fill:#00001a;fill-opacity:1;stroke:none;stroke-width:1.3463732px;stroke-linecap:butt;stroke-linejoin:miter;stroke-opacity:1"
           d="m 74.977056,123.0802 c -0.205686,0.073 -0.393596,0.19556 -0.54334,0.35435 -0.178666,0.18946 -0.301996,0.42999 -0.35435,0.68509 -0.04794,0.23358 -0.03687,0.47804 0.0236,0.7087 0.107086,0.40847 0.363398,0.76393 0.66146,1.06306 0.418475,0.41997 0.925411,0.74578 1.46465,0.99219 0.80539,0.36803 1.689485,0.56269 2.57497,0.56696 h 0.68508 c -0.230201,-0.18035 -0.451983,-0.37145 -0.66438,-0.57246 -0.237249,-0.22453 -0.462659,-0.4613 -0.68216,-0.70321 -0.418619,-0.46136 -0.820542,-0.94864 -1.08668,-1.5119 -0.103783,-0.21965 -0.185954,-0.44893 -0.287552,-0.6696 -0.101598,-0.22067 -0.224732,-0.43531 -0.397528,-0.60607 -0.178462,-0.17636 -0.407506,-0.30094 -0.652529,-0.35493 -0.245022,-0.054 -0.505217,-0.0372 -0.741271,0.0478 z"
           id="path1056-8-6"
           inkscape:connector-curvature="0"
           inkscape:path-effect="#path-effect1058-0-1"
           inkscape:original-d="m 74.977056,123.0802 c -0.22061,0.063 -0.37695,0.21684 -0.54334,0.35435 -0.198182,0.16378 -0.31062,0.43209 -0.35435,0.68509 -0.0451,0.26118 -0.0198,0.52674 0.0236,0.7087 0.0618,0.25879 0.44627,0.8531 0.66146,1.06306 0.18964,0.18504 1.09478,0.82618 1.46465,0.99219 0.32208,0.14456 2.13865,0.52884 2.57497,0.56696 0.37415,-0.003 0.68508,0 0.68508,0 0,0 -0.58796,-0.44819 -0.66438,-0.57246 -0.0764,-0.12427 -0.34139,-0.36694 -0.68216,-0.70321 -0.27167,-0.26808 -0.87218,-1.14395 -1.08668,-1.5119 -0.11895,-0.20403 -0.38355,-0.89865 -0.68508,-1.27567 -0.30512,-0.3815 -1.15852,-0.37428 -1.3938,-0.30711 z"
           sodipodi:nodetypes="cssssscccssssc" />
        <path
           style="fill:#00001a;fill-opacity:1;stroke:none;stroke-width:1.3463732px;stroke-linecap:butt;stroke-linejoin:miter;stroke-opacity:1"
           d="m 74.987283,133.72005 c -0.205686,-0.073 -0.393596,-0.19556 -0.54334,-0.35435 -0.178666,-0.18946 -0.301996,-0.42999 -0.35435,-0.68509 -0.04794,-0.23358 -0.03687,-0.47804 0.0236,-0.7087 0.107086,-0.40847 0.363398,-0.76393 0.66146,-1.06306 0.418475,-0.41997 0.925411,-0.74578 1.46465,-0.99219 0.80539,-0.36803 1.689485,-0.56269 2.57497,-0.56696 h 0.68508 c -0.230201,0.18035 -0.451983,0.37145 -0.66438,0.57246 -0.237248,0.22453 -0.462659,0.4613 -0.68216,0.70321 -0.418621,0.46136 -0.82055,0.94864 -1.08669,1.5119 -0.103784,0.21965 -0.185954,0.44893 -0.287552,0.6696 -0.101598,0.22067 -0.224732,0.43531 -0.397528,0.60607 -0.17846,0.17636 -0.407503,0.30094 -0.652524,0.35493 -0.245021,0.054 -0.505213,0.0372 -0.741266,-0.0478 z"
           id="path1056-1-5-2"
           inkscape:connector-curvature="0"
           inkscape:path-effect="#path-effect1058-1-4-6"
           inkscape:original-d="m 74.987283,133.72005 c -0.22062,-0.063 -0.37695,-0.21684 -0.54334,-0.35435 -0.19818,-0.16378 -0.31063,-0.43209 -0.35435,-0.68509 -0.0451,-0.26118 -0.0198,-0.52674 0.0236,-0.7087 0.0618,-0.25879 0.44627,-0.8531 0.66146,-1.06306 0.18964,-0.18504 1.09478,-0.82618 1.46465,-0.99219 0.32208,-0.14456 2.13865,-0.52884 2.57497,-0.56696 0.37415,0.003 0.68508,0 0.68508,0 0,0 -0.58796,0.44819 -0.66438,0.57246 -0.0764,0.12427 -0.34139,0.36694 -0.68216,0.70321 -0.27167,0.26808 -0.87219,1.14395 -1.08669,1.5119 -0.11894,0.20403 -0.38354,0.89865 -0.68508,1.27567 -0.30511,0.3815 -1.15851,0.37428 -1.39379,0.30711 z"
           sodipodi:nodetypes="cssssscccssssc" />
        <path
           style="fill:#00001a;fill-opacity:1;stroke:none;stroke-width:1.3463732px;stroke-linecap:butt;stroke-linejoin:miter;stroke-opacity:1"
           d="m 133.48968,122.90273 c 0.20569,0.073 0.3936,0.19556 0.54334,0.35435 0.17867,0.18946 0.302,0.42999 0.35435,0.68509 0.0479,0.23358 0.0369,0.47804 -0.0236,0.7087 -0.10709,0.40847 -0.3634,0.76393 -0.66146,1.06306 -0.41848,0.41997 -0.92541,0.74578 -1.46465,0.99219 -0.80539,0.36803 -1.68949,0.56269 -2.57497,0.56696 h -0.68508 c 0.2302,-0.18035 0.45198,-0.37145 0.66438,-0.57246 0.23725,-0.22453 0.46266,-0.4613 0.68216,-0.70321 0.41862,-0.46136 0.82054,-0.94864 1.08668,-1.5119 0.10378,-0.21965 0.18595,-0.44893 0.28755,-0.6696 0.1016,-0.22067 0.22473,-0.43531 0.39753,-0.60607 0.17846,-0.17636 0.40751,-0.30094 0.65253,-0.35493 0.24502,-0.054 0.50522,-0.0372 0.74127,0.0478 z"
           id="path1056-8-6-6"
           inkscape:connector-curvature="0"
           inkscape:path-effect="#path-effect1058-0-1-9"
           inkscape:original-d="m 133.48968,122.90273 c 0.22061,0.063 0.37695,0.21684 0.54334,0.35435 0.19818,0.16378 0.31062,0.43209 0.35435,0.68509 0.0451,0.26118 0.0198,0.52674 -0.0236,0.7087 -0.0618,0.25879 -0.44627,0.8531 -0.66146,1.06306 -0.18964,0.18504 -1.09478,0.82618 -1.46465,0.99219 -0.32208,0.14456 -2.13865,0.52884 -2.57497,0.56696 -0.37415,-0.003 -0.68508,0 -0.68508,0 0,0 0.58796,-0.44819 0.66438,-0.57246 0.0764,-0.12427 0.34139,-0.36694 0.68216,-0.70321 0.27167,-0.26808 0.87218,-1.14395 1.08668,-1.5119 0.11895,-0.20403 0.38355,-0.89865 0.68508,-1.27567 0.30512,-0.3815 1.15852,-0.37428 1.3938,-0.30711 z"
           sodipodi:nodetypes="cssssscccssssc" />
        <path
           style="fill:#00001a;fill-opacity:1;stroke:none;stroke-width:1.3463732px;stroke-linecap:butt;stroke-linejoin:miter;stroke-opacity:1"
           d="m 133.47945,133.54258 c 0.20569,-0.073 0.3936,-0.19556 0.54334,-0.35435 0.17867,-0.18946 0.302,-0.42999 0.35435,-0.68509 0.0479,-0.23358 0.0369,-0.47804 -0.0236,-0.7087 -0.10709,-0.40847 -0.3634,-0.76393 -0.66146,-1.06306 -0.41848,-0.41997 -0.92541,-0.74578 -1.46465,-0.99219 -0.80539,-0.36803 -1.68949,-0.56269 -2.57497,-0.56696 h -0.68508 c 0.2302,0.18035 0.45198,0.37145 0.66438,0.57246 0.23725,0.22453 0.46266,0.4613 0.68216,0.70321 0.41862,0.46136 0.82055,0.94864 1.08669,1.5119 0.10378,0.21965 0.18595,0.44893 0.28755,0.6696 0.1016,0.22067 0.22473,0.43531 0.39753,0.60607 0.17846,0.17636 0.4075,0.30094 0.65252,0.35493 0.24502,0.054 0.50522,0.0372 0.74127,-0.0478 z"
           id="path1056-1-5-2-4"
           inkscape:connector-curvature="0"
           inkscape:path-effect="#path-effect1058-1-4-6-1"
           inkscape:original-d="m 133.47945,133.54258 c 0.22062,-0.063 0.37695,-0.21684 0.54334,-0.35435 0.19818,-0.16378 0.31063,-0.43209 0.35435,-0.68509 0.0451,-0.26118 0.0198,-0.52674 -0.0236,-0.7087 -0.0618,-0.25879 -0.44627,-0.8531 -0.66146,-1.06306 -0.18964,-0.18504 -1.09478,-0.82618 -1.46465,-0.99219 -0.32208,-0.14456 -2.13865,-0.52884 -2.57497,-0.56696 -0.37415,0.003 -0.68508,0 -0.68508,0 0,0 0.58796,0.44819 0.66438,0.57246 0.0764,0.12427 0.34139,0.36694 0.68216,0.70321 0.27167,0.26808 0.87219,1.14395 1.08669,1.5119 0.11894,0.20403 0.38354,0.89865 0.68508,1.27567 0.30511,0.3815 1.15851,0.37428 1.39379,0.30711 z"
           sodipodi:nodetypes="cssssscccssssc" />
        <path
           style="fill:#00001a;fill-opacity:1;stroke:none;stroke-width:1.3463732px;stroke-linecap:butt;stroke-linejoin:miter;stroke-opacity:1"
           d="m 104.36831,162.18985 c -0.22406,0.57018 -0.44142,1.14299 -0.65204,1.71827 -0.11164,0.30492 -0.22139,0.61058 -0.32374,0.91874 -0.11032,0.33216 -0.21217,0.66778 -0.28261,1.01062 -0.0694,0.33797 -0.10789,0.68892 -0.0405,1.02731 0.0572,0.28715 0.19141,0.55903 0.38718,0.77675 0.0965,0.10732 0.20848,0.20212 0.33653,0.26871 0.213,0.11077 0.46168,0.13859 0.70078,0.11693 0.3329,-0.0302 0.6633,-0.15842 0.90045,-0.39399 0.19416,-0.19286 0.3184,-0.45002 0.37246,-0.71829 0.0648,-0.32175 0.0322,-0.65594 -0.035,-0.9772 -0.0823,-0.39345 -0.21559,-0.77418 -0.35117,-1.1526 -0.15626,-0.43615 -0.31614,-0.87103 -0.48377,-1.30293 -0.16841,-0.4339 -0.34463,-0.86477 -0.52856,-1.29232 z"
           id="path1162"
           inkscape:connector-curvature="0"
           inkscape:path-effect="#path-effect1164"
           inkscape:original-d="m 104.36831,162.18985 c 0,0 -0.42536,1.18347 -0.65204,1.71827 -0.22669,0.53481 -0.20999,0.61224 -0.32374,0.91874 -0.11375,0.30651 -0.28086,0.68185 -0.28261,1.01062 -0.002,0.34073 -0.0431,0.65398 -0.0405,1.02731 0.002,0.37333 0.25543,0.54263 0.38718,0.77675 0.13175,0.23413 0.17616,0.14594 0.33653,0.26871 0.16036,0.12276 0.47302,0.0777 0.70078,0.11693 0.22776,0.0392 0.7151,-0.14278 0.90045,-0.39399 0.19085,-0.25865 0.3124,-0.44849 0.37246,-0.71829 0.0557,-0.25038 0.0542,-0.6429 -0.035,-0.9772 -0.0899,-0.33661 -0.21993,-0.76866 -0.35117,-1.1526 -0.13124,-0.38393 -0.30847,-0.91771 -0.48377,-1.30293 -0.16206,-0.3561 -0.52856,-1.29232 -0.52856,-1.29232 z"
           sodipodi:nodetypes="cssssssssssssc" />
        <path
           style="fill:#00001a;fill-opacity:1;stroke:none;stroke-width:1.3463732px;stroke-linecap:butt;stroke-linejoin:miter;stroke-opacity:1"
           d="m 104.36746,98.420395 c -0.2224,-0.570196 -0.43809,-1.143006 -0.64703,-1.71827 -0.11075,-0.304932 -0.21962,-0.61059 -0.32107,-0.91874 -0.10937,-0.3322 -0.21026,-0.667834 -0.27966,-1.01062 -0.0685,-0.338133 -0.1058,-0.689145 -0.0375,-1.02731 0.058,-0.287313 0.19311,-0.559102 0.38944,-0.77675 0.0968,-0.107313 0.20903,-0.202115 0.3373,-0.26871 0.21316,-0.110674 0.46192,-0.138588 0.70112,-0.11693 0.33258,0.03011 0.66273,0.158303 0.89931,0.39399 0.19365,0.192927 0.31711,0.450174 0.37037,0.71829 0.064,0.321963 0.0303,0.656102 -0.0379,0.9772 -0.0835,0.393527 -0.21787,0.774225 -0.35453,1.1526 -0.15753,0.43616 -0.31868,0.871041 -0.48757,1.30293 -0.16968,0.433916 -0.34716,0.864782 -0.53232,1.29232 z"
           id="path1162-0"
           inkscape:connector-curvature="0"
           inkscape:path-effect="#path-effect1164-8"
           inkscape:original-d="m 104.36746,98.420395 c 0,0 -0.42191,-1.18347 -0.64703,-1.71827 -0.22513,-0.53481 -0.20821,-0.61224 -0.32107,-0.91874 -0.11286,-0.30651 -0.27888,-0.68185 -0.27966,-1.01062 -8.2e-4,-0.34073 -0.0412,-0.65398 -0.0375,-1.02731 0.004,-0.37333 0.257,-0.54263 0.38944,-0.77675 0.13243,-0.23413 0.17658,-0.14594 0.3373,-0.26871 0.16072,-0.122759 0.47325,-0.0777 0.70112,-0.11693 0.22788,-0.0392 0.7147,0.14278 0.89931,0.39399 0.1901,0.25865 0.3111,0.448491 0.37037,0.71829 0.055,0.25038 0.0524,0.6429 -0.0379,0.9772 -0.0909,0.33661 -0.22217,0.76866 -0.35453,1.1526 -0.13236,0.38393 -0.31114,0.91771 -0.48757,1.30293 -0.16309,0.3561 -0.53232,1.29232 -0.53232,1.29232 z"
           sodipodi:nodetypes="cssssssssssssc" />
        <path
           style="fill:#00001a;fill-opacity:1;stroke:none;stroke-width:1.3463732px;stroke-linecap:butt;stroke-linejoin:miter;stroke-opacity:1"
           d="m 77.523656,128.4866 c -0.570213,-0.22013 -1.143023,-0.43354 -1.71827,-0.64016 -0.304944,-0.10953 -0.61061,-0.21717 -0.91874,-0.31739 -0.332253,-0.10807 -0.667913,-0.20763 -1.01062,-0.27562 -0.33835,-0.0671 -0.689451,-0.10295 -1.02731,-0.0334 -0.287538,0.0592 -0.5592,0.19544 -0.77675,0.39255 -0.107306,0.0972 -0.202108,0.2098 -0.26871,0.33838 -0.110539,0.2134 -0.13858,0.46224 -0.11693,0.70159 0.03004,0.33214 0.158133,0.66196 0.39399,0.89773 0.193028,0.19296 0.450391,0.31531 0.71829,0.36749 0.322254,0.0628 0.656317,0.0276 0.9772,-0.0418 0.393641,-0.0852 0.774283,-0.22099 1.1526,-0.35914 0.436177,-0.15928 0.87106,-0.32217 1.30293,-0.49278 0.433938,-0.17143 0.864803,-0.35063 1.29232,-0.53749 z"
           id="path1162-02"
           inkscape:connector-curvature="0"
           inkscape:path-effect="#path-effect1164-81"
           inkscape:original-d="m 77.523656,128.4866 c 0,0 -1.18347,-0.41718 -1.71827,-0.64016 -0.53481,-0.22299 -0.61224,-0.20576 -0.91874,-0.31739 -0.30651,-0.11163 -0.68185,-0.27615 -1.01062,-0.27562 -0.34073,5.5e-4 -0.65398,-0.0386 -1.02731,-0.0334 -0.37333,0.005 -0.54263,0.25918 -0.77675,0.39255 -0.23413,0.13337 -0.14594,0.17717 -0.26871,0.33838 -0.12276,0.16121 -0.0777,0.47356 -0.11693,0.70159 -0.0392,0.22803 0.14278,0.71412 0.39399,0.89773 0.25865,0.18906 0.44849,0.3093 0.71829,0.36749 0.25038,0.054 0.6429,0.0498 0.9772,-0.0418 0.33661,-0.0922 0.76866,-0.22524 1.1526,-0.35914 0.38393,-0.13389 0.91771,-0.31481 1.30293,-0.49278 0.3561,-0.16452 1.29232,-0.53749 1.29232,-0.53749 z"
           sodipodi:nodetypes="cssssssssssssc" />
        <path
           style="fill:#00001a;fill-opacity:1;stroke:none;stroke-width:1.3463732px;stroke-linecap:butt;stroke-linejoin:miter;stroke-opacity:1"
           d="m 130.87977,128.48652 c 0.57021,0.22013 1.14302,0.43354 1.71827,0.64016 0.30494,0.10953 0.61061,0.21717 0.91874,0.31739 0.33225,0.10807 0.66791,0.20763 1.01062,0.27562 0.33835,0.0671 0.68945,0.10295 1.02731,0.0334 0.28754,-0.0592 0.5592,-0.19544 0.77675,-0.39255 0.10731,-0.0972 0.20211,-0.2098 0.26871,-0.33838 0.11054,-0.2134 0.13858,-0.46224 0.11693,-0.70159 -0.03,-0.33214 -0.15813,-0.66196 -0.39399,-0.89773 -0.19303,-0.19296 -0.45039,-0.31531 -0.71829,-0.36749 -0.32225,-0.0628 -0.65632,-0.0276 -0.9772,0.0418 -0.39364,0.0852 -0.77428,0.22099 -1.1526,0.35914 -0.43618,0.15928 -0.87106,0.32217 -1.30293,0.49278 -0.43394,0.17143 -0.8648,0.35063 -1.29232,0.53749 z"
           id="path1162-9"
           inkscape:connector-curvature="0"
           inkscape:path-effect="#path-effect1164-2"
           inkscape:original-d="m 130.87977,128.48652 c 0,0 1.18347,0.41718 1.71827,0.64016 0.53481,0.22299 0.61224,0.20576 0.91874,0.31739 0.30651,0.11163 0.68185,0.27615 1.01062,0.27562 0.34073,-5.5e-4 0.65398,0.0386 1.02731,0.0334 0.37333,-0.005 0.54263,-0.25918 0.77675,-0.39255 0.23413,-0.13337 0.14594,-0.17717 0.26871,-0.33838 0.12276,-0.16121 0.0777,-0.47356 0.11693,-0.70159 0.0392,-0.22803 -0.14278,-0.71412 -0.39399,-0.89773 -0.25865,-0.18906 -0.44849,-0.30929 -0.71829,-0.36749 -0.25038,-0.054 -0.6429,-0.0498 -0.9772,0.0418 -0.33661,0.0922 -0.76866,0.22524 -1.1526,0.35914 -0.38393,0.13389 -0.91771,0.31481 -1.30293,0.49278 -0.3561,0.16452 -1.29232,0.53749 -1.29232,0.53749 z"
           sodipodi:nodetypes="cssssssssssssc" />
        <path
           style="fill:#00001a;fill-opacity:1;stroke:none;stroke-width:1.3463732px;stroke-linecap:butt;stroke-linejoin:miter;stroke-opacity:1"
           d="m 98.422004,120.20121 2.806326,-0.33409 c 0.67641,3.46621 1.07117,6.98735 1.17909,10.5173 0.0849,2.77719 -0.008,5.55978 -0.2767,8.3252 0.74868,-2.79055 1.1777,-5.66674 1.27596,-8.55431 0.11918,-3.50206 -0.24914,-7.02037 -1.09101,-10.42183 1.11201,0.86987 2.45417,1.44274 3.85158,1.64395 1.28788,0.18544 2.61997,0.0558 3.84794,-0.37439 -1.23184,3.45785 -1.887,7.12038 -1.93029,10.79084 -0.0406,3.44133 0.45612,6.88848 1.46663,10.17836 -1.74867,0.30253 -3.5268,0.43453 -5.30097,0.39352 -1.63182,-0.0377 -3.26023,-0.22172 -4.859325,-0.54908 1.093155,-3.84034 1.506185,-7.87325 1.214175,-11.85545 -0.24468,-3.33676 -0.982834,-6.63693 -2.183026,-9.75997 z"
           id="path1202"
           inkscape:connector-curvature="0"
           inkscape:path-effect="#path-effect1204"
           inkscape:original-d="m 98.422004,120.20121 2.806326,-0.33409 c 0.86523,3.61837 0.83844,7.26648 1.17909,10.5173 0.29891,2.8525 -0.71769,5.81717 -0.2767,8.3252 1.20475,-2.75062 1.16126,-4.72919 1.27596,-8.55431 0.10635,-3.54715 -0.83497,-7.12738 -1.09101,-10.42183 1.41872,1.00459 2.45531,1.43928 3.85158,1.64395 1.10985,0.16269 2.77115,-0.0809 3.84794,-0.37439 -0.96711,3.2918 -1.78732,7.33995 -1.93029,10.79084 -0.0327,4.33855 0.72622,6.55754 1.46663,10.17836 -2.56985,0.14509 -3.73226,0.41487 -5.30097,0.39352 -0.98373,-0.0134 -3.9726,-0.26648 -4.859325,-0.54908 1.293075,-4.02424 1.390035,-8.20805 1.214175,-11.85545 0.0508,-3.94309 -1.536207,-6.615 -2.183026,-9.75997 z"
           sodipodi:nodetypes="ccscscscccscccc" />
        <path
           sodipodi:nodetypes="ccccccscsccccccccccccccccscccccccscccsccsccscsscscccsscsccsssscccccccccccccccsccscccccccccccsccccccccccccccsccccccccccccccccccssccccccccccccscccccccsscccccccccccccsscccsccccsccccccccscccccccccccccccccccccsccccsscccccssccccccccccccsccccccccscccccccccccscccccsccccccccccccccccccccccccsccccccccccccccsccsccccsccccccscsscccccccsccccccccccccccccscccccccsccccccccccc"
           style="fill:#006b19;fill-opacity:1;stroke:none;stroke-width:0.25443271;stroke-linecap:butt;stroke-linejoin:miter;stroke-miterlimit:4;stroke-dasharray:none;stroke-opacity:1"
           d="m 13.034687,63.103715 c -2.240373,0.06191 -4.4438677,1.017479 -6.0828318,2.557467 -1.723009,1.618954 -2.8521739,3.919644 -2.8349707,6.283854 0.012409,1.706161 0.6227445,3.402206 1.7006729,4.724776 -1.8842461,-0.277569 -3.8429856,-0.02936 -5.59862562,0.709001 -1.48817278,0.625859 -2.83438858,1.606386 -3.83645828,2.872177 -1.0020697,1.265788 -1.6516006,2.818299 -1.7859375,4.427119 -0.1224042,1.4659 0.1917118,2.979452 0.9684173,4.228682 0.6701288,1.07782 1.6751909,1.941775 2.8349681,2.457215 1.33654268,0.594 2.8409556,0.722944 4.2994791,0.613915 1.1468708,-0.0857 2.3199354,-0.329308 3.2597486,-0.992188 1.0289302,-0.725738 1.6681027,-1.869572 2.2680798,-2.976562 0.1056904,-0.195008 0.2120053,-0.391099 0.3472656,-0.566891 0.1352603,-0.175789 0.3021357,-0.331917 0.5033275,-0.425296 0.2002393,-0.0929 0.4289292,-0.119627 0.6469882,-0.08526 0.2180643,0.0344 0.4251748,0.128863 0.6004828,0.263033 0.340532,0.26062 0.557382,0.675923 0.576191,1.104323 0.01881,0.428411 -0.160592,0.861891 -0.476973,1.151353 0.387046,-0.187532 0.713243,-0.497716 0.920872,-0.874366 0.142071,-0.25772 0.229272,-0.546023 0.247531,-0.839743 0.01826,-0.293708 -0.03288,-0.592259 -0.152961,-0.860927 -0.12877,-0.288081 -0.335476,-0.539536 -0.586528,-0.730705 C 10.60237,85.953525 10.308002,85.821829 10.000763,85.749878 9.388538,85.606498 8.7228093,85.707106 8.1802018,86.024796 8.1095025,85.687876 8.0144642,85.356019 7.8964997,85.032609 7.5520043,84.088149 7.0037427,83.212 6.2666241,82.52837 5.3867575,81.71235 4.2432601,81.185279 3.0513175,81.046288 1.8593722,80.907299 0.62525769,81.157407 -0.41875638,81.74909 c 0.43311233,0.160829 0.82273245,0.435882 1.11931184,0.79013 0.2965794,0.354251 0.49919464,0.786628 0.58136104,1.241269 0.085339,0.472231 0.042392,0.957384 -0.00362,1.435055 -0.046001,0.477668 -0.094784,0.96153 -0.020161,1.435571 0.06876,0.43678 0.2437474,0.856766 0.5100479,1.209744 0.2662978,0.35297 0.6238796,0.63746 1.0304277,0.811321 0.4065482,0.17386 0.8611976,0.236077 1.2986279,0.171566 0.437433,-0.0645 0.856152,-0.256445 1.1864922,-0.550354 0.4804066,-0.427429 0.7534593,-1.069536 0.7565417,-1.712558 0.00159,-0.321519 -0.05914,-0.641321 -0.1596787,-0.946711 C 5.78005,85.328733 5.6399664,85.038242 5.4987001,84.749422 L 4.9669484,83.662668 c 0.7488158,0.504388 1.3091663,1.282498 1.5492598,2.15284 0.2400935,0.870339 0.1579562,1.825752 -0.2263431,2.642732 -0.2384161,0.506849 -0.5918676,0.962065 -1.0392119,1.299144 -0.7352374,0.554001 -1.679149,0.761622 -2.5988089,0.803053 -1.3784765,0.0621 -2.78891733,-0.229066 -3.96875,-0.944645 -1.0469165,-0.63496 -1.903087,-1.619025 -2.2675611,-2.787943 -0.3631195,-1.164572 -0.2233031,-2.442448 0.1891347,-3.590478 0.3662707,-1.019522 0.9449462,-1.964232 1.7006729,-2.740403 1.0385901,-1.066689 2.41100235,-1.803993 3.8741826,-2.078943 1.5812637,-0.29714 3.2413124,-0.05598 4.7247756,0.566891 1.3752327,0.577469 2.6059924,1.474396 3.638021,2.551266 1.144688,1.19443 2.048978,2.6079 2.7404,4.11086 0.735878,1.5996 1.233626,3.298042 1.653646,5.007962 0.533728,2.172819 0.947037,4.381545 1.086755,6.614584 0.129432,2.068621 0.02207,4.155642 -0.378272,6.189282 -0.30611,1.55501 -0.785971,3.08277 -1.515668,4.48965 -1.006245,1.94007 -2.529803,3.66393 -4.4974009,4.61522 -1.5356946,0.74248 -3.2910118,0.98751 -4.986774,0.80306 -2.8776586,-0.31301 -5.62707097,-1.92048 -7.15822,-4.377 -1.1602667,-1.86149 -1.5945987,-4.18781 -1.0650511,-6.31641 0.3915966,-1.57408 1.2929129,-3.007241 2.4995875,-4.09122 1.54072168,-1.38406 3.6115175,-2.201712 5.6802734,-2.103232 1.153279,0.0549 2.3338313,0.413124 3.1631149,1.216465 0.5774928,0.559429 0.9534842,1.305991 1.1436006,2.08721 0.2529469,1.039417 0.1848061,2.154657 -0.1932702,3.155367 -0.3780764,1.00072 -1.0644346,1.88295 -1.9414834,2.49545 0.9419828,-1.05875 1.4776106,-2.47049 1.4748457,-3.88762 C 8.246816,100.74252 8.0615045,99.908026 7.5481864,99.290136 7.191028,98.860218 6.6887774,98.557688 6.1472388,98.419387 5.6056976,98.281098 5.0275724,98.304198 4.491008,98.460728 3.6453944,98.70737 2.8949249,99.30326 2.5180022,100.09939 c -0.2379001,0.5025 -0.3245697,1.06671 -0.3183255,1.62264 0.00619,0.55594 0.102608,1.10649 0.2170403,1.65055 0.2288646,1.08812 0.5324607,2.20049 0.3415824,3.29592 -0.1821789,1.0455 -0.8342656,1.99993 -1.742014,2.54971 1.6197156,0.33419 3.3420658,0.15107 4.8555169,-0.51573 1.5134536,-0.66679 2.8111449,-1.81418 3.6576581,-3.23494 0.7944246,-1.33334 1.1907126,-2.91502 1.0340476,-4.45916 -0.139785,-1.377751 -0.7323538,-2.722658 -1.7296107,-3.683497 -0.1479576,-0.142552 -0.304165,-0.276601 -0.4676722,-0.401011 0.8926645,-0.0691 1.7672659,-0.360952 2.5228419,-0.841293 1.256009,-0.798478 2.161947,-2.127826 2.445329,-3.588927 -0.660889,-0.0529 -1.317717,-0.154599 -1.963703,-0.303858 -0.799602,-0.184751 -1.5918998,-0.44359 -2.4122563,-0.466122 -0.8712518,-0.02389 -1.7479539,0.22927 -2.4722005,0.714169 -0.7242466,0.484891 -1.292688,1.199171 -1.602486,2.013831 1.0028476,0.34852 2.0652713,0.524687 3.126941,0.519348 1.0302108,-0.005 2.0592388,-0.181158 3.0323738,-0.519348 -0.313264,0.340191 -0.694851,0.616929 -1.1151791,0.80977 -0.4875107,0.223661 -1.0231385,0.332971 -1.5590785,0.3545 -1.345819,0.0541 -2.6520139,-0.43057 -3.9920041,-0.566891 -1.6493781,-0.167788 -3.3501277,0.210934 -4.77231868,1.062985 -2.46264372,1.344501 -4.29021602,3.799533 -4.87205332,6.544304 -0.6140741,2.89684 0.1802633,6.05912 2.0903115,8.32197 1.3945235,1.86893 3.39718117,3.27657 5.6280817,3.95532 1.5410232,0.46886 3.1851917,0.59418 4.7795523,0.36483 -0.4062624,0.38995 -0.7660825,0.82869 -1.0691865,1.30328 -0.4108371,0.64328 -0.716325,1.35165 -0.9182894,2.08773 -0.324059,1.18107 -0.3794548,2.43262 -0.1839674,3.64164 0.1037854,0.64188 0.2775691,1.2733 0.5343339,1.87068 0.4082151,0.94973 1.0218976,1.8031 1.7363281,2.55024 0.686869,0.71831 1.4748934,1.34738 2.3621286,1.79524 1.3883379,0.70078 2.9861009,0.93538 4.5356409,0.80305 1.511247,-0.12906 2.992213,-0.60081 4.299479,-1.36994 1.250842,-0.92556 2.140802,-2.32673 2.446364,-3.85248 0.30557,-1.52575 0.02381,-3.16153 -0.774115,-4.4974 -0.65753,-1.10079 -1.655908,-1.99343 -2.819464,-2.53215 -1.145119,-0.53018 -2.446239,-0.71725 -3.69435,-0.53123 -1.248111,0.18602 -2.438374,0.74489 -3.379121,1.58595 0.831252,0.0717 1.623896,0.51262 2.122868,1.18132 0.352383,0.47225 0.555612,1.03743 0.732772,1.59939 0.17716,0.56196 0.335058,1.1353 0.612365,1.65519 0.282617,0.52985 0.689808,0.99627 1.192691,1.32447 0.502886,0.3282 1.102389,0.51452 1.702739,0.50074 0.600351,-0.0138 1.198613,-0.23222 1.648995,-0.62941 0.450382,-0.3972 0.744294,-0.9743 0.774113,-1.57407 0.01971,-0.39568 -0.0727,-0.7923 -0.235644,-1.15342 -0.16292,-0.36112 -0.394869,-0.68812 -0.657841,-0.98443 -0.689195,-0.77658 -1.602978,-1.35158 -2.601391,-1.6366 1.150305,-0.0438 2.310421,0.42994 3.10162,1.26608 0.791199,0.83614 1.200206,2.0206 1.092957,3.16673 -0.0732,0.78207 -0.37677,1.53648 -0.83561,2.17402 -0.45884,0.63756 -1.070001,1.15951 -1.752865,1.54771 -1.111033,0.6316 -2.407589,0.90749 -3.685045,0.86972 -1.566378,-0.0463 -3.131087,-0.56992 -4.3465059,-1.55908 -0.9255601,-0.75326 -1.6376306,-1.76847 -2.0226152,-2.89801 -0.384982,-1.12954 -0.4407112,-2.36981 -0.1508945,-3.52744 0.2679356,-1.07022 0.8240262,-2.05818 1.5466748,-2.89181 0.7226485,-0.83363 1.6086558,-1.51675 2.5636698,-2.06912 1.886974,-1.09141 4.03162,-1.674 6.189284,-1.98438 1.758283,-0.25293 3.536331,-0.28002 5.315968,-0.27177 v -1.81339 c -0.822602,-0.0102 -1.283943,-0.0176 -1.925994,-0.006 -0.765358,0.0142 -1.529453,0.0673 -2.291332,0.14159 -0.327919,0.032 -0.656582,0.0681 -0.985985,0.0615 -0.329406,-0.007 -0.661736,-0.0573 -0.962734,-0.1912 -0.254265,-0.11318 -0.487096,-0.29075 -0.626317,-0.53175 -0.09932,-0.17193 -0.147936,-0.37051 -0.154514,-0.56896 -0.0066,-0.19845 0.02771,-0.39664 0.08578,-0.58652 0.116136,-0.37975 0.324596,-0.72364 0.505912,-1.07694 0.570635,-1.11191 0.881224,-2.33857 1.110009,-3.56722 0.399727,-2.14669 0.562327,-4.33938 0.449069,-6.520021 -0.219202,-4.220389 -1.461677,-8.321034 -2.929538,-12.284003 -0.356322,-0.962012 -0.72618,-1.91874 -1.110009,-2.87011 2.306302,0.0822 4.615532,0.07812 6.921542,-0.01188 0.638138,-0.0249 1.276089,-0.03893 1.913578,-0.07703 v -1.741982 c -0.987374,0.02873 -1.852401,-0.05999 -2.763655,-0.11834 -1.41892,-0.10381 -2.815743,-0.404231 -4.20543,-0.708999 C 13.641712,79.348676 11.605225,78.884443 9.8338344,77.851142 8.4567391,77.047843 7.2596291,75.888384 6.5735698,74.449283 6.0931685,73.441573 5.8724531,72.311725 5.9379481,71.197287 c 0.0655,-1.11443 0.4172056,-2.210874 1.0123434,-3.155365 0.81416,-1.00008 1.8344727,-1.831848 2.978113,-2.427759 1.7458395,-0.909693 3.8329555,-1.253654 5.7185135,-0.687813 0.942777,0.282921 1.821939,0.789416 2.514574,1.4888 0.692631,0.69937 1.194297,1.592545 1.396298,2.555914 0.14859,0.70866 0.134697,1.451954 -0.04909,2.152325 -0.183761,0.70037 -0.53803,1.356897 -1.029912,1.888257 -0.684024,0.738928 -1.634167,1.225788 -2.633429,1.349788 -0.999266,0.12401 -2.039655,-0.116271 -2.883546,-0.665591 1.049359,0.292999 2.195991,0.224358 3.202906,-0.19172 0.45789,-0.189212 0.891754,-0.451641 1.232482,-0.811321 0.34073,-0.35968 0.584316,-0.821709 0.634071,-1.314649 0.05359,-0.53092 -0.123677,-1.075182 -0.453721,-1.494483 -0.330041,-0.419298 -0.805582,-0.715018 -1.3193,-0.859379 -0.513715,-0.14436 -1.06349,-0.141568 -1.584399,-0.02582 -0.520909,0.11575 -1.013782,0.341815 -1.461926,0.631487 -0.512709,0.331409 -0.975765,0.749217 -1.535824,0.992187 -0.449763,0.19512 -0.951299,0.269105 -1.438153,0.211357 -0.4868547,-0.0577 -0.9576411,-0.247147 -1.349272,-0.542086 0.1998213,1.957909 1.400844,3.787195 3.118154,4.748546 1.001218,0.56048 2.161125,0.83286 3.307292,0.779282 1.491332,-0.0697 2.951914,-0.700788 4.016293,-1.747697 0.816541,-0.80314 1.400564,-1.849834 1.606103,-2.976562 0.24584,-1.347621 -0.05667,-2.76392 -0.708483,-3.96875 C 19.616515,65.995943 18.702319,65.034169 17.61631,64.347075 16.530299,63.659981 15.275369,63.24689 13.995342,63.13268 13.675333,63.10413 13.35473,63.0949 13.034677,63.10374 Z m 19.158521,0 c -0.320056,-0.0088 -0.640659,2.64e-4 -0.960665,0.02894 -1.28002,0.11421 -2.53496,0.527301 -3.620968,1.214395 -1.086009,0.687094 -2.000208,1.648867 -2.611726,2.779159 -0.651812,1.204831 -0.954326,2.62113 -0.708486,3.96875 0.205542,1.126728 0.789565,2.173423 1.606103,2.976563 1.064382,1.046908 2.524964,1.677995 4.016293,1.747697 1.14617,0.05358 2.306071,-0.218802 3.307292,-0.779283 1.71731,-0.96135 2.918335,-2.790637 3.118157,-4.748545 -0.391631,0.294939 -0.862423,0.484285 -1.349272,0.542086 -0.48686,0.05775 -0.988396,-0.01624 -1.438156,-0.211357 -0.560059,-0.24297 -1.023112,-0.660779 -1.535824,-0.992188 -0.448138,-0.289671 -0.940499,-0.515747 -1.461408,-0.631486 -0.520901,-0.115739 -1.071208,-0.118523 -1.584917,0.02582 -0.513721,0.144362 -0.988743,0.440082 -1.318782,0.85938 -0.330041,0.419312 -0.50732,0.963562 -0.45372,1.494483 0.04975,0.49294 0.293341,0.954969 0.634071,1.314649 0.34072,0.35968 0.774076,0.622109 1.231966,0.811321 1.006909,0.416089 2.153544,0.484719 3.202906,0.191719 -0.843891,0.54932 -1.884275,0.789591 -2.883546,0.665592 -0.99926,-0.124011 -1.94941,-0.61086 -2.633432,-1.349788 -0.491879,-0.53136 -0.846151,-1.187887 -1.029909,-1.888257 -0.18379,-0.700371 -0.197684,-1.443665 -0.04909,-2.152325 0.201999,-0.963369 0.703668,-1.856536 1.396296,-2.555915 0.692643,-0.699375 1.571797,-1.205878 2.514577,-1.488799 1.88555,-0.565841 3.973189,-0.22188 5.719029,0.687813 1.14364,0.595911 2.163437,1.427679 2.977597,2.427759 0.595141,0.944491 0.947359,2.040934 1.01286,3.155365 0.0655,1.114438 -0.155739,2.244286 -0.636138,3.251996 -0.686059,1.439101 -1.882651,2.59856 -3.259749,3.401859 -1.77139,1.033301 -3.808394,1.497534 -5.811533,1.936835 -1.38969,0.304768 -2.785991,0.605189 -4.204912,0.708998 -0.920067,0.06732 -1.780804,0.118362 -2.764184,0.118362 l -0.0036,1.740749 c 0.6638,-0.0087 1.279575,0.05334 1.917713,0.07824 2.306011,0.09 4.615241,0.09409 6.921542,0.01188 -0.383831,0.95137 -0.754205,1.908098 -1.110527,2.87011 -1.467858,3.962969 -2.70982,8.063613 -2.92902,12.284003 -0.11326,2.18064 0.04882,4.373335 0.448551,6.520015 0.22879,1.22866 0.539898,2.45532 1.110528,3.56723 0.181319,0.3533 0.389771,0.69719 0.505912,1.07693 0.058,0.18988 0.09278,0.38808 0.08578,0.58653 -0.0066,0.19845 -0.05521,0.39703 -0.154514,0.56896 -0.139218,0.24099 -0.372046,0.41857 -0.626316,0.53175 -0.301001,0.13393 -0.633333,0.1842 -0.962734,0.1912 -0.329409,0.007 -0.658067,-0.0295 -0.985986,-0.0615 -0.761881,-0.0742 -1.525974,-0.1274 -2.291331,-0.14159 -0.642051,-0.0119 -1.284767,-0.005 -1.925466,0.006 v 1.81339 c 1.767943,-0.0258 3.557159,0.0188 5.31544,0.27176 2.157658,0.31038 4.302305,0.89296 6.189284,1.98437 0.955011,0.55237 1.841018,1.2355 2.563669,2.06913 0.722649,0.83364 1.278734,1.82159 1.546675,2.89181 0.289819,1.15762 0.234085,2.39789 -0.150894,3.52743 -0.384982,1.12954 -1.097055,2.14476 -2.022616,2.89802 -1.215421,0.98916 -2.780125,1.51278 -4.346506,1.55908 -1.27745,0.0378 -2.574533,-0.23812 -3.685563,-0.86972 -0.682858,-0.3882 -1.293506,-0.91016 -1.752346,-1.54771 -0.458841,-0.63755 -0.762408,-1.39194 -0.83561,-2.17402 -0.107249,-1.14613 0.301757,-2.3306 1.092957,-3.16674 0.791202,-0.83614 1.95131,-1.30987 3.10162,-1.26607 -0.998421,0.28502 -1.912191,0.86001 -2.601391,1.63659 -0.26297,0.29631 -0.494922,0.62333 -0.657842,0.98444 -0.162949,0.36112 -0.255344,0.75774 -0.235646,1.15342 0.02982,0.59977 0.323734,1.17686 0.774116,1.57406 0.450389,0.39719 1.048644,0.61562 1.648994,0.62942 0.60035,0.0138 1.199848,-0.17255 1.702739,-0.50074 0.502878,-0.32822 0.910072,-0.79462 1.192692,-1.32447 0.27731,-0.51989 0.435205,-1.09323 0.612365,-1.6552 0.177159,-0.56196 0.380391,-1.12713 0.732771,-1.59938 0.49897,-0.6687 1.291619,-1.10963 2.122869,-1.18133 -0.94075,-0.84104 -2.131013,-1.39992 -3.379124,-1.58594 -1.248108,-0.18603 -2.549226,0.001 -3.694348,0.53123 -1.163558,0.53872 -2.162453,1.43135 -2.819982,2.53214 -0.797938,1.33587 -1.079156,2.97165 -0.773596,4.4974 0.305562,1.52575 1.194995,2.92692 2.445845,3.85248 1.307272,0.76914 2.788229,1.24088 4.299479,1.36994 1.54954,0.13233 3.147827,-0.10226 4.536159,-0.80305 0.887238,-0.44785 1.67526,-1.07693 2.362129,-1.79524 0.714431,-0.74714 1.327592,-1.6005 1.735812,-2.55023 0.25677,-0.59738 0.431059,-1.22881 0.53485,-1.87069 0.19549,-1.20902 0.140092,-2.46056 -0.183967,-3.64164 -0.201962,-0.73607 -0.507969,-1.44444 -0.918808,-2.08772 -0.303099,-0.47459 -0.662408,-0.91334 -1.068668,-1.30328 1.59436,0.22935 3.238524,0.10402 4.779552,-0.36484 2.230901,-0.67875 4.23355,-2.08638 5.628082,-3.95531 1.910048,-2.26285 2.704391,-5.42513 2.090311,-8.32197 -0.58184,-2.744778 -2.409415,-5.199809 -4.872053,-6.544311 -1.422191,-0.852051 -3.122941,-1.230773 -4.772319,-1.062984 -1.33999,0.136321 -2.646185,0.62099 -3.992004,0.566891 -0.53594,-0.02154 -1.072086,-0.13084 -1.559597,-0.3545 -0.42033,-0.192841 -0.801399,-0.46958 -1.11466,-0.80977 0.973129,0.33819 2.002163,0.514347 3.032373,0.519348 1.06167,0.0053 2.124091,-0.170829 3.126941,-0.519348 -0.3098,-0.81466 -0.878236,-1.52894 -1.602486,-2.013831 -0.724241,-0.4849 -1.600951,-0.738069 -2.4722,-0.714169 -0.820359,0.02254 -1.612657,0.281371 -2.412257,0.466122 -0.64599,0.149259 -1.302813,0.250957 -1.963703,0.303858 0.28339,1.4611 1.189329,2.790449 2.445327,3.588927 0.755581,0.480341 1.630175,0.772195 2.522844,0.841293 -0.163509,0.12441 -0.320227,0.258458 -0.468188,0.401011 -0.997259,0.960829 -1.589312,2.305745 -1.729094,3.683493 -0.15666,1.54414 0.239625,3.12582 1.034047,4.45916 0.846508,1.42076 2.143681,2.56866 3.65714,3.23546 1.513451,0.66679 3.235809,0.84941 4.855517,0.51522 -0.907749,-0.54978 -1.559833,-1.50422 -1.742012,-2.54972 -0.190881,-1.09543 0.113239,-2.20779 0.342099,-3.29592 0.11444,-0.54406 0.211039,-1.0946 0.21704,-1.65054 0.0062,-0.55593 -0.08094,-1.12014 -0.318844,-1.62264 -0.37692,-0.796137 -1.126869,-1.392026 -1.97249,-1.638668 -0.536559,-0.15653 -1.11469,-0.179631 -1.656228,-0.04134 -0.541541,0.1383 -1.044305,0.44083 -1.401466,0.870749 -0.513318,0.61789 -0.697699,1.452389 -0.699699,2.255679 -0.0028,1.41714 0.532855,2.82836 1.474846,3.8871 -0.877049,-0.6125 -1.563402,-1.49423 -1.941484,-2.49494 -0.378068,-1.00071 -0.446219,-2.11594 -0.19327,-3.155362 0.190111,-0.781219 0.566111,-1.527781 1.143601,-2.087211 0.829278,-0.803341 2.009317,-1.161563 3.162596,-1.216464 2.068761,-0.09848 4.139554,0.719172 5.680273,2.103231 1.20668,1.08399 2.108507,2.517136 2.500107,4.091226 0.529539,2.1286 0.09522,4.45492 -1.065052,6.31641 -1.531149,2.45652 -4.280558,4.06398 -7.15822,4.37699 -1.695759,0.18445 -3.451074,-0.0606 -4.986774,-0.80305 -1.9676,-0.95129 -3.491677,-2.67515 -4.497916,-4.61522 -0.7297,-1.40688 -1.209043,-2.93464 -1.515152,-4.48965 -0.400281,-2.03364 -0.507704,-4.120667 -0.378273,-6.189288 0.139719,-2.233038 0.553025,-4.441764 1.086755,-6.614583 0.420021,-1.70992 0.917766,-3.408362 1.653646,-5.007962 0.69142,-1.50296 1.59571,-2.91643 2.740401,-4.11086 1.032031,-1.07687 2.26279,-1.973797 3.638021,-2.551266 1.48346,-0.622869 3.143517,-0.864031 4.724775,-0.566891 1.46318,0.27495 2.835593,1.012254 3.874183,2.078942 0.755729,0.776171 1.334402,1.720882 1.700673,2.740404 0.412437,1.148029 0.552254,2.425906 0.189134,3.590478 -0.364471,1.168918 -1.221158,2.152983 -2.268079,2.787943 -1.17983,0.715568 -2.590269,1.006745 -3.96875,0.944645 -0.91966,-0.04143 -1.863051,-0.249042 -2.598291,-0.803053 -0.447339,-0.337079 -0.801309,-0.792295 -1.03973,-1.299144 -0.384299,-0.81698 -0.465926,-1.772393 -0.225825,-2.642732 0.240089,-0.870342 0.799934,-1.648452 1.548742,-2.152841 l -0.531234,1.086755 c -0.141268,0.288819 -0.281347,0.579311 -0.381889,0.884701 -0.100509,0.30539 -0.161678,0.625192 -0.159678,0.946711 0.0031,0.643022 0.276132,1.285128 0.756541,1.712557 0.330341,0.29391 0.749062,0.485855 1.186493,0.550355 0.437438,0.06451 0.892077,0.0024 1.298628,-0.171566 0.40654,-0.173861 0.764127,-0.458341 1.030427,-0.811321 0.26629,-0.35297 0.441246,-0.772965 0.510048,-1.209744 0.0746,-0.474041 0.02585,-0.957903 -0.02016,-1.435571 -0.0463,-0.477671 -0.08944,-0.962824 -0.0041,-1.435055 0.08217,-0.454642 0.284779,-0.887018 0.581359,-1.241269 0.296582,-0.35424 0.686718,-0.629301 1.11983,-0.79013 -1.044011,-0.591683 -2.278134,-0.841791 -3.470074,-0.702803 -1.19194,0.138991 -2.335437,0.666073 -3.215306,1.482082 -0.737122,0.683631 -1.285902,1.55978 -1.630392,2.504239 -0.11797,0.323411 -0.212487,0.655267 -0.283186,0.992188 -0.54261,-0.317691 -1.20885,-0.418298 -1.821079,-0.274918 -0.30724,0.07195 -0.601084,0.203647 -0.852144,0.394808 -0.25105,0.19117 -0.458274,0.442625 -0.587044,0.730706 -0.12005,0.268668 -0.171262,0.567219 -0.152961,0.860927 0.01828,0.293719 0.105457,0.582023 0.247528,0.839743 0.207632,0.37665 0.534342,0.686834 0.92139,0.874366 -0.316388,-0.289452 -0.495773,-0.722943 -0.476972,-1.151353 0.01881,-0.428408 0.235146,-0.843704 0.575675,-1.104323 0.17531,-0.134171 0.382421,-0.228635 0.60048,-0.263033 0.218062,-0.03436 0.447265,-0.0076 0.647507,0.08526 0.201189,0.09338 0.368067,0.249508 0.503327,0.425297 0.135271,0.175792 0.24106,0.371882 0.34675,0.566891 0.59998,1.106979 1.239147,2.250823 2.268077,2.976562 0.939811,0.662879 2.112881,0.906489 3.259751,0.992188 1.458519,0.109029 2.962939,-0.01992 4.299479,-0.613916 1.15978,-0.51544 2.16484,-1.379394 2.834969,-2.457214 0.77671,-1.24923 1.090816,-2.762782 0.968417,-4.228682 -0.134342,-1.608831 -0.783868,-3.161332 -1.785938,-4.427119 -1.002069,-1.265791 -2.348288,-2.246318 -3.836458,-2.872177 -1.75564,-0.738362 -3.714377,-0.98657 -5.598626,-0.709001 1.077931,-1.32257 1.688788,-3.018615 1.701189,-4.724776 0.0172,-2.364211 -1.111959,-4.6649 -2.83497,-6.283854 -1.638962,-1.539991 -3.842973,-2.495555 -6.083348,-2.557468 z"
           id="path1479"
           inkscape:connector-curvature="0" />
      </g>
    </g>
  </g>
</svg>
