<?xml version="1.0" encoding="UTF-8" standalone="no"?>
<svg
   xmlns:dc="http://purl.org/dc/elements/1.1/"
   xmlns:cc="http://creativecommons.org/ns#"
   xmlns:rdf="http://www.w3.org/1999/02/22-rdf-syntax-ns#"
   xmlns:svg="http://www.w3.org/2000/svg"
   xmlns="http://www.w3.org/2000/svg"
   xmlns:sodipodi="http://sodipodi.sourceforge.net/DTD/sodipodi-0.dtd"
   xmlns:inkscape="http://www.inkscape.org/namespaces/inkscape"
   width="62.396mm"
   height="14.829mm"
   version="1.1"
   viewBox="0 0 62.396 14.829"
   id="svg64"
   sodipodi:docname="unique_logo_long_last.svg"
   inkscape:version="0.92.3 (unknown)">
  <metadata
     id="metadata70">
    <rdf:RDF>
      <cc:Work
         rdf:about="">
        <dc:format>image/svg+xml</dc:format>
        <dc:type
           rdf:resource="http://purl.org/dc/dcmitype/StillImage" />
        <dc:title></dc:title>
      </cc:Work>
    </rdf:RDF>
  </metadata>
  <defs
     id="defs68" />
  <sodipodi:namedview
     pagecolor="#fbffff"
     bordercolor="#666666"
     borderopacity="1"
     objecttolerance="10"
     gridtolerance="10"
     guidetolerance="10"
     inkscape:pageopacity="0"
     inkscape:pageshadow="2"
     inkscape:window-width="1366"
     inkscape:window-height="743"
     id="namedview66"
     showgrid="false"
     inkscape:zoom="2"
     inkscape:cx="110.09479"
     inkscape:cy="-23.739392"
     inkscape:window-x="0"
     inkscape:window-y="0"
     inkscape:window-maximized="1"
     inkscape:current-layer="g60" />
  <g
     transform="translate(-67.071 -135.48)"
     id="g62">
    <g
       transform="matrix(.25106 0 0 .25106 47.776 114.12)"
       style="stroke-width:3.9831"
       id="g60">
      <text
         x="134.50368"
         y="126.83397"
         style="fill:#a80900;font-family:'Dancing Script';font-size:29.663px;letter-spacing:0px;line-height:1.25;stroke-width:1.0539;word-spacing:0px;fill-opacity:1;"
         xml:space="preserve"
         id="text4"><tspan
           style="font-family:'Century Schoolbook L';font-size:44.495px;stroke-width:1.0539;fill:#a80900;fill-opacity:1;"
           id="tspan2">UNIQUE</tspan></text>
      <circle
         id="circle6"
         style="opacity:0.825;fill:#a80900;fill-opacity:1;stroke-width:3.98312879;paint-order:markers stroke fill"
         r="1.6086873"
         cy="131.3098"
         cx="88.366997" />
      <circle
         id="circle8"
         style="opacity:0.825;fill:#a80900;fill-opacity:1;stroke-width:3.98312879;paint-order:markers stroke fill"
         r="1.6086873"
         cy="131.31761"
         cx="122.42714" />
      <circle
         id="circle10"
         style="opacity:0.825;fill:#a80900;fill-opacity:1;stroke-width:3.98312879;paint-order:markers stroke fill"
         r="1.6086873"
         cy="96.352623"
         cx="88.397514" />
      <circle
         id="circle12"
         style="opacity:0.825;fill:#a80900;fill-opacity:1;stroke-width:3.98312879;paint-order:markers stroke fill"
         r="1.6086873"
         cy="96.352623"
         cx="122.44279" />
      <circle
         id="circle14"
         style="opacity:0.825;fill:#a80900;fill-opacity:1;stroke-width:3.98312879;paint-order:markers stroke fill"
         r="0.95314252"
         cy="128.93025"
         cx="103.84489" />
      <circle
         id="circle16"
         style="opacity:0.825;fill:#a80900;fill-opacity:1;stroke-width:3.98312879;paint-order:markers stroke fill"
         r="0.95314252"
         cy="128.9381"
         cx="106.95238" />
      <circle
         id="circle18"
         style="opacity:0.825;fill:#a80900;fill-opacity:1;stroke-width:3.98312879;paint-order:markers stroke fill"
         r="0.95314252"
         cy="131.31761"
         cx="105.34776" />
      <circle
         id="circle20"
         style="opacity:0.825;fill:#a80900;fill-opacity:1;stroke-width:3.98312879;paint-order:markers stroke fill"
         r="1.2119946"
         cy="98.990456"
         cx="106.96019" />
      <circle
         id="circle22"
         style="opacity:0.825;fill:#a80900;fill-opacity:1;stroke-width:3.98312879;paint-order:markers stroke fill"
         r="1.2119946"
         cy="96.352623"
         cx="105.31645" />
      <circle
         id="circle24"
         style="opacity:0.825;fill:#a80900;fill-opacity:1;stroke-width:3.98312879;paint-order:markers stroke fill"
         r="1.2119946"
         cy="98.990456"
         cx="103.57876" />
      <circle
         id="circle26"
         style="opacity:0.825;fill:#a80900;fill-opacity:1;stroke-width:3.98312879;paint-order:markers stroke fill"
         r="1.2119946"
         cy="115.33407"
         cx="97.216652" />
      <circle
         id="circle28"
         style="opacity:0.825;fill:#a80900;fill-opacity:1;stroke-width:3.98312879;paint-order:markers stroke fill"
         r="1.2119946"
         cy="115.31841"
         cx="113.12036" />
      <path
         inkscape:connector-curvature="0"
         id="path30"
         style="fill:#a80900;fill-opacity:1;stroke-width:3.98312879"
         d="m 101.08103,86.777365 c 0.0567,-0.161189 0.15273,-0.308399 0.27736,-0.425294 0.14897,-0.139038 0.33669,-0.236129 0.53624,-0.277364 0.18279,-0.03778 0.3742,-0.02893 0.55473,0.0185 0.31968,0.08398 0.59793,0.284495 0.83213,0.517752 0.32878,0.327506 0.58378,0.724347 0.77663,1.146479 0.28803,0.630427 0.4404,1.322439 0.44378,2.015555 v 0.53624 c -0.14116,-0.180187 -0.29074,-0.353783 -0.44809,-0.520029 -0.17575,-0.185697 -0.36109,-0.362119 -0.55043,-0.533954 -0.36109,-0.327718 -0.7424,-0.642536 -1.18342,-0.850603 -0.17199,-0.08114 -0.35156,-0.145285 -0.52433,-0.224756 -0.17277,-0.07947 -0.3408,-0.175945 -0.4742,-0.311484 -0.13763,-0.139844 -0.23441,-0.319287 -0.2764,-0.510957 -0.042,-0.19167 -0.0291,-0.394932 0.036,-0.580018 z" />
      <path
         inkscape:connector-curvature="0"
         id="path32"
         style="fill:#a80900;fill-opacity:1;stroke-width:3.98312879"
         d="m 109.3632,86.798499 c -0.0568,-0.161189 -0.15273,-0.308399 -0.27737,-0.425294 -0.14898,-0.139038 -0.33668,-0.236129 -0.53624,-0.277364 -0.1828,-0.03777 -0.3742,-0.02893 -0.55473,0.0185 -0.31968,0.08398 -0.59793,0.284495 -0.83213,0.517752 -0.32878,0.327506 -0.58378,0.724347 -0.77663,1.146479 -0.28803,0.630427 -0.4404,1.322439 -0.44378,2.015555 v 0.53624 c 0.14116,-0.180195 0.29074,-0.353791 0.44809,-0.520037 0.17575,-0.185697 0.36109,-0.362119 0.55043,-0.533954 0.36109,-0.327717 0.7424,-0.642535 1.18342,-0.850603 0.17199,-0.08114 0.35155,-0.145285 0.52432,-0.224756 0.17277,-0.07947 0.3408,-0.175945 0.4742,-0.311484 0.13763,-0.139844 0.23442,-0.319287 0.2764,-0.510957 0.0419,-0.191669 0.0291,-0.394931 -0.036,-0.580018 z" />
      <path
         inkscape:connector-curvature="0"
         id="path34"
         style="fill:#a80900;fill-opacity:1;stroke-width:3.98312879"
         d="m 101.17496,141.08621 c 0.0571,0.16101 0.15307,0.30809 0.27736,0.4253 0.1483,0.13985 0.33657,0.23639 0.53625,0.27736 0.18283,0.0375 0.37418,0.0289 0.55473,-0.0185 0.31972,-0.0838 0.59795,-0.28445 0.83213,-0.51775 0.32872,-0.32756 0.58375,-0.72436 0.77662,-1.1464 0.28807,-0.63041 0.44044,-1.32244 0.44378,-2.01556 v -0.53624 c -0.14116,0.18019 -0.29074,0.35379 -0.44808,0.52004 -0.17575,0.1857 -0.36108,0.36214 -0.55043,0.53395 -0.36113,0.32767 -0.74254,0.64227 -1.18343,0.85061 -0.17193,0.0812 -0.35139,0.14555 -0.52412,0.22507 -0.17273,0.0795 -0.34073,0.17591 -0.47439,0.31117 -0.13805,0.13968 -0.23556,0.31897 -0.27782,0.51076 -0.0423,0.19178 -0.0291,0.39545 0.0374,0.58022 z" />
      <path
         inkscape:connector-curvature="0"
         id="path36"
         style="fill:#a80900;fill-opacity:1;stroke-width:3.98312879"
         d="m 109.45713,141.06273 c -0.0571,0.161 -0.15308,0.30809 -0.27737,0.4253 -0.1483,0.13985 -0.33657,0.23638 -0.53625,0.27736 -0.18283,0.0375 -0.37418,0.0289 -0.55472,-0.0185 -0.31973,-0.0838 -0.59796,-0.28445 -0.83213,-0.51775 -0.32873,-0.32756 -0.58375,-0.72436 -0.77663,-1.1464 -0.28807,-0.63042 -0.44044,-1.32244 -0.44378,-2.01556 v -0.53624 c 0.14117,0.18019 0.29075,0.35378 0.44809,0.52004 0.17574,0.1857 0.36107,0.36214 0.55043,0.53395 0.36112,0.32767 0.74253,0.64228 1.18342,0.8506 0.17193,0.0812 0.3514,0.14556 0.52412,0.22508 0.17273,0.0795 0.34074,0.17591 0.4744,0.31116 0.13804,0.13969 0.23556,0.31897 0.27782,0.51076 0.0423,0.19178 0.0291,0.39545 -0.0374,0.58022 z" />
      <path
         inkscape:connector-curvature="0"
         id="path38"
         style="fill:#a80900;fill-opacity:1;stroke-width:3.98312879"
         d="m 82.309357,108.24244 c -0.161002,0.0571 -0.308086,0.15308 -0.425294,0.27737 -0.139852,0.1483 -0.236387,0.33657 -0.277364,0.53625 -0.03752,0.18283 -0.02886,0.37418 0.01847,0.55472 0.08382,0.31973 0.284448,0.59796 0.517751,0.83213 0.327561,0.32873 0.724355,0.58376 1.146401,0.77663 0.630411,0.28807 1.322439,0.44044 2.015556,0.44378 h 0.536239 c -0.180187,-0.14116 -0.353783,-0.29075 -0.520037,-0.44808 -0.185705,-0.17575 -0.362142,-0.36108 -0.533954,-0.55043 -0.32767,-0.36113 -0.642269,-0.74254 -0.850603,-1.18343 -0.08123,-0.17193 -0.145551,-0.35139 -0.225077,-0.52412 -0.07953,-0.17273 -0.175905,-0.34074 -0.311163,-0.4744 -0.139687,-0.13804 -0.318974,-0.23555 -0.510761,-0.27782 -0.191787,-0.0423 -0.395456,-0.0291 -0.580222,0.0374 z" />
      <path
         inkscape:connector-curvature="0"
         id="path40"
         style="fill:#a80900;fill-opacity:1;stroke-width:3.98312879"
         d="m 82.317184,116.5708 c -0.161001,-0.0571 -0.308086,-0.15307 -0.425293,-0.27737 -0.139853,-0.14829 -0.236388,-0.33657 -0.277364,-0.53624 -0.03753,-0.18284 -0.02886,-0.37418 0.01847,-0.55473 0.08382,-0.31973 0.284448,-0.59796 0.517751,-0.83213 0.327562,-0.32873 0.724356,-0.58375 1.146401,-0.77663 0.630411,-0.28807 1.32244,-0.44044 2.015556,-0.44378 h 0.536239 c -0.180186,0.14117 -0.353782,0.29075 -0.520036,0.44809 -0.185705,0.17574 -0.362143,0.36107 -0.533954,0.55043 -0.327671,0.36112 -0.642278,0.74254 -0.850604,1.18342 -0.08123,0.17193 -0.14555,0.3514 -0.225077,0.52412 -0.07953,0.17273 -0.175905,0.34074 -0.311162,0.4744 -0.139688,0.13804 -0.318967,0.23556 -0.510754,0.27782 -0.191787,0.0423 -0.395448,0.0291 -0.580221,-0.0374 z" />
      <path
         inkscape:connector-curvature="0"
         id="path42"
         style="fill:#a80900;fill-opacity:1;stroke-width:3.98312879"
         d="m 128.10982,108.10155 c 0.161,0.0571 0.30809,0.15307 0.42529,0.27736 0.13985,0.1483 0.23639,0.33658 0.27737,0.53625 0.0375,0.18283 0.0289,0.37418 -0.0185,0.55473 -0.0838,0.31973 -0.28444,0.59796 -0.51775,0.83213 -0.32756,0.32873 -0.72435,0.58375 -1.1464,0.77663 -0.63041,0.28807 -1.32244,0.44044 -2.01555,0.44378 h -0.53624 c 0.18018,-0.14117 0.35378,-0.29075 0.52003,-0.44809 0.18571,-0.17575 0.36215,-0.36108 0.53396,-0.55043 0.32767,-0.36112 0.64227,-0.74254 0.8506,-1.18342 0.0812,-0.17193 0.14555,-0.3514 0.22508,-0.52413 0.0795,-0.17272 0.1759,-0.34073 0.31116,-0.47439 0.13969,-0.13804 0.31897,-0.23556 0.51076,-0.27782 0.19179,-0.0423 0.39546,-0.0291 0.58022,0.0374 z" />
      <path
         inkscape:connector-curvature="0"
         id="path44"
         style="fill:#a80900;fill-opacity:1;stroke-width:3.98312879"
         d="m 128.10199,116.4299 c 0.161,-0.0571 0.30809,-0.15307 0.4253,-0.27736 0.13985,-0.1483 0.23638,-0.33657 0.27736,-0.53625 0.0375,-0.18283 0.0289,-0.37418 -0.0185,-0.55472 -0.0838,-0.31973 -0.28445,-0.59796 -0.51775,-0.83214 -0.32757,-0.32872 -0.72436,-0.58375 -1.14641,-0.77662 -0.63041,-0.28807 -1.32243,-0.44044 -2.01555,-0.44378 h -0.53624 c 0.18019,0.14116 0.35378,0.29074 0.52004,0.44808 0.1857,0.17575 0.36214,0.36108 0.53395,0.55043 0.32767,0.36113 0.64228,0.74254 0.8506,1.18343 0.0812,0.17193 0.14555,0.35139 0.22508,0.52412 0.0795,0.17273 0.17591,0.34074 0.31116,0.4744 0.13969,0.13804 0.31897,0.23555 0.51076,0.27781 0.19178,0.0423 0.39545,0.0291 0.58022,-0.0374 z" />
      <path
         inkscape:connector-curvature="0"
         id="path46"
         style="fill:#a80900;fill-opacity:1;stroke-width:3.98312879"
         d="m 105.31643,138.85541 c -0.17538,0.4463 -0.34551,0.89467 -0.51037,1.34498 -0.0874,0.23867 -0.1733,0.47792 -0.25341,0.71913 -0.0863,0.26 -0.16607,0.5227 -0.22121,0.79104 -0.0543,0.26454 -0.0845,0.53924 -0.0317,0.80411 0.0448,0.22476 0.14982,0.43757 0.30306,0.60799 0.0755,0.084 0.16319,0.15821 0.26342,0.21033 0.16672,0.0867 0.36137,0.10848 0.54853,0.0915 0.26057,-0.0236 0.51919,-0.124 0.70481,-0.30839 0.15198,-0.15096 0.24923,-0.35225 0.29154,-0.56224 0.0507,-0.25185 0.0252,-0.51343 -0.0274,-0.76489 -0.0644,-0.30797 -0.16875,-0.60598 -0.27488,-0.90219 -0.12231,-0.34139 -0.24745,-0.68179 -0.37866,-1.01983 -0.13183,-0.33963 -0.26976,-0.67689 -0.41373,-1.01154 z" />
      <path
         inkscape:connector-curvature="0"
         id="path48"
         style="fill:#a80900;fill-opacity:1;stroke-width:3.98312879"
         d="m 105.31643,88.940076 c -0.17408,-0.446319 -0.34291,-0.894672 -0.50645,-1.344982 -0.0867,-0.238681 -0.17191,-0.477934 -0.25132,-0.719135 -0.0856,-0.260026 -0.16458,-0.522737 -0.2189,-0.791037 -0.0536,-0.264668 -0.0828,-0.539417 -0.0293,-0.804109 0.0454,-0.224889 0.15115,-0.43763 0.30483,-0.607993 0.0758,-0.084 0.16362,-0.158207 0.26402,-0.21033 0.16685,-0.08663 0.36156,-0.10848 0.54879,-0.09153 0.26033,0.02357 0.51875,0.123908 0.70393,0.308392 0.15157,0.151014 0.24821,0.352366 0.2899,0.562234 0.0501,0.252011 0.0237,0.513556 -0.0297,0.764894 -0.0654,0.308031 -0.17053,0.606013 -0.2775,0.902186 -0.1233,0.3414 -0.24944,0.681798 -0.38164,1.019832 -0.13282,0.339646 -0.27174,0.676898 -0.41667,1.011535 z" />
      <path
         inkscape:connector-curvature="0"
         id="path50"
         style="fill:#a80900;fill-opacity:1;stroke-width:3.98312879"
         d="m 94.841647,112.47707 c -0.446326,-0.17231 -0.894672,-0.33935 -1.344982,-0.50108 -0.238689,-0.0857 -0.477949,-0.16999 -0.719135,-0.24844 -0.260065,-0.0846 -0.5228,-0.16252 -0.791037,-0.21573 -0.26484,-0.0525 -0.53966,-0.0806 -0.804109,-0.0262 -0.225069,0.0463 -0.437708,0.15298 -0.607993,0.30727 -0.084,0.0761 -0.1582,0.16422 -0.21033,0.26486 -0.08652,0.16704 -0.108472,0.36181 -0.09153,0.54916 0.02351,0.25998 0.123775,0.51815 0.308392,0.70269 0.151092,0.15104 0.352538,0.24681 0.562234,0.28765 0.252238,0.0492 0.513728,0.0216 0.764894,-0.0327 0.308117,-0.0667 0.60606,-0.17297 0.902186,-0.28111 0.341415,-0.12467 0.681813,-0.25218 1.019832,-0.38572 0.339662,-0.13418 0.676913,-0.27445 1.011535,-0.42071 z" />
      <path
         inkscape:connector-curvature="0"
         id="path52"
         style="fill:#a80900;fill-opacity:1;stroke-width:3.98312879"
         d="m 126.06687,112.47707 c 0.44632,0.1723 0.89467,0.33935 1.34498,0.50108 0.23869,0.0857 0.47795,0.16998 0.71913,0.24843 0.26007,0.0846 0.5228,0.16252 0.79104,0.21574 0.26484,0.0525 0.53966,0.0806 0.80411,0.0261 0.22507,-0.0463 0.43771,-0.15298 0.60799,-0.30726 0.084,-0.0761 0.1582,-0.16422 0.21033,-0.26487 0.0865,-0.16703 0.10848,-0.36181 0.0915,-0.54916 -0.0235,-0.25998 -0.12378,-0.51814 -0.30839,-0.70269 -0.15109,-0.15103 -0.35254,-0.2468 -0.56224,-0.28765 -0.25223,-0.0491 -0.51372,-0.0216 -0.76489,0.0327 -0.30812,0.0667 -0.60606,0.17298 -0.90219,0.28112 -0.34141,0.12467 -0.68181,0.25217 -1.01983,0.38571 -0.33966,0.13419 -0.67691,0.27446 -1.01153,0.42072 z" />
      <path
         inkscape:connector-curvature="0"
         id="path54"
         style="fill:#a80900;fill-opacity:1;stroke-width:3.98312926"
         d="m 100.6607,104.65447 2.1966,-0.29073 c 0.52945,3.01629 0.83847,6.08045 0.92293,9.15192 0.0665,2.41672 -0.006,4.83815 -0.21659,7.24461 0.58603,-2.42837 0.92184,-4.93117 0.99878,-7.44397 0.0933,-3.04755 -0.19501,-6.10917 -0.85397,-9.06925 0.87041,0.75695 1.921,1.25544 3.0148,1.43061 1.00809,0.16136 2.05078,0.0486 3.01191,-0.32579 -0.96418,3.00898 -1.47703,6.19619 -1.51093,9.39036 -0.0318,2.99462 0.35703,5.99438 1.14797,8.85692 -1.36878,0.26326 -2.76057,0.37813 -4.1493,0.34245 -1.27728,-0.0328 -2.55189,-0.19295 -3.80357,-0.47782 0.85569,-3.34185 1.17896,-6.85128 0.9504,-10.31624 -0.19152,-2.90371 -0.7693,-5.77546 -1.70872,-8.49319 z" />
      <path
         inkscape:connector-curvature="0"
         id="path56"
         style="fill:#3d1000;fill-opacity:1;stroke-width:1.05385625"
         d="m 97.703966,87.944226 c -1.753619,0.04845 -3.47841,0.796409 -4.761172,2.001791 -1.348654,1.267212 -2.232508,3.067944 -2.219045,4.918569 0.0097,1.335464 0.487444,2.663068 1.331159,3.698122 -1.474862,-0.217268 -3.008094,-0.023 -4.382178,0.554958 -1.164843,0.489868 -2.218638,1.257354 -3.002912,2.248024 -0.784368,0.99077 -1.292765,2.206 -1.397911,3.46516 -0.09581,1.1474 0.150059,2.33212 0.758021,3.30982 0.52453,0.84364 1.311215,1.51989 2.219045,1.92334 1.046155,0.46493 2.223607,0.56587 3.365336,0.48053 0.897685,-0.0671 1.815886,-0.25776 2.551435,-0.77662 0.805385,-0.56807 1.305665,-1.46337 1.775301,-2.32984 0.08273,-0.15265 0.165941,-0.30613 0.271815,-0.44373 0.105873,-0.1376 0.236489,-0.2598 0.39396,-0.33289 0.156736,-0.0727 0.335749,-0.0936 0.506418,-0.0668 0.170684,0.0269 0.332805,0.10087 0.470012,0.20589 0.26653,0.204 0.436267,0.52907 0.450991,0.86439 0.01472,0.33532 -0.1257,0.67461 -0.373336,0.9012 0.302944,-0.14679 0.558274,-0.38957 0.720802,-0.6844 0.111204,-0.20172 0.179459,-0.42738 0.193752,-0.65728 0.01432,-0.2299 -0.02575,-0.46359 -0.119728,-0.67388 -0.100794,-0.22548 -0.262578,-0.42231 -0.459093,-0.57194 -0.196507,-0.14963 -0.426906,-0.2527 -0.667411,-0.30903 -0.479201,-0.11222 -1.000303,-0.0335 -1.425017,0.2152 -0.05534,-0.26372 -0.129724,-0.52349 -0.222072,-0.77662 -0.269638,-0.73925 -0.698783,-1.42504 -1.275756,-1.96013 -0.688702,-0.63873 -1.583757,-1.05127 -2.51665,-1.16008 -0.932972,-0.10879 -1.898959,0.087 -2.716085,0.55011 0.33902,0.12589 0.643968,0.34117 0.876129,0.61846 0.232137,0.27728 0.390728,0.61572 0.455053,0.97158 0.06677,0.36962 0.03319,0.74938 -0.0031,1.12325 -0.03601,0.37389 -0.0742,0.75261 -0.01581,1.12366 0.05385,0.34188 0.190793,0.67063 0.399229,0.94692 0.208443,0.27629 0.488336,0.49896 0.806536,0.63504 0.318207,0.13609 0.67408,0.18479 1.016474,0.1343 0.342394,-0.0505 0.670127,-0.20074 0.928713,-0.43079 0.37602,-0.33457 0.589747,-0.83715 0.592174,-1.34048 0.0016,-0.25166 -0.04626,-0.50198 -0.124988,-0.74102 -0.0787,-0.23903 -0.188343,-0.46642 -0.298921,-0.69249 l -0.416229,-0.85063 c 0.586131,0.39481 1.024716,1.00385 1.21266,1.68509 0.187928,0.68125 0.123633,1.42908 -0.177166,2.06855 -0.186613,0.39672 -0.46328,0.75305 -0.813415,1.01689 -0.575487,0.43364 -1.314323,0.59615 -2.034169,0.62858 -1.078985,0.0486 -2.183016,-0.17929 -3.106461,-0.7394 -0.819451,-0.49699 -1.489617,-1.26727 -1.774895,-2.18218 -0.28422,-0.91154 -0.174785,-1.91178 0.148048,-2.81031 0.286678,-0.79801 0.739627,-1.53747 1.331159,-2.14491 0.812938,-0.83493 1.887155,-1.41203 3.032522,-1.627248 1.237701,-0.23257 2.537151,-0.0438 3.698142,0.443728 1.076432,0.45201 2.039782,1.15405 2.847585,1.99695 0.895987,0.93493 1.603803,2.04128 2.144911,3.21768 0.575995,1.25204 0.965588,2.58147 1.294355,3.91994 0.417756,1.70072 0.741279,3.42953 0.850627,5.17743 0.10131,1.61917 0.0173,3.25267 -0.296088,4.84463 -0.239604,1.21715 -0.615194,2.41289 -1.186352,3.51423 -0.787608,1.51857 -1.98016,2.86788 -3.52024,3.6124 -1.20203,0.58116 -2.575872,0.77295 -3.903367,0.62858 -2.25239,-0.245 -4.404549,-1.50321 -5.603026,-3.426 -0.908182,-1.45706 -1.248134,-3.27795 -0.83365,-4.94404 0.306506,-1.23209 1.012005,-2.35387 1.956514,-3.20235 1.205967,-1.08335 2.826882,-1.72334 4.446175,-1.64625 0.902695,0.043 1.826766,0.32335 2.475846,0.95217 0.452016,0.43789 0.746319,1.02222 0.895141,1.63372 0.197986,0.81358 0.144651,1.68652 -0.15128,2.46985 -0.295938,0.78328 -0.833172,1.47385 -1.519658,1.95325 0.737309,-0.82871 1.156576,-1.93372 1.1544,-3.04288 -0.0016,-0.62876 -0.146294,-1.28195 -0.548082,-1.76558 -0.279564,-0.33652 -0.672695,-0.57331 -1.096556,-0.68156 -0.423893,-0.10824 -0.876395,-0.0902 -1.29639,0.0323 -0.661885,0.19306 -1.249292,0.65948 -1.54433,1.28264 -0.186207,0.39332 -0.254047,0.83495 -0.249155,1.27008 0.0047,0.43516 0.08032,0.86609 0.169887,1.29194 0.179138,0.85171 0.416762,1.72239 0.26736,2.57982 -0.142599,0.81833 -0.653001,1.5654 -1.363534,1.99572 1.267813,0.26159 2.615848,0.11825 3.800658,-0.40367 1.184614,-0.52193 2.200407,-1.42003 2.86291,-2.53218 0.621833,-1.04364 0.932001,-2.28159 0.809377,-3.49042 -0.109411,-1.07839 -0.573247,-2.13103 -1.353811,-2.88321 -0.115815,-0.11157 -0.238086,-0.21649 -0.366072,-0.31387 0.698705,-0.0541 1.383289,-0.28253 1.97472,-0.65851 0.983113,-0.625 1.692213,-1.66552 1.914034,-2.80907 -0.51729,-0.0414 -1.031432,-0.12101 -1.537059,-0.23783 -0.625863,-0.14461 -1.24602,-0.34721 -1.888149,-0.36484 -0.681946,-0.0187 -1.368167,0.17946 -1.935074,0.55899 -0.566884,0.37955 -1.011832,0.93863 -1.254302,1.57628 0.784956,0.2728 1.616554,0.4107 2.447472,0.40652 0.806379,-0.004 1.611842,-0.1418 2.373541,-0.40652 -0.245201,0.26629 -0.543879,0.48289 -0.872872,0.63385 -0.381594,0.17506 -0.800845,0.26063 -1.220339,0.27747 -1.053419,0.0423 -2.07574,-0.33704 -3.12469,-0.44373 -1.29102,-0.13133 -2.622266,0.1651 -3.735408,0.83204 -1.927583,1.05238 -3.358088,2.97391 -3.813494,5.12234 -0.480657,2.26751 0.141097,4.74274 1.636154,6.51383 1.091523,1.46288 2.659124,2.56469 4.405167,3.0959 1.206195,0.367 2.493246,0.46508 3.741004,0.28557 -0.317996,0.30522 -0.599625,0.64862 -0.836882,1.02012 -0.321581,0.50351 -0.560692,1.05797 -0.718766,1.63412 -0.253655,0.92446 -0.297019,1.90409 -0.144001,2.85049 0.08123,0.50241 0.217265,0.99665 0.418234,1.46424 0.31953,0.74337 0.799874,1.41132 1.359079,1.99615 0.537625,0.56225 1.15444,1.05464 1.848902,1.4052 1.086702,0.54851 2.337301,0.73215 3.550266,0.62857 1.182888,-0.10102 2.342066,-0.47027 3.365346,-1.07228 0.97909,-0.72447 1.67568,-1.82119 1.91487,-3.01554 0.23918,-1.19425 0.0186,-2.47461 -0.60594,-3.52025 -0.51467,-0.86163 -1.29616,-1.56031 -2.20685,-1.98198 -0.89632,-0.41498 -1.914741,-0.56142 -2.891702,-0.41581 -0.976962,0.14561 -1.908594,0.58304 -2.64484,1.24136 0.650637,0.0561 1.271076,0.40125 1.661624,0.92465 0.275807,0.36965 0.434899,0.81203 0.573553,1.25188 0.13867,0.43987 0.262273,0.88863 0.479311,1.29558 0.221218,0.41473 0.539942,0.7798 0.933551,1.03671 0.393632,0.25689 0.862863,0.40274 1.332793,0.39195 0.4699,-0.0108 0.9382,-0.18176 1.29073,-0.49266 0.35252,-0.3109 0.58258,-0.76262 0.60592,-1.23206 0.0154,-0.30972 -0.0569,-0.62016 -0.18444,-0.90282 -0.12752,-0.28267 -0.30907,-0.53862 -0.51491,-0.77055 -0.53946,-0.60785 -1.25471,-1.05792 -2.036198,-1.28102 0.900378,-0.0343 1.808458,0.33651 2.427818,0.991 0.6193,0.65447 0.93945,1.58158 0.85552,2.47875 -0.0573,0.61213 -0.29493,1.20266 -0.65407,1.70168 -0.35916,0.49902 -0.83753,0.90758 -1.37204,1.21143 -0.86965,0.49438 -1.884502,0.71033 -2.884445,0.68075 -1.22606,-0.0362 -2.45079,-0.44609 -3.402195,-1.22034 -0.724473,-0.58961 -1.281831,-1.38424 -1.583162,-2.26834 -0.301324,-0.88412 -0.344961,-1.85492 -0.118108,-2.76102 0.209728,-0.83768 0.644986,-1.61101 1.210633,-2.26357 0.565639,-0.65256 1.259147,-1.18721 2.006664,-1.61957 1.476999,-0.85427 3.155749,-1.31028 4.844623,-1.55323 1.37628,-0.19798 2.7681,-0.21919 4.16105,-0.21272 v -1.41941 c -0.64386,-0.008 -1.00498,-0.0138 -1.50756,-0.005 -0.59907,0.0111 -1.19716,0.0528 -1.79352,0.11083 -0.25667,0.0251 -0.51394,0.0533 -0.77178,0.0481 -0.25784,-0.005 -0.51795,-0.0448 -0.75356,-0.14966 -0.19904,-0.0886 -0.381278,-0.22758 -0.490258,-0.41622 -0.0777,-0.13458 -0.11579,-0.29 -0.12094,-0.44535 -0.005,-0.15533 0.0217,-0.31046 0.0672,-0.45909 0.0909,-0.29725 0.254068,-0.56641 0.396008,-0.84295 0.44663,-0.87032 0.68975,-1.83047 0.86883,-2.79208 0.3129,-1.68027 0.44016,-3.39661 0.35152,-5.10351 -0.17159,-3.30341 -1.14411,-6.51321 -2.292995,-9.61511 -0.278898,-0.753 -0.568403,-1.50185 -0.868834,-2.24659 1.805189,0.0643 3.612829,0.0611 5.417689,-0.009 0.49952,-0.0195 0.99885,-0.0305 1.49783,-0.0603 v -1.36351 c -0.77285,0.0225 -1.44995,-0.047 -2.16315,-0.0926 -1.11064,-0.0813 -2.20396,-0.3164 -3.291848,-0.55495 -1.567905,-0.34387 -3.161955,-0.70723 -4.548469,-1.516006 -1.077904,-0.628766 -2.014914,-1.536302 -2.55185,-2.662634 -0.376028,-0.788775 -0.548787,-1.673138 -0.497533,-2.54544 0.05127,-0.872293 0.326551,-1.73052 0.792391,-2.469842 0.63726,-0.782787 1.43589,-1.433846 2.331094,-1.900284 1.366507,-0.712038 3.000219,-0.981262 4.475977,-0.538374 0.737948,0.221445 1.426108,0.6179 1.968258,1.165336 0.54214,0.547425 0.93481,1.246545 1.09295,2.000613 0.11631,0.554689 0.10544,1.136484 -0.0384,1.684691 -0.14384,0.548208 -0.42115,1.062077 -0.80617,1.477993 -0.5354,0.578383 -1.27913,0.95946 -2.061268,1.056527 -0.782151,0.09707 -1.596482,-0.09101 -2.256935,-0.520976 0.821369,0.229343 1.718866,0.175616 2.506903,-0.150059 0.3584,-0.148102 0.698,-0.353517 0.9647,-0.635045 0.26671,-0.281528 0.45737,-0.643185 0.49632,-1.029029 0.042,-0.415557 -0.0968,-0.841578 -0.35514,-1.169766 -0.25834,-0.32821 -0.63056,-0.559659 -1.03265,-0.672655 -0.402098,-0.112989 -0.832415,-0.110805 -1.240152,-0.02019 -0.407729,0.0906 -0.793511,0.267549 -1.144296,0.494277 -0.40131,0.259416 -0.76375,0.586437 -1.20214,0.776619 -0.352045,0.152728 -0.744612,0.210635 -1.125674,0.165432 -0.381077,-0.04516 -0.749567,-0.193446 -1.056111,-0.4243 0.156407,1.532519 1.096477,2.964393 2.440638,3.716778 0.783679,0.438718 1.691571,0.651886 2.588716,0.609956 1.167299,-0.0546 2.310589,-0.54851 3.143759,-1.367977 0.63912,-0.628642 1.09627,-1.44792 1.25714,-2.329841 0.19244,-1.054828 -0.0444,-2.163345 -0.55454,-3.10646 -0.4787,-0.884747 -1.19428,-1.63755 -2.04434,-2.175368 -0.85005,-0.537809 -1.832306,-0.861148 -2.834331,-0.950529 -0.250485,-0.02231 -0.501423,-0.02959 -0.751947,-0.02262 z m 14.995964,0 c -0.25053,-0.007 -0.50147,2.11e-4 -0.75196,0.02262 -1.00191,0.0894 -1.98419,0.412744 -2.83433,0.950528 -0.85013,0.53778 -1.56561,1.290606 -2.04428,2.175351 -0.51018,0.943061 -0.74698,2.051632 -0.55454,3.10646 0.16088,0.881921 0.61802,1.7012 1.25714,2.329849 0.83313,0.819443 1.97637,1.313398 3.14374,1.367968 0.89714,0.042 1.80504,-0.171248 2.58871,-0.609954 1.34419,-0.752464 2.28429,-2.184252 2.44065,-3.716779 -0.30655,0.230854 -0.67506,0.379073 -1.05611,0.424308 -0.38109,0.04516 -0.77366,-0.01268 -1.12571,-0.16544 -0.43838,-0.190182 -0.80082,-0.517203 -1.20213,-0.776611 -0.35079,-0.226736 -0.73615,-0.403698 -1.14388,-0.494285 -0.40774,-0.09059 -0.83848,-0.09277 -1.24056,0.0202 -0.4021,0.112996 -0.77392,0.34446 -1.03225,0.672648 -0.25834,0.32821 -0.39709,0.754209 -0.35514,1.169773 0.039,0.385836 0.22961,0.74747 0.49631,1.029022 0.26671,0.281528 0.60589,0.48695 0.96429,0.635044 0.78813,0.325683 1.68565,0.379402 2.50691,0.150067 -0.66053,0.429975 -1.47488,0.618036 -2.25694,0.520968 -0.78214,-0.09707 -1.52586,-0.478144 -2.06127,-1.056526 -0.38501,-0.415909 -0.66229,-0.929786 -0.80614,-1.477993 -0.14386,-0.548208 -0.15473,-1.130003 -0.0384,-1.684692 0.1581,-0.75406 0.55077,-1.453165 1.09291,-2.000613 0.54216,-0.547412 1.23028,-0.943868 1.96824,-1.165336 1.47588,-0.442888 3.10998,-0.173664 4.4764,0.538374 0.89516,0.466445 1.69339,1.117505 2.33068,1.900292 0.46584,0.739275 0.74153,1.597502 0.79279,2.469843 0.0513,0.872293 -0.12191,1.756656 -0.49793,2.545431 -0.537,1.126419 -1.4736,2.033955 -2.55144,2.662641 -1.38651,0.808786 -2.98095,1.172156 -4.54889,1.515996 -1.08776,0.23855 -2.18074,0.47369 -3.2914,0.55496 -0.72016,0.0527 -1.39389,0.0926 -2.16355,0.0926 l -0.003,1.36254 c 0.51956,-0.007 1.00156,0.0417 1.50104,0.0612 1.80498,0.0704 3.6124,0.0737 5.41766,0.009 -0.30043,0.74466 -0.59032,1.49352 -0.86925,2.24659 -1.14892,3.1019 -2.12109,6.31171 -2.29256,9.61511 -0.0887,1.70686 0.0382,3.42312 0.3511,5.10351 0.17907,0.96171 0.4226,1.92184 0.86924,2.79208 0.14192,0.27654 0.3051,0.5457 0.39599,0.84295 0.0454,0.14862 0.0726,0.30377 0.0672,0.4591 -0.005,0.15533 -0.0432,0.31076 -0.12094,0.44534 -0.10897,0.18863 -0.29122,0.32762 -0.49024,0.41622 -0.23559,0.10483 -0.49573,0.14418 -0.75356,0.14966 -0.25784,0.005 -0.51509,-0.0231 -0.77177,-0.0481 -0.59636,-0.0582 -1.19444,-0.0997 -1.79351,-0.11083 -0.50254,-0.009 -1.00562,-0.004 -1.50712,0.005 v 1.4194 c 1.38382,-0.0202 2.78421,0.0147 4.16058,0.21271 1.68885,0.24295 3.36761,0.69896 4.84463,1.55323 0.74751,0.43236 1.44102,0.96707 2.00667,1.61957 0.56564,0.65252 1.0009,1.42582 1.21063,2.26357 0.22685,0.90611 0.18322,1.8769 -0.11811,2.76102 -0.30134,0.88412 -0.85872,1.67878 -1.58316,2.26834 -0.95135,0.77425 -2.17618,1.1841 -3.40219,1.22034 -0.99991,0.0296 -2.01517,-0.18638 -2.88487,-0.68075 -0.5345,-0.30386 -1.01246,-0.71241 -1.37161,-1.21143 -0.35915,-0.49902 -0.59675,-1.08952 -0.65405,-1.70168 -0.084,-0.89711 0.23619,-1.82422 0.8555,-2.47875 0.6193,-0.65447 1.52734,-1.02528 2.4278,-0.991 -0.78151,0.22308 -1.49673,0.67314 -2.03618,1.28102 -0.20584,0.23193 -0.3874,0.4879 -0.51491,0.77054 -0.12754,0.28268 -0.19987,0.59311 -0.18445,0.90282 0.0233,0.46945 0.25341,0.92117 0.60593,1.23207 0.35255,0.3109 0.82081,0.48185 1.29071,0.49266 0.46991,0.0108 0.93917,-0.13505 1.3328,-0.39195 0.39361,-0.25691 0.71233,-0.62198 0.93355,-1.03671 0.21706,-0.40692 0.34066,-0.8557 0.47931,-1.29558 0.13867,-0.43985 0.29774,-0.88223 0.57355,-1.25188 0.39057,-0.52342 1.01099,-0.86853 1.66163,-0.92465 -0.73636,-0.65832 -1.66801,-1.09577 -2.64484,-1.24136 -0.97694,-0.14561 -1.99536,7.8e-4 -2.8917,0.41581 -0.91075,0.42167 -1.69261,1.12035 -2.20724,1.98198 -0.62457,1.04564 -0.84469,2.32591 -0.60552,3.52024 0.23918,1.19425 0.93536,2.29091 1.91443,3.01555 1.02325,0.60203 2.1824,0.97129 3.36534,1.07228 1.21286,0.10358 2.46383,-0.08 3.55068,-0.62858 0.69446,-0.35055 1.31127,-0.84294 1.8489,-1.40519 0.5592,-0.58481 1.03916,-1.25276 1.35869,-1.99616 0.20097,-0.46757 0.3374,-0.96181 0.41864,-1.46424 0.15302,-0.94632 0.10965,-1.92596 -0.14399,-2.85048 -0.15809,-0.57615 -0.39761,-1.13061 -0.71919,-1.63412 -0.23725,-0.37148 -0.51849,-0.7149 -0.83649,-1.02013 1.24795,0.17953 2.53488,0.0814 3.74101,-0.28556 1.7462,-0.53129 3.31377,-1.63309 4.40516,-3.0959 1.49506,-1.77119 2.11674,-4.24632 1.63616,-6.51383 -0.45543,-2.14843 -1.88591,-4.07009 -3.8135,-5.12235 -1.11319,-0.66693 -2.44436,-0.96335 -3.73541,-0.83203 -1.04884,0.1067 -2.07118,0.48606 -3.12468,0.44372 -0.4195,-0.0168 -0.83916,-0.10241 -1.22074,-0.27746 -0.329,-0.15095 -0.62727,-0.36756 -0.87248,-0.63385 0.7617,0.26472 1.56715,0.4026 2.37355,0.40652 0.83099,0.004 1.66259,-0.13372 2.44747,-0.40652 -0.24249,-0.63765 -0.68742,-1.19675 -1.2543,-1.57627 -0.5669,-0.37955 -1.25311,-0.57773 -1.93508,-0.559 -0.64213,0.0176 -1.26228,0.22023 -1.88815,0.36484 -0.50563,0.11683 -1.01975,0.19643 -1.53706,0.23783 0.22183,1.14366 0.93092,2.18426 1.91404,2.80907 0.59141,0.37598 1.27599,0.60442 1.97471,0.6585 -0.12798,0.0974 -0.25065,0.20231 -0.36645,0.31388 -0.78059,0.75208 -1.244,1.80477 -1.35342,2.88321 -0.12263,1.20864 0.18756,2.44665 0.80937,3.49042 0.66259,1.11208 1.67792,2.01057 2.8625,2.5326 1.18462,0.52192 2.5328,0.66486 3.80065,0.40328 -0.71053,-0.43033 -1.22092,-1.1774 -1.36353,-1.99574 -0.14941,-0.85742 0.0886,-1.7281 0.26778,-2.57981 0.0896,-0.42586 0.16519,-0.85678 0.16988,-1.29194 0.005,-0.43514 -0.0633,-0.87676 -0.24957,-1.27009 -0.29503,-0.62315 -0.88203,-1.08957 -1.54394,-1.28262 -0.41997,-0.12253 -0.87249,-0.14061 -1.29638,-0.0323 -0.42389,0.10825 -0.81741,0.34504 -1.09698,0.68156 -0.40178,0.48363 -0.54611,1.13682 -0.54766,1.76559 -0.002,1.10923 0.41707,2.21387 1.1544,3.04246 -0.68649,-0.47943 -1.22371,-1.16958 -1.51966,-1.95287 -0.29592,-0.78328 -0.34927,-1.65621 -0.15128,-2.46984 0.14881,-0.61148 0.44311,-1.19584 0.89514,-1.63373 0.6491,-0.62879 1.57276,-0.90919 2.47543,-0.95217 1.61928,-0.0771 3.24025,0.56291 4.44618,1.64626 0.9445,0.84848 1.6504,1.97024 1.9569,3.20235 0.41448,1.66611 0.0745,3.48689 -0.83365,4.94403 -1.19847,1.9228 -3.35042,3.18102 -5.60302,3.42601 -1.32733,0.14438 -2.70117,-0.0474 -3.90337,-0.62858 -1.5401,-0.7446 -2.73306,-2.09396 -3.52066,-3.6124 -0.57115,-1.1012 -0.94635,-2.29712 -1.18596,-3.51424 -0.31331,-1.59178 -0.39739,-3.22532 -0.29608,-4.84462 0.10936,-1.74786 0.43287,-3.47675 0.85063,-5.17744 0.32877,-1.33841 0.71835,-2.66782 1.29435,-3.91994 0.54119,-1.17641 1.24901,-2.28283 2.14492,-3.21767 0.8078,-0.8429 1.77115,-1.54494 2.84758,-1.99695 1.16116,-0.487548 2.46053,-0.676298 3.69814,-0.443728 1.14527,0.215218 2.21946,0.792318 3.03252,1.627248 0.59154,0.60754 1.04448,1.34698 1.33116,2.1449 0.32283,0.8986 0.43228,1.89884 0.14804,2.81031 -0.28527,0.91496 -0.95583,1.68522 -1.77529,2.18219 -0.92349,0.5601 -2.02749,0.78801 -3.10646,0.7394 -0.71986,-0.0324 -1.45826,-0.19493 -2.03376,-0.62858 -0.35015,-0.26385 -0.62722,-0.62016 -0.81383,-1.01689 -0.30081,-0.63947 -0.36471,-1.3873 -0.17676,-2.06855 0.18792,-0.68125 0.62614,-1.2903 1.21224,-1.68509 l -0.41581,0.85063 c -0.11057,0.22607 -0.22023,0.45344 -0.29892,0.69249 -0.0787,0.23903 -0.12656,0.48935 -0.12499,0.74102 0.002,0.50331 0.21613,1.00592 0.59217,1.34048 0.25857,0.23004 0.58632,0.38029 0.92872,0.43078 0.34239,0.0505 0.69824,0.002 1.01647,-0.13429 0.3182,-0.13608 0.59809,-0.35876 0.80654,-0.63504 0.20842,-0.27629 0.34537,-0.60502 0.39922,-0.94691 0.0584,-0.37104 0.0202,-0.74978 -0.0158,-1.12367 -0.0362,-0.37389 -0.07,-0.75363 -0.003,-1.12326 0.0643,-0.35585 0.22289,-0.69429 0.45505,-0.97157 0.23214,-0.27729 0.53752,-0.49258 0.87652,-0.61846 -0.81719,-0.46313 -1.78317,-0.6589 -2.71608,-0.55011 -0.93297,0.10879 -1.82801,0.52134 -2.51665,1.16007 -0.57698,0.5351 -1.00651,1.22088 -1.27616,1.96014 -0.0923,0.25313 -0.16632,0.5129 -0.22166,0.77661 -0.42471,-0.24866 -0.9462,-0.32742 -1.4254,-0.21519 -0.24049,0.0564 -0.47049,0.1594 -0.667,0.30903 -0.19651,0.14963 -0.35871,0.34645 -0.45951,0.57194 -0.094,0.21029 -0.13405,0.44398 -0.11973,0.67388 0.0143,0.22989 0.0825,0.45557 0.19376,0.65728 0.16252,0.29482 0.41825,0.53761 0.72119,0.68439 -0.24764,-0.22656 -0.38806,-0.56587 -0.37334,-0.9012 0.0147,-0.33533 0.18406,-0.66039 0.4506,-0.86438 0.13723,-0.10502 0.29935,-0.17896 0.47002,-0.20589 0.17068,-0.0269 0.35008,-0.006 0.50683,0.0668 0.15747,0.0731 0.28808,0.1953 0.39396,0.33289 0.10588,0.13759 0.18868,0.29107 0.27141,0.44372 0.46962,0.86648 0.96993,1.76178 1.7753,2.32985 0.73562,0.51887 1.65382,0.70953 2.55145,0.77661 1.14162,0.0853 2.31928,-0.0156 3.36533,-0.48052 0.90779,-0.40345 1.69449,-1.07971 2.21905,-1.92333 0.60795,-0.97782 0.85382,-2.16252 0.75802,-3.30984 -0.10516,-1.25928 -0.61355,-2.47439 -1.39791,-3.46515 -0.78436,-0.99077 -1.83807,-1.758246 -3.00291,-2.248024 -1.3742,-0.577948 -2.90744,-0.772226 -4.38218,-0.554958 0.84373,-1.035204 1.32186,-2.362764 1.33157,-3.698126 0.0135,-1.850539 -0.87037,-3.651334 -2.21905,-4.91857 -1.28287,-1.205381 -3.00809,-1.953323 -4.76158,-2.001791 z" />
    </g>
  </g>
</svg>
